<?xml version="1.0" encoding="UTF-8"?>
<!DOCTYPE svg PUBLIC "-//W3C//DTD SVG 1.1//EN" "http://www.w3.org/Graphics/SVG/1.1/DTD/svg11.dtd">
<!-- Creator: CorelDRAW -->
<svg xmlns="http://www.w3.org/2000/svg" xml:space="preserve" width="235.832mm" height="137.335mm" version="1.1" style="shape-rendering:geometricPrecision; text-rendering:geometricPrecision; image-rendering:optimizeQuality; fill-rule:evenodd; clip-rule:evenodd"
viewBox="0 0 23583.16 13733.52"
 xmlns:xlink="http://www.w3.org/1999/xlink"
 xmlns:xodm="http://www.corel.com/coreldraw/odm/2003">
 <defs>
  <style type="text/css">
   <![CDATA[
    .str0 {stroke:#93BAB3;stroke-width:100;stroke-miterlimit:22.9256}
    .fil0 {fill:#FEFEFE}
   ]]>
  </style>
 </defs>
 <g id="Слой_x0020_1">
  <metadata id="CorelCorpID_0Corel-Layer"/>
  <polygon class="fil0 str0" points="8671.95,2201.63 8101.46,3518.98 3160.19,4320.74 1097.3,5094.8 127.06,7084.91 539.48,7842.07 6508.99,9087.28 7985.38,10163.85 11320.29,11410.36 11435.8,12403.26 11696.39,12979.36 13787.79,13326.54 14215.08,12484.25 13591.62,10471.88 12726.17,9630.56 13062.31,9441.94 15459.8,10600.55 16845.45,9774.75 18442.48,9133.99 18922.48,7239.98 20717.63,6526.11 23476.03,4328.94 23476.03,3823.11 22554.78,3098.52 21607.37,3144.82 18310.4,3426.78 17044.88,3019.56 16398.68,2171.01 14910.91,2060.7 13363.68,1309.62 12466.72,367.33 11562.2,361.24 11323.54,1071.13 10614.13,1550.88 9860.71,1579.32 "/>
 </g>
</svg>
