<?xml version="1.0" encoding="UTF-8"?>
<!DOCTYPE svg PUBLIC "-//W3C//DTD SVG 1.1//EN" "http://www.w3.org/Graphics/SVG/1.1/DTD/svg11.dtd">
<!-- Creator: CorelDRAW -->
<svg xmlns="http://www.w3.org/2000/svg" xml:space="preserve" width="249.5mm" height="138.6mm" version="1.1" style="shape-rendering:geometricPrecision; text-rendering:geometricPrecision; image-rendering:optimizeQuality; fill-rule:evenodd; clip-rule:evenodd"
viewBox="0 0 24949.96 13860.02"
 xmlns:xlink="http://www.w3.org/1999/xlink"
 xmlns:xodm="http://www.corel.com/coreldraw/odm/2003">
 <defs>
  <style type="text/css">
   <![CDATA[
    .str0 {stroke:#93BAB3;stroke-width:200;stroke-miterlimit:22.9256}
    .fil0 {fill:none}
   ]]>
  </style>
 </defs>
 <g id="Слой_x0020_1">
  <metadata id="CorelCorpID_0Corel-Layer"/>
  <polygon class="fil0 str0" points="22178.13,1756.27 21149.35,1011.89 20499.09,845.57 20030.31,999.38 19800.48,1783.68 19043.5,1439.48 18957.28,1291.23 18416.55,900.68 17189.18,407.16 16390.64,586.9 16358.08,789.02 16291.9,965.42 16298.94,1191.05 16144.59,1520.11 16063.68,1658.48 15787.18,1977.37 14954.19,1327.86 14424.61,1302.42 14131.52,1975.4 14023.77,2066.27 13928.37,2149.54 13780.78,1902.51 14046.7,1028.56 13529.47,793.43 13112.58,858.5 12953.96,934.23 12317.66,1855.92 11664.44,1849.54 11170.71,774.9 10743.99,174.54 10319.11,151.16 9104.22,490.67 7861.62,508.61 7177.17,516.1 6219.71,530.92 5873.49,420.29 5476.98,621.55 5307.24,1160.68 4940.4,1522.58 4133.96,1734.62 3578.12,2928.32 3012.86,3918.75 1568.09,4069.59 132.92,4618.84 231.45,5322.64 2327.78,7330.57 5129.27,8632.55 5700.96,9134.97 7403,10463.46 9830.73,12142.29 11535.2,11757.87 12253.57,12052.48 13059.9,12258.11 13668.46,12722.41 14293.11,13108.22 16454.59,13759.09 16925.07,13478.15 19354.58,12954.5 19977.75,12260.25 19999.6,10753.29 20958.7,10705.1 21053.12,10087.28 21381.15,9739.25 21272.94,8550.77 22759.32,8088.2 23107.8,6421.14 24019.24,6720.48 24766.21,6300.39 24415.1,4690.83 24749.54,4363.91 24728.1,3431.97 24258.37,2864.78 23495.51,2679.85 23127.6,2618.69 22866.37,2509.21 22185.12,2338.12 "/>
 </g>
</svg>
