<?xml version="1.0" encoding="UTF-8"?>
<!DOCTYPE svg PUBLIC "-//W3C//DTD SVG 1.1//EN" "http://www.w3.org/Graphics/SVG/1.1/DTD/svg11.dtd">
<!-- Creator: CorelDRAW -->
<svg xmlns="http://www.w3.org/2000/svg" xml:space="preserve" width="235.832mm" height="137.335mm" version="1.1" style="shape-rendering:geometricPrecision; text-rendering:geometricPrecision; image-rendering:optimizeQuality; fill-rule:evenodd; clip-rule:evenodd"
viewBox="0 0 23583.16 13733.52"
 xmlns:xlink="http://www.w3.org/1999/xlink"
 xmlns:xodm="http://www.corel.com/coreldraw/odm/2003">
 <defs>
  <style type="text/css">
   <![CDATA[
    .str0 {stroke:#93BAB3;stroke-width:200;stroke-miterlimit:22.9256}
    .str1 {stroke:#25695C;stroke-width:75;stroke-linecap:round;stroke-linejoin:round;stroke-miterlimit:22.9256}
    .fil0 {fill:none}
   ]]>
  </style>
 </defs>
 <g id="Слой_x0020_1">
  <metadata id="CorelCorpID_0Corel-Layer"/>
  <path class="fil0 str0" d="M9034.9 2375.23c66.29,1650.15 -795.43,1584.35 -5874.71,1945.51 -1659.25,117.95 -2225.68,1507.02 -3033.13,2764.17 -138.34,215.51 167.99,704.28 412.42,757.16 1027.58,131.11 5827.51,559.77 6450.32,872.92 491.29,247.03 632.55,535 1125.63,746.77 718.34,308.6 2838.26,883.64 3204.86,1948.6 12.42,36.31 78.22,650.99 115.51,992.9 13.32,122.17 258.15,562.53 260.59,576.1 528.33,521.1 1193.38,980.23 2091.4,347.18 1773.63,-1250.16 -968.2,-3044.82 -1269.74,-3898.33 1143.1,-1094.68 1626.43,718.26 2941.75,1172.34 1044.48,360.67 1012.96,-478.94 1385.65,-825.8 597.95,-556.61 1083.4,373.99 1597.03,-640.76 284.47,-561.97 266.6,-1301.26 480,-1894.01 335.49,-932.3 830.6,-589.58 1795.15,-713.87 407.62,-52.56 2396.43,-1811.8 2758.4,-2197.17l0 -505.83c-650.26,-733.69 -555.63,-718.82 -1868.66,-678.29 -927.92,28.68 -3938.55,327.61 -4562.49,-125.26 -592.91,-430.29 -499.9,-744.41 -1666.48,-731.9 -2367.92,25.34 -498.03,-514.85 -2911.68,-1920.33 -1600.6,-931.98 -1136.61,837.51 -1852.59,1183.55l-753.42 28.44c-14.38,-34.53 -799,812.07 -825.81,795.91z"/>
  <g id="_1606302350544">
   <path class="fil0 str1" d="M12452.03 11495.18c0,161.8 -242.66,350.53 -242.66,350.53 0,0 -242.67,-188.73 -242.67,-350.53 0,-132.17 110.49,-242.66 242.67,-242.66 132.17,0 242.66,110.49 242.66,242.66z"/>
   <path class="fil0 str1" d="M12209.37 11576.08c44.67,0 80.89,-36.22 80.89,-80.9 0,-44.67 -36.22,-80.87 -80.89,-80.87 -44.68,0 -80.9,36.2 -80.9,80.87 0,44.68 36.22,80.9 80.9,80.9z"/>
  </g>
  <g id="_1606302349776">
   <path class="fil0 str1" d="M13496.23 12012.82c0,161.8 -242.66,350.53 -242.66,350.53 0,0 -242.67,-188.73 -242.67,-350.53 0,-132.17 110.49,-242.66 242.67,-242.66 132.17,0 242.66,110.49 242.66,242.66z"/>
   <path class="fil0 str1" d="M13253.57 12093.72c44.67,0 80.89,-36.22 80.89,-80.9 0,-44.67 -36.22,-80.87 -80.89,-80.87 -44.68,0 -80.9,36.2 -80.9,80.87 0,44.68 36.22,80.9 80.9,80.9z"/>
  </g>
  <g id="_1606302347568">
   <path class="fil0 str1" d="M10712.62 9417.16c0,161.8 -242.67,350.53 -242.67,350.53 0,0 -242.66,-188.73 -242.66,-350.53 0,-132.17 110.49,-242.66 242.66,-242.66 132.18,0 242.67,110.49 242.67,242.66z"/>
   <path class="fil0 str1" d="M10469.95 9498.06c44.68,0 80.9,-36.22 80.9,-80.9 0,-44.67 -36.22,-80.87 -80.9,-80.87 -44.67,0 -80.89,36.2 -80.89,80.87 0,44.68 36.22,80.9 80.89,80.9z"/>
  </g>
  <g id="_1606302345936">
   <path class="fil0 str1" d="M11756.82 9934.8c0,161.8 -242.67,350.53 -242.67,350.53 0,0 -242.66,-188.73 -242.66,-350.53 0,-132.17 110.49,-242.66 242.66,-242.66 132.18,0 242.67,110.49 242.67,242.66z"/>
   <path class="fil0 str1" d="M11514.15 10015.7c44.68,0 80.9,-36.22 80.9,-80.9 0,-44.67 -36.22,-80.87 -80.9,-80.87 -44.67,0 -80.89,36.2 -80.89,80.87 0,44.68 36.22,80.9 80.89,80.9z"/>
  </g>
  <g id="_1606302344928">
   <path class="fil0 str1" d="M9040.03 8418.59c0,161.8 -242.67,350.53 -242.67,350.53 0,0 -242.66,-188.73 -242.66,-350.53 0,-132.17 110.49,-242.66 242.66,-242.66 132.18,0 242.67,110.49 242.67,242.66z"/>
   <path class="fil0 str1" d="M8797.36 8499.49c44.68,0 80.9,-36.22 80.9,-80.9 0,-44.67 -36.22,-80.87 -80.9,-80.87 -44.67,0 -80.89,36.2 -80.89,80.87 0,44.68 36.22,80.9 80.89,80.9z"/>
  </g>
  <g id="_1606302347184">
   <path class="fil0 str1" d="M10084.23 8936.23c0,161.8 -242.67,350.53 -242.67,350.53 0,0 -242.66,-188.73 -242.66,-350.53 0,-132.17 110.49,-242.66 242.66,-242.66 132.18,0 242.67,110.49 242.67,242.66z"/>
   <path class="fil0 str1" d="M9841.56 9017.13c44.68,0 80.9,-36.22 80.9,-80.9 0,-44.67 -36.22,-80.87 -80.9,-80.87 -44.67,0 -80.89,36.2 -80.89,80.87 0,44.68 36.22,80.9 80.89,80.9z"/>
  </g>
  <g id="_1606302345600">
   <path class="fil0 str1" d="M6843.18 7519.88c0,161.8 -242.67,350.53 -242.67,350.53 0,0 -242.66,-188.73 -242.66,-350.53 0,-132.17 110.49,-242.66 242.66,-242.66 132.18,0 242.67,110.49 242.67,242.66z"/>
   <path class="fil0 str1" d="M6600.51 7600.78c44.68,0 80.9,-36.22 80.9,-80.9 0,-44.67 -36.22,-80.87 -80.9,-80.87 -44.67,0 -80.89,36.2 -80.89,80.87 0,44.68 36.22,80.9 80.89,80.9z"/>
  </g>
  <g id="_1606302343200">
   <path class="fil0 str1" d="M7887.38 8037.52c0,161.8 -242.67,350.53 -242.67,350.53 0,0 -242.66,-188.73 -242.66,-350.53 0,-132.17 110.49,-242.66 242.66,-242.66 132.18,0 242.67,110.49 242.67,242.66z"/>
   <path class="fil0 str1" d="M7644.71 8118.42c44.68,0 80.9,-36.22 80.9,-80.9 0,-44.67 -36.22,-80.87 -80.9,-80.87 -44.67,0 -80.89,36.2 -80.89,80.87 0,44.68 36.22,80.9 80.89,80.9z"/>
  </g>
  <g id="_1606302338592">
   <path class="fil0 str1" d="M4571.44 6920.74c0,161.8 -242.67,350.53 -242.67,350.53 0,0 -242.66,-188.73 -242.66,-350.53 0,-132.17 110.49,-242.66 242.66,-242.66 132.18,0 242.67,110.49 242.67,242.66z"/>
   <path class="fil0 str1" d="M4328.77 7001.64c44.68,0 80.9,-36.22 80.9,-80.9 0,-44.67 -36.22,-80.87 -80.9,-80.87 -44.67,0 -80.89,36.2 -80.89,80.87 0,44.68 36.22,80.9 80.89,80.9z"/>
  </g>
  <g id="_1606302339504">
   <path class="fil0 str1" d="M5615.64 7438.38c0,161.8 -242.67,350.53 -242.67,350.53 0,0 -242.66,-188.73 -242.66,-350.53 0,-132.17 110.49,-242.66 242.66,-242.66 132.18,0 242.67,110.49 242.67,242.66z"/>
   <path class="fil0 str1" d="M5372.97 7519.28c44.68,0 80.9,-36.22 80.9,-80.9 0,-44.67 -36.22,-80.87 -80.9,-80.87 -44.67,0 -80.89,36.2 -80.89,80.87 0,44.68 36.22,80.9 80.89,80.9z"/>
  </g>
  <g id="_1606302339072">
   <path class="fil0 str1" d="M2199.84 6721.03c0,161.8 -242.67,350.53 -242.67,350.53 0,0 -242.66,-188.73 -242.66,-350.53 0,-132.17 110.49,-242.66 242.66,-242.66 132.18,0 242.67,110.49 242.67,242.66z"/>
   <path class="fil0 str1" d="M1957.17 6801.93c44.68,0 80.9,-36.22 80.9,-80.9 0,-44.67 -36.22,-80.87 -80.9,-80.87 -44.67,0 -80.89,36.2 -80.89,80.87 0,44.68 36.22,80.9 80.89,80.9z"/>
  </g>
  <g id="_1606302340992">
   <path class="fil0 str1" d="M3244.04 7238.67c0,161.8 -242.67,350.53 -242.67,350.53 0,0 -242.66,-188.73 -242.66,-350.53 0,-132.17 110.49,-242.66 242.66,-242.66 132.18,0 242.67,110.49 242.67,242.66z"/>
   <path class="fil0 str1" d="M3001.37 7319.57c44.68,0 80.9,-36.22 80.9,-80.9 0,-44.67 -36.22,-80.87 -80.9,-80.87 -44.67,0 -80.89,36.2 -80.89,80.87 0,44.68 36.22,80.9 80.89,80.9z"/>
  </g>
  <g id="_1604279790368">
   <path class="fil0 str1" d="M5794.68 5073.39c0,161.8 -242.67,350.53 -242.67,350.53 0,0 -242.66,-188.73 -242.66,-350.53 0,-132.17 110.49,-242.66 242.66,-242.66 132.18,0 242.67,110.49 242.67,242.66z"/>
   <path class="fil0 str1" d="M5552.01 5154.29c44.68,0 80.9,-36.22 80.9,-80.9 0,-44.67 -36.22,-80.87 -80.9,-80.87 -44.67,0 -80.89,36.2 -80.89,80.87 0,44.68 36.22,80.9 80.89,80.9z"/>
  </g>
  <g id="_1604279786528">
   <path class="fil0 str1" d="M6838.88 5591.03c0,161.8 -242.67,350.53 -242.67,350.53 0,0 -242.66,-188.73 -242.66,-350.53 0,-132.17 110.49,-242.66 242.66,-242.66 132.18,0 242.67,110.49 242.67,242.66z"/>
   <path class="fil0 str1" d="M6596.21 5671.93c44.68,0 80.9,-36.22 80.9,-80.9 0,-44.67 -36.22,-80.87 -80.9,-80.87 -44.67,0 -80.89,36.2 -80.89,80.87 0,44.68 36.22,80.9 80.89,80.9z"/>
  </g>
  <g id="_1604279786144">
   <path class="fil0 str1" d="M8298.08 4655.01c0,161.8 -242.67,350.53 -242.67,350.53 0,0 -242.66,-188.73 -242.66,-350.53 0,-132.17 110.49,-242.66 242.66,-242.66 132.18,0 242.67,110.49 242.67,242.66z"/>
   <path class="fil0 str1" d="M8055.41 4735.91c44.68,0 80.9,-36.22 80.9,-80.9 0,-44.67 -36.22,-80.87 -80.9,-80.87 -44.67,0 -80.89,36.2 -80.89,80.87 0,44.68 36.22,80.9 80.89,80.9z"/>
  </g>
  <g id="_1604279783168">
   <path class="fil0 str1" d="M9342.28 5172.65c0,161.8 -242.67,350.53 -242.67,350.53 0,0 -242.66,-188.73 -242.66,-350.53 0,-132.17 110.49,-242.66 242.66,-242.66 132.18,0 242.67,110.49 242.67,242.66z"/>
   <path class="fil0 str1" d="M9099.61 5253.55c44.68,0 80.9,-36.22 80.9,-80.9 0,-44.67 -36.22,-80.87 -80.9,-80.87 -44.67,0 -80.89,36.2 -80.89,80.87 0,44.68 36.22,80.9 80.89,80.9z"/>
  </g>
  <g id="_1604279782064">
   <path class="fil0 str1" d="M9895.79 3007.37c0,161.8 -242.67,350.53 -242.67,350.53 0,0 -242.66,-188.73 -242.66,-350.53 0,-132.17 110.49,-242.66 242.66,-242.66 132.18,0 242.67,110.49 242.67,242.66z"/>
   <path class="fil0 str1" d="M9653.12 3088.27c44.68,0 80.9,-36.22 80.9,-80.9 0,-44.67 -36.22,-80.87 -80.9,-80.87 -44.67,0 -80.89,36.2 -80.89,80.87 0,44.68 36.22,80.9 80.89,80.9z"/>
  </g>
  <g id="_1607374649472">
   <path class="fil0 str1" d="M10939.99 3525.01c0,161.8 -242.67,350.53 -242.67,350.53 0,0 -242.66,-188.73 -242.66,-350.53 0,-132.17 110.49,-242.66 242.66,-242.66 132.18,0 242.67,110.49 242.67,242.66z"/>
   <path class="fil0 str1" d="M10697.32 3605.91c44.68,0 80.9,-36.22 80.9,-80.9 0,-44.67 -36.22,-80.87 -80.9,-80.87 -44.67,0 -80.89,36.2 -80.89,80.87 0,44.68 36.22,80.9 80.89,80.9z"/>
  </g>
  <g id="_1607374637328">
   <path class="fil0 str1" d="M11501.5 2152.85c0,161.8 -242.67,350.53 -242.67,350.53 0,0 -242.66,-188.73 -242.66,-350.53 0,-132.17 110.49,-242.66 242.66,-242.66 132.18,0 242.67,110.49 242.67,242.66z"/>
   <path class="fil0 str1" d="M11258.83 2233.75c44.68,0 80.9,-36.22 80.9,-80.9 0,-44.67 -36.22,-80.87 -80.9,-80.87 -44.67,0 -80.89,36.2 -80.89,80.87 0,44.68 36.22,80.9 80.89,80.9z"/>
  </g>
  <g id="_1607374626240">
   <path class="fil0 str1" d="M12545.7 2670.49c0,161.8 -242.66,350.53 -242.66,350.53 0,0 -242.67,-188.73 -242.67,-350.53 0,-132.17 110.49,-242.66 242.67,-242.66 132.17,0 242.66,110.49 242.66,242.66z"/>
   <path class="fil0 str1" d="M12303.04 2751.39c44.67,0 80.89,-36.22 80.89,-80.9 0,-44.67 -36.22,-80.87 -80.89,-80.87 -44.68,0 -80.9,36.2 -80.9,80.87 0,44.68 36.22,80.9 80.9,80.9z"/>
  </g>
  <g id="_1607433943936">
   <path class="fil0 str1" d="M12025.76 5223.47c0,161.8 -242.67,350.53 -242.67,350.53 0,0 -242.66,-188.73 -242.66,-350.53 0,-132.17 110.49,-242.66 242.66,-242.66 132.18,0 242.67,110.49 242.67,242.66z"/>
   <path class="fil0 str1" d="M11783.09 5304.37c44.68,0 80.9,-36.22 80.9,-80.9 0,-44.67 -36.22,-80.87 -80.9,-80.87 -44.67,0 -80.89,36.2 -80.89,80.87 0,44.68 36.22,80.9 80.89,80.9z"/>
  </g>
  <g id="_1607433943744">
   <path class="fil0 str1" d="M13069.96 5741.11c0,161.8 -242.66,350.53 -242.66,350.53 0,0 -242.67,-188.73 -242.67,-350.53 0,-132.17 110.49,-242.66 242.67,-242.66 132.17,0 242.66,110.49 242.66,242.66z"/>
   <path class="fil0 str1" d="M12827.3 5822.01c44.67,0 80.89,-36.22 80.89,-80.9 0,-44.67 -36.22,-80.87 -80.89,-80.87 -44.68,0 -80.9,36.2 -80.9,80.87 0,44.68 36.22,80.9 80.9,80.9z"/>
  </g>
  <g id="_1609744508384">
   <path class="fil0 str1" d="M10915.3 6450.08c0,161.8 -242.67,350.53 -242.67,350.53 0,0 -242.66,-188.73 -242.66,-350.53 0,-132.17 110.49,-242.66 242.66,-242.66 132.18,0 242.67,110.49 242.67,242.66z"/>
   <path class="fil0 str1" d="M10672.63 6530.98c44.68,0 80.9,-36.22 80.9,-80.9 0,-44.67 -36.22,-80.87 -80.9,-80.87 -44.67,0 -80.89,36.2 -80.89,80.87 0,44.68 36.22,80.9 80.89,80.9z"/>
  </g>
  <g id="_1606397442752">
   <path class="fil0 str1" d="M11959.5 6967.72c0,161.8 -242.67,350.53 -242.67,350.53 0,0 -242.66,-188.73 -242.66,-350.53 0,-132.17 110.49,-242.66 242.66,-242.66 132.18,0 242.67,110.49 242.67,242.66z"/>
   <path class="fil0 str1" d="M11716.83 7048.62c44.68,0 80.9,-36.22 80.9,-80.9 0,-44.67 -36.22,-80.87 -80.9,-80.87 -44.67,0 -80.89,36.2 -80.89,80.87 0,44.68 36.22,80.9 80.89,80.9z"/>
  </g>
  <g id="_1609730326048">
   <path class="fil0 str1" d="M12912.45 6749.66c0,161.8 -242.66,350.53 -242.66,350.53 0,0 -242.67,-188.73 -242.67,-350.53 0,-132.17 110.49,-242.66 242.67,-242.66 132.17,0 242.66,110.49 242.66,242.66z"/>
   <path class="fil0 str1" d="M12669.79 6830.56c44.67,0 80.89,-36.22 80.89,-80.9 0,-44.67 -36.22,-80.87 -80.89,-80.87 -44.68,0 -80.9,36.2 -80.9,80.87 0,44.68 36.22,80.9 80.9,80.9z"/>
  </g>
  <g id="_1601414181536">
   <path class="fil0 str1" d="M13956.65 7267.3c0,161.8 -242.66,350.53 -242.66,350.53 0,0 -242.67,-188.73 -242.67,-350.53 0,-132.17 110.49,-242.66 242.67,-242.66 132.17,0 242.66,110.49 242.66,242.66z"/>
   <path class="fil0 str1" d="M13713.99 7348.2c44.67,0 80.89,-36.22 80.89,-80.9 0,-44.67 -36.22,-80.87 -80.89,-80.87 -44.68,0 -80.9,36.2 -80.9,80.87 0,44.68 36.22,80.9 80.9,80.9z"/>
  </g>
  <g id="_1601414183168">
   <path class="fil0 str1" d="M13846.22 5077.03c0,161.8 -242.66,350.53 -242.66,350.53 0,0 -242.67,-188.73 -242.67,-350.53 0,-132.17 110.49,-242.66 242.67,-242.66 132.17,0 242.66,110.49 242.66,242.66z"/>
   <path class="fil0 str1" d="M13603.56 5157.93c44.67,0 80.89,-36.22 80.89,-80.9 0,-44.67 -36.22,-80.87 -80.89,-80.87 -44.68,0 -80.9,36.2 -80.9,80.87 0,44.68 36.22,80.9 80.9,80.9z"/>
  </g>
  <g id="_1601427546304">
   <path class="fil0 str1" d="M14890.42 5594.67c0,161.8 -242.66,350.53 -242.66,350.53 0,0 -242.67,-188.73 -242.67,-350.53 0,-132.17 110.49,-242.66 242.67,-242.66 132.17,0 242.66,110.49 242.66,242.66z"/>
   <path class="fil0 str1" d="M14647.76 5675.57c44.67,0 80.89,-36.22 80.89,-80.9 0,-44.67 -36.22,-80.87 -80.89,-80.87 -44.68,0 -80.9,36.2 -80.9,80.87 0,44.68 36.22,80.9 80.9,80.9z"/>
  </g>
  <g id="_1566058541504">
   <path class="fil0 str1" d="M15119.4 6649.79c0,161.8 -242.66,350.53 -242.66,350.53 0,0 -242.67,-188.73 -242.67,-350.53 0,-132.17 110.49,-242.66 242.67,-242.66 132.17,0 242.66,110.49 242.66,242.66z"/>
   <path class="fil0 str1" d="M14876.74 6730.69c44.67,0 80.89,-36.22 80.89,-80.9 0,-44.67 -36.22,-80.87 -80.89,-80.87 -44.68,0 -80.9,36.2 -80.9,80.87 0,44.68 36.22,80.9 80.9,80.9z"/>
  </g>
  <g id="_1601375203936">
   <path class="fil0 str1" d="M16163.6 7167.43c0,161.8 -242.66,350.53 -242.66,350.53 0,0 -242.67,-188.73 -242.67,-350.53 0,-132.17 110.49,-242.66 242.67,-242.66 132.17,0 242.66,110.49 242.66,242.66z"/>
   <path class="fil0 str1" d="M15920.94 7248.33c44.67,0 80.89,-36.22 80.89,-80.9 0,-44.67 -36.22,-80.87 -80.89,-80.87 -44.68,0 -80.9,36.2 -80.9,80.87 0,44.68 36.22,80.9 80.9,80.9z"/>
  </g>
  <g id="_1606395059520">
   <path class="fil0 str1" d="M14844.79 8472.19c0,161.8 -242.66,350.53 -242.66,350.53 0,0 -242.67,-188.73 -242.67,-350.53 0,-132.17 110.49,-242.66 242.67,-242.66 132.17,0 242.66,110.49 242.66,242.66z"/>
   <path class="fil0 str1" d="M14602.13 8553.09c44.67,0 80.89,-36.22 80.89,-80.9 0,-44.67 -36.22,-80.87 -80.89,-80.87 -44.68,0 -80.9,36.2 -80.9,80.87 0,44.68 36.22,80.9 80.9,80.9z"/>
  </g>
  <g id="_1566063162720">
   <path class="fil0 str1" d="M15888.99 8989.83c0,161.8 -242.66,350.53 -242.66,350.53 0,0 -242.67,-188.73 -242.67,-350.53 0,-132.17 110.49,-242.66 242.67,-242.66 132.17,0 242.66,110.49 242.66,242.66z"/>
   <path class="fil0 str1" d="M15646.33 9070.73c44.67,0 80.89,-36.22 80.89,-80.9 0,-44.67 -36.22,-80.87 -80.89,-80.87 -44.68,0 -80.9,36.2 -80.9,80.87 0,44.68 36.22,80.9 80.9,80.9z"/>
  </g>
  <g id="_1602531912112">
   <path class="fil0 str1" d="M16712.07 8125.31c0,161.8 -242.66,350.53 -242.66,350.53 0,0 -242.67,-188.73 -242.67,-350.53 0,-132.17 110.49,-242.66 242.67,-242.66 132.17,0 242.66,110.49 242.66,242.66z"/>
   <path class="fil0 str1" d="M16469.41 8206.21c44.67,0 80.89,-36.22 80.89,-80.9 0,-44.67 -36.22,-80.87 -80.89,-80.87 -44.68,0 -80.9,36.2 -80.9,80.87 0,44.68 36.22,80.9 80.9,80.9z"/>
  </g>
  <g id="_1604722429344">
   <path class="fil0 str1" d="M17756.27 8642.95c0,161.8 -242.66,350.53 -242.66,350.53 0,0 -242.67,-188.73 -242.67,-350.53 0,-132.17 110.49,-242.66 242.67,-242.66 132.17,0 242.66,110.49 242.66,242.66z"/>
   <path class="fil0 str1" d="M17513.61 8723.85c44.67,0 80.89,-36.22 80.89,-80.9 0,-44.67 -36.22,-80.87 -80.89,-80.87 -44.68,0 -80.9,36.2 -80.9,80.87 0,44.68 36.22,80.9 80.9,80.9z"/>
  </g>
  <g id="_1606372085472">
   <path class="fil0 str1" d="M17585.84 5822.6c0,161.8 -242.66,350.53 -242.66,350.53 0,0 -242.67,-188.73 -242.67,-350.53 0,-132.17 110.49,-242.66 242.67,-242.66 132.17,0 242.66,110.49 242.66,242.66z"/>
   <path class="fil0 str1" d="M17343.18 5903.5c44.67,0 80.89,-36.22 80.89,-80.9 0,-44.67 -36.22,-80.87 -80.89,-80.87 -44.68,0 -80.9,36.2 -80.9,80.87 0,44.68 36.22,80.9 80.9,80.9z"/>
  </g>
  <g id="_1606329019616">
   <path class="fil0 str1" d="M18630.04 6340.24c0,161.8 -242.66,350.53 -242.66,350.53 0,0 -242.67,-188.73 -242.67,-350.53 0,-132.17 110.49,-242.66 242.67,-242.66 132.17,0 242.66,110.49 242.66,242.66z"/>
   <path class="fil0 str1" d="M18387.38 6421.14c44.67,0 80.89,-36.22 80.89,-80.9 0,-44.67 -36.22,-80.87 -80.89,-80.87 -44.68,0 -80.9,36.2 -80.9,80.87 0,44.68 36.22,80.9 80.9,80.9z"/>
  </g>
  <g id="_1606329019328">
   <path class="fil0 str1" d="M19408.24 5023.74c0,161.8 -242.66,350.53 -242.66,350.53 0,0 -242.67,-188.73 -242.67,-350.53 0,-132.17 110.49,-242.66 242.67,-242.66 132.17,0 242.66,110.49 242.66,242.66z"/>
   <path class="fil0 str1" d="M19165.58 5104.64c44.67,0 80.89,-36.22 80.89,-80.9 0,-44.67 -36.22,-80.87 -80.89,-80.87 -44.68,0 -80.9,36.2 -80.9,80.87 0,44.68 36.22,80.9 80.9,80.9z"/>
  </g>
  <g id="_1601412211680">
   <path class="fil0 str1" d="M20452.44 5541.38c0,161.8 -242.66,350.53 -242.66,350.53 0,0 -242.67,-188.73 -242.67,-350.53 0,-132.17 110.49,-242.66 242.67,-242.66 132.17,0 242.66,110.49 242.66,242.66z"/>
   <path class="fil0 str1" d="M20209.78 5622.28c44.67,0 80.89,-36.22 80.89,-80.9 0,-44.67 -36.22,-80.87 -80.89,-80.87 -44.68,0 -80.9,36.2 -80.9,80.87 0,44.68 36.22,80.9 80.9,80.9z"/>
  </g>
  <g id="_1605138505968">
   <path class="fil0 str1" d="M20325.91 4199.93c0,161.8 -242.66,350.53 -242.66,350.53 0,0 -242.67,-188.73 -242.67,-350.53 0,-132.17 110.49,-242.66 242.67,-242.66 132.17,0 242.66,110.49 242.66,242.66z"/>
   <path class="fil0 str1" d="M20083.25 4280.83c44.67,0 80.89,-36.22 80.89,-80.9 0,-44.67 -36.22,-80.87 -80.89,-80.87 -44.68,0 -80.9,36.2 -80.9,80.87 0,44.68 36.22,80.9 80.9,80.9z"/>
  </g>
  <g id="_1609725520272">
   <path class="fil0 str1" d="M21370.11 4717.57c0,161.8 -242.66,350.53 -242.66,350.53 0,0 -242.67,-188.73 -242.67,-350.53 0,-132.17 110.49,-242.66 242.67,-242.66 132.17,0 242.66,110.49 242.66,242.66z"/>
   <path class="fil0 str1" d="M21127.45 4798.47c44.67,0 80.89,-36.22 80.89,-80.9 0,-44.67 -36.22,-80.87 -80.89,-80.87 -44.68,0 -80.9,36.2 -80.9,80.87 0,44.68 36.22,80.9 80.9,80.9z"/>
  </g>
  <g id="_1604711184832">
   <path class="fil0 str1" d="M15532.75 3725.6c0,161.8 -242.66,350.53 -242.66,350.53 0,0 -242.67,-188.73 -242.67,-350.53 0,-132.17 110.49,-242.66 242.67,-242.66 132.17,0 242.66,110.49 242.66,242.66z"/>
   <path class="fil0 str1" d="M15290.09 3806.5c44.67,0 80.89,-36.22 80.89,-80.9 0,-44.67 -36.22,-80.87 -80.89,-80.87 -44.68,0 -80.9,36.2 -80.9,80.87 0,44.68 36.22,80.9 80.9,80.9z"/>
  </g>
  <g id="_1604711183008">
   <path class="fil0 str1" d="M16576.95 4243.24c0,161.8 -242.66,350.53 -242.66,350.53 0,0 -242.67,-188.73 -242.67,-350.53 0,-132.17 110.49,-242.66 242.67,-242.66 132.17,0 242.66,110.49 242.66,242.66z"/>
   <path class="fil0 str1" d="M16334.29 4324.14c44.67,0 80.89,-36.22 80.89,-80.9 0,-44.67 -36.22,-80.87 -80.89,-80.87 -44.68,0 -80.9,36.2 -80.9,80.87 0,44.68 36.22,80.9 80.9,80.9z"/>
  </g>
 </g>
</svg>
