<?xml version="1.0" encoding="UTF-8"?>
<!DOCTYPE svg PUBLIC "-//W3C//DTD SVG 1.1//EN" "http://www.w3.org/Graphics/SVG/1.1/DTD/svg11.dtd">
<!-- Creator: CorelDRAW -->
<svg xmlns="http://www.w3.org/2000/svg" xml:space="preserve" width="232.458mm" height="222.111mm" version="1.1" style="shape-rendering:geometricPrecision; text-rendering:geometricPrecision; image-rendering:optimizeQuality; fill-rule:evenodd; clip-rule:evenodd"
viewBox="0 0 23245.78 22211.08"
 xmlns:xlink="http://www.w3.org/1999/xlink"
 xmlns:xodm="http://www.corel.com/coreldraw/odm/2003">
 <defs>
  <style type="text/css">
   <![CDATA[
    .str0 {stroke:#93BAB3;stroke-width:200;stroke-miterlimit:22.9256}
    .str1 {stroke:#25695C;stroke-width:75;stroke-linecap:round;stroke-linejoin:round;stroke-miterlimit:22.9256}
    .fil0 {fill:none}
   ]]>
  </style>
 </defs>
 <g id="Слой_x0020_1">
  <metadata id="CorelCorpID_0Corel-Layer"/>
  <path class="fil0 str0" d="M523.79 6755.15l148.22 414.55c232.24,554.75 486.88,1015.72 659.54,1259.27 617.97,871.64 1311.67,-328.22 1222.59,2174.74 -17.92,504.53 147.65,506.23 401.4,713.26 30.25,836.03 -311.62,1125.39 571.66,1759.72 266.78,191.55 1247.68,854.97 1344.13,1069.9l94.78 117.67c242.67,252.16 546.8,672.34 933.81,961.42 81.25,60.7 86.3,58.52 165.8,129.42l190 205.63c193.68,54.64 738.19,412.8 843.68,575.96l850.97 458.56c16.01,17.46 111.96,140.16 130.42,163.59 178.48,26.29 349.36,160.64 569.68,298.12 372.82,232.58 1491.47,883.01 1594.94,1182.91l183.29 290.91c777.2,1164.73 552.46,865.05 1462.53,1830.93 171.96,182.52 119.38,167.35 322.25,200.67l-18.11 74.73c2625.24,1111.94 1658.03,1827.79 3643.98,1295.46l0 0c10.43,-2.79 415.48,-290.75 472.65,-206.17 144.77,-150.2 716.35,-474.97 929.81,-601.33 522.37,-309.13 753.74,-154.2 1376.59,-186.23 1085.38,-55.85 580.19,-1457.76 1137.38,-1914.9l0 -119.21 654.81 -209.24c145.01,-51.77 130.97,-25.9 170.45,-120.69l125.58 -22.65c148.3,-202.56 199.11,-208.49 348,-524.15 109.56,-190.5 161.14,-268.33 279.74,-292.88l-78.07 -449.3 -626.27 -225.37 -433.94 -272.45c251.7,-244.29 868.66,-216.13 695.69,-738.26l0 -60.89c-751.07,-486.69 -804.98,-443.21 -1667.04,-157.34 -56.85,34.51 29.32,13.76 -129.53,54.21 -10.05,2.56 -79.74,-1.28 -107.78,-3.37 -285.05,-92.88 -394.15,-471.33 -607.3,-715.04l-11.05 -118.17c-134.93,-186.04 -266.55,-532.64 -408.89,-757.11 -832.74,-1313.3 161.57,-546.72 776.24,-1252.22 177.78,-204.04 455.23,-684.51 456.67,-1007.26 3.21,-723.38 -298.32,-493.36 196.51,-1076.96 364.21,-429.56 170.64,-652.52 169.71,-1216.27 538.46,5.63 269.39,39.87 606.76,265.63 571.89,382.67 993.69,-331.13 1137.3,-403.46 382.44,-192.67 642.67,163.16 897.08,-775.93 108.21,-399.34 82.96,-206.36 420.25,-409.77 273.03,-164.64 621.38,-730.51 488.97,-1109.5 -197.36,-242.86 -264.84,-169.63 -567.5,-201.94 -507.67,-54.22 -413.43,-510.85 -1209.79,-272.68 -281.25,84.12 -271.25,153.15 -463.92,307.7 -279.58,224.32 -869.78,274.39 -1255.86,86.37 -248.21,-120.89 -567.39,-546.26 -729.62,-817.73 -464.54,-777.44 -650.81,-1387.61 -546.14,-2410.7 53.91,-527.17 -200.7,-1001.52 -748.51,-734.16 -260.54,127.17 -361.92,759.68 -547.96,995.13 -466.2,66.36 -1406.41,-211.83 -1732.5,116.81 -305.8,308.21 41.69,1144.99 -190.3,1641.48 -416.57,43.4 -708.91,-98.51 -1195.87,-45.8 -521.59,56.43 -837.51,251.89 -759.05,-415.91 153.69,-108.74 411.29,-217.02 457.55,-440.68 51.86,-250.85 -125.26,-467.92 -308.12,-573.99 -486.42,-282.18 -961.51,272.95 -1173.8,473.46 -130.66,123.41 -684.48,777.56 -754.91,1035.62 -143.61,526.16 500.38,484.35 399.39,1331.48 -2297.96,441.51 -211.68,-1536.76 -1636.36,-1870.87 -384.57,-90.21 -2099.85,-1186.64 -2468.21,-1404.48 -1095.54,-647.79 -1263.43,467.37 -1569.93,663.84 -684.51,-796.48 23.89,-1437.87 -447.97,-1917.42 -202.45,-205.7 -484.67,-308.4 -684.98,-564.87 -1109.85,-1421.19 878.7,-2967.45 -2419.04,-1741.49 -318.02,118.21 -649.49,299.28 -955.64,369.17l-357.39 157.03c28.28,52.36 56.71,106.19 85.37,161.68 1021.11,1976.1 841.74,1310.63 1422.47,2048.43 -230.8,342.41 -696.93,446.54 -1130.6,613.85 -294.32,113.56 -668.11,231.5 -956.92,328.57 -424.21,142.57 -510.85,501.38 -570.3,713.33 2.21,77.37 5.08,160.64 9.23,250.81 17.37,378.4 195.66,976.86 421.3,1566.82z"/>
  <g id="_1606348390080">
   <path class="fil0 str1" d="M14742.89 20891.81c0,161.8 -242.66,350.53 -242.66,350.53 0,0 -242.67,-188.73 -242.67,-350.53 0,-132.17 110.49,-242.66 242.67,-242.66 132.17,0 242.66,110.49 242.66,242.66z"/>
   <path class="fil0 str1" d="M14500.23 20972.71c44.67,0 80.89,-36.22 80.89,-80.9 0,-44.67 -36.22,-80.87 -80.89,-80.87 -44.68,0 -80.9,36.2 -80.9,80.87 0,44.68 36.22,80.9 80.9,80.9z"/>
  </g>
  <g id="_1606348388640">
   <path class="fil0 str1" d="M15469.62 19722.35c0,161.8 -242.66,350.53 -242.66,350.53 0,0 -242.67,-188.73 -242.67,-350.53 0,-132.17 110.49,-242.66 242.67,-242.66 132.17,0 242.66,110.49 242.66,242.66z"/>
   <path class="fil0 str1" d="M15226.96 19803.25c44.67,0 80.89,-36.22 80.89,-80.9 0,-44.67 -36.22,-80.87 -80.89,-80.87 -44.68,0 -80.9,36.2 -80.9,80.87 0,44.68 36.22,80.9 80.9,80.9z"/>
  </g>
  <g id="_1606348388592">
   <path class="fil0 str1" d="M14268.67 19793.56c0,161.8 -242.66,350.53 -242.66,350.53 0,0 -242.67,-188.73 -242.67,-350.53 0,-132.17 110.49,-242.66 242.67,-242.66 132.17,0 242.66,110.49 242.66,242.66z"/>
   <path class="fil0 str1" d="M14026.01 19874.46c44.67,0 80.89,-36.22 80.89,-80.9 0,-44.67 -36.22,-80.87 -80.89,-80.87 -44.68,0 -80.9,36.2 -80.9,80.87 0,44.68 36.22,80.9 80.9,80.9z"/>
  </g>
  <g id="_1606348383792">
   <path class="fil0 str1" d="M17336.99 19104.54c0,161.8 -242.66,350.53 -242.66,350.53 0,0 -242.67,-188.73 -242.67,-350.53 0,-132.17 110.49,-242.66 242.67,-242.66 132.17,0 242.66,110.49 242.66,242.66z"/>
   <path class="fil0 str1" d="M17094.33 19185.44c44.67,0 80.89,-36.22 80.89,-80.9 0,-44.67 -36.22,-80.87 -80.89,-80.87 -44.68,0 -80.9,36.2 -80.9,80.87 0,44.68 36.22,80.9 80.9,80.9z"/>
  </g>
  <g id="_1606348383456">
   <path class="fil0 str1" d="M18219.57 18141.38c0,161.8 -242.66,350.53 -242.66,350.53 0,0 -242.67,-188.73 -242.67,-350.53 0,-132.17 110.49,-242.66 242.67,-242.66 132.17,0 242.66,110.49 242.66,242.66z"/>
   <path class="fil0 str1" d="M17976.91 18222.28c44.67,0 80.89,-36.22 80.89,-80.9 0,-44.67 -36.22,-80.87 -80.89,-80.87 -44.68,0 -80.9,36.2 -80.9,80.87 0,44.68 36.22,80.9 80.9,80.9z"/>
  </g>
  <g id="_1606348378080">
   <path class="fil0 str1" d="M16919.97 17906.92c0,161.8 -242.66,350.53 -242.66,350.53 0,0 -242.67,-188.73 -242.67,-350.53 0,-132.17 110.49,-242.66 242.67,-242.66 132.17,0 242.66,110.49 242.66,242.66z"/>
   <path class="fil0 str1" d="M16677.31 17987.82c44.67,0 80.89,-36.22 80.89,-80.9 0,-44.67 -36.22,-80.87 -80.89,-80.87 -44.68,0 -80.9,36.2 -80.9,80.87 0,44.68 36.22,80.9 80.9,80.9z"/>
  </g>
  <g id="_1606348375632">
   <path class="fil0 str1" d="M14866.86 17874.3c0,161.8 -242.66,350.53 -242.66,350.53 0,0 -242.67,-188.73 -242.67,-350.53 0,-132.17 110.49,-242.66 242.67,-242.66 132.17,0 242.66,110.49 242.66,242.66z"/>
   <path class="fil0 str1" d="M14624.2 17955.2c44.67,0 80.89,-36.22 80.89,-80.9 0,-44.67 -36.22,-80.87 -80.89,-80.87 -44.68,0 -80.9,36.2 -80.9,80.87 0,44.68 36.22,80.9 80.9,80.9z"/>
  </g>
  <g id="_1606348374672">
   <path class="fil0 str1" d="M15692.24 17318.86c0,161.8 -242.66,350.53 -242.66,350.53 0,0 -242.67,-188.73 -242.67,-350.53 0,-132.17 110.49,-242.66 242.67,-242.66 132.17,0 242.66,110.49 242.66,242.66z"/>
   <path class="fil0 str1" d="M15449.58 17399.76c44.67,0 80.89,-36.22 80.89,-80.9 0,-44.67 -36.22,-80.87 -80.89,-80.87 -44.68,0 -80.9,36.2 -80.9,80.87 0,44.68 36.22,80.9 80.9,80.9z"/>
  </g>
  <g id="_1606348406544">
   <path class="fil0 str1" d="M14547.47 16930.22c0,161.8 -242.66,350.53 -242.66,350.53 0,0 -242.67,-188.73 -242.67,-350.53 0,-132.17 110.49,-242.66 242.67,-242.66 132.17,0 242.66,110.49 242.66,242.66z"/>
   <path class="fil0 str1" d="M14304.81 17011.12c44.67,0 80.89,-36.22 80.89,-80.9 0,-44.67 -36.22,-80.87 -80.89,-80.87 -44.68,0 -80.9,36.2 -80.9,80.87 0,44.68 36.22,80.9 80.9,80.9z"/>
  </g>
  <g id="_1606348403568">
   <path class="fil0 str1" d="M17010.38 15360.43c0,161.8 -242.66,350.53 -242.66,350.53 0,0 -242.67,-188.73 -242.67,-350.53 0,-132.17 110.49,-242.66 242.67,-242.66 132.17,0 242.66,110.49 242.66,242.66z"/>
   <path class="fil0 str1" d="M16767.72 15441.33c44.67,0 80.89,-36.22 80.89,-80.9 0,-44.67 -36.22,-80.87 -80.89,-80.87 -44.68,0 -80.9,36.2 -80.9,80.87 0,44.68 36.22,80.9 80.9,80.9z"/>
  </g>
  <g id="_1606348402368">
   <path class="fil0 str1" d="M17680.93 14650.82c0,161.8 -242.66,350.53 -242.66,350.53 0,0 -242.67,-188.73 -242.67,-350.53 0,-132.17 110.49,-242.66 242.67,-242.66 132.17,0 242.66,110.49 242.66,242.66z"/>
   <path class="fil0 str1" d="M17438.27 14731.72c44.67,0 80.89,-36.22 80.89,-80.9 0,-44.67 -36.22,-80.87 -80.89,-80.87 -44.68,0 -80.9,36.2 -80.9,80.87 0,44.68 36.22,80.9 80.9,80.9z"/>
  </g>
  <g id="_1605141964656">
   <path class="fil0 str1" d="M16536.16 14262.18c0,161.8 -242.66,350.53 -242.66,350.53 0,0 -242.67,-188.73 -242.67,-350.53 0,-132.17 110.49,-242.66 242.67,-242.66 132.17,0 242.66,110.49 242.66,242.66z"/>
   <path class="fil0 str1" d="M16293.5 14343.08c44.67,0 80.89,-36.22 80.89,-80.9 0,-44.67 -36.22,-80.87 -80.89,-80.87 -44.68,0 -80.9,36.2 -80.9,80.87 0,44.68 36.22,80.9 80.9,80.9z"/>
  </g>
  <g id="_1605141960336">
   <path class="fil0 str1" d="M15880.64 13902.7c0,161.8 -242.66,350.53 -242.66,350.53 0,0 -242.67,-188.73 -242.67,-350.53 0,-132.17 110.49,-242.66 242.67,-242.66 132.17,0 242.66,110.49 242.66,242.66z"/>
   <path class="fil0 str1" d="M15637.98 13983.6c44.67,0 80.89,-36.22 80.89,-80.9 0,-44.67 -36.22,-80.87 -80.89,-80.87 -44.68,0 -80.9,36.2 -80.9,80.87 0,44.68 36.22,80.9 80.9,80.9z"/>
  </g>
  <g id="_1605141950016">
   <path class="fil0 str1" d="M16551.19 13193.09c0,161.8 -242.66,350.53 -242.66,350.53 0,0 -242.67,-188.73 -242.67,-350.53 0,-132.17 110.49,-242.66 242.67,-242.66 132.17,0 242.66,110.49 242.66,242.66z"/>
   <path class="fil0 str1" d="M16308.53 13273.99c44.67,0 80.89,-36.22 80.89,-80.9 0,-44.67 -36.22,-80.87 -80.89,-80.87 -44.68,0 -80.9,36.2 -80.9,80.87 0,44.68 36.22,80.9 80.9,80.9z"/>
  </g>
  <g id="_1605141946128">
   <path class="fil0 str1" d="M15406.42 12804.45c0,161.8 -242.66,350.53 -242.66,350.53 0,0 -242.67,-188.73 -242.67,-350.53 0,-132.17 110.49,-242.66 242.67,-242.66 132.17,0 242.66,110.49 242.66,242.66z"/>
   <path class="fil0 str1" d="M15163.76 12885.35c44.67,0 80.89,-36.22 80.89,-80.9 0,-44.67 -36.22,-80.87 -80.89,-80.87 -44.68,0 -80.9,36.2 -80.9,80.87 0,44.68 36.22,80.9 80.9,80.9z"/>
  </g>
  <g id="_1605141947712">
   <path class="fil0 str1" d="M14459.35 14449.35c0,161.8 -242.66,350.53 -242.66,350.53 0,0 -242.67,-188.73 -242.67,-350.53 0,-132.17 110.49,-242.66 242.67,-242.66 132.17,0 242.66,110.49 242.66,242.66z"/>
   <path class="fil0 str1" d="M14216.69 14530.25c44.67,0 80.89,-36.22 80.89,-80.9 0,-44.67 -36.22,-80.87 -80.89,-80.87 -44.68,0 -80.9,36.2 -80.9,80.87 0,44.68 36.22,80.9 80.9,80.9z"/>
  </g>
  <g id="_1605141943440">
   <path class="fil0 str1" d="M15129.9 13739.74c0,161.8 -242.66,350.53 -242.66,350.53 0,0 -242.67,-188.73 -242.67,-350.53 0,-132.17 110.49,-242.66 242.67,-242.66 132.17,0 242.66,110.49 242.66,242.66z"/>
   <path class="fil0 str1" d="M14887.24 13820.64c44.67,0 80.89,-36.22 80.89,-80.9 0,-44.67 -36.22,-80.87 -80.89,-80.87 -44.68,0 -80.9,36.2 -80.9,80.87 0,44.68 36.22,80.9 80.9,80.9z"/>
  </g>
  <g id="_1605141941088">
   <path class="fil0 str1" d="M13985.13 13351.1c0,161.8 -242.66,350.53 -242.66,350.53 0,0 -242.67,-188.73 -242.67,-350.53 0,-132.17 110.49,-242.66 242.67,-242.66 132.17,0 242.66,110.49 242.66,242.66z"/>
   <path class="fil0 str1" d="M13742.47 13432c44.67,0 80.89,-36.22 80.89,-80.9 0,-44.67 -36.22,-80.87 -80.89,-80.87 -44.68,0 -80.9,36.2 -80.9,80.87 0,44.68 36.22,80.9 80.9,80.9z"/>
  </g>
  <g id="_1605141941040">
   <path class="fil0 str1" d="M14568.68 12444.97c0,161.8 -242.66,350.53 -242.66,350.53 0,0 -242.67,-188.73 -242.67,-350.53 0,-132.17 110.49,-242.66 242.67,-242.66 132.17,0 242.66,110.49 242.66,242.66z"/>
   <path class="fil0 str1" d="M14326.02 12525.87c44.67,0 80.89,-36.22 80.89,-80.9 0,-44.67 -36.22,-80.87 -80.89,-80.87 -44.68,0 -80.9,36.2 -80.9,80.87 0,44.68 36.22,80.9 80.9,80.9z"/>
  </g>
  <g id="_1605141940608">
   <path class="fil0 str1" d="M15239.23 11735.36c0,161.8 -242.66,350.53 -242.66,350.53 0,0 -242.67,-188.73 -242.67,-350.53 0,-132.17 110.49,-242.66 242.67,-242.66 132.17,0 242.66,110.49 242.66,242.66z"/>
   <path class="fil0 str1" d="M14996.57 11816.26c44.67,0 80.89,-36.22 80.89,-80.9 0,-44.67 -36.22,-80.87 -80.89,-80.87 -44.68,0 -80.9,36.2 -80.9,80.87 0,44.68 36.22,80.9 80.9,80.9z"/>
  </g>
  <g id="_1605141939840">
   <path class="fil0 str1" d="M14094.46 11346.72c0,161.8 -242.66,350.53 -242.66,350.53 0,0 -242.67,-188.73 -242.67,-350.53 0,-132.17 110.49,-242.66 242.67,-242.66 132.17,0 242.66,110.49 242.66,242.66z"/>
   <path class="fil0 str1" d="M13851.8 11427.62c44.67,0 80.89,-36.22 80.89,-80.9 0,-44.67 -36.22,-80.87 -80.89,-80.87 -44.68,0 -80.9,36.2 -80.9,80.87 0,44.68 36.22,80.9 80.9,80.9z"/>
  </g>
  <g id="_1605141936672">
   <path class="fil0 str1" d="M16208.62 12189.87c0,161.8 -242.66,350.53 -242.66,350.53 0,0 -242.67,-188.73 -242.67,-350.53 0,-132.17 110.49,-242.66 242.67,-242.66 132.17,0 242.66,110.49 242.66,242.66z"/>
   <path class="fil0 str1" d="M15965.96 12270.77c44.67,0 80.89,-36.22 80.89,-80.9 0,-44.67 -36.22,-80.87 -80.89,-80.87 -44.68,0 -80.9,36.2 -80.9,80.87 0,44.68 36.22,80.9 80.9,80.9z"/>
  </g>
  <g id="_1605141936384">
   <path class="fil0 str1" d="M16879.17 11480.26c0,161.8 -242.66,350.53 -242.66,350.53 0,0 -242.67,-188.73 -242.67,-350.53 0,-132.17 110.49,-242.66 242.67,-242.66 132.17,0 242.66,110.49 242.66,242.66z"/>
   <path class="fil0 str1" d="M16636.51 11561.16c44.67,0 80.89,-36.22 80.89,-80.9 0,-44.67 -36.22,-80.87 -80.89,-80.87 -44.68,0 -80.9,36.2 -80.9,80.87 0,44.68 36.22,80.9 80.9,80.9z"/>
  </g>
  <g id="_1605141935904">
   <path class="fil0 str1" d="M15734.4 11091.62c0,161.8 -242.66,350.53 -242.66,350.53 0,0 -242.67,-188.73 -242.67,-350.53 0,-132.17 110.49,-242.66 242.67,-242.66 132.17,0 242.66,110.49 242.66,242.66z"/>
   <path class="fil0 str1" d="M15491.74 11172.52c44.67,0 80.89,-36.22 80.89,-80.9 0,-44.67 -36.22,-80.87 -80.89,-80.87 -44.68,0 -80.9,36.2 -80.9,80.87 0,44.68 36.22,80.9 80.9,80.9z"/>
  </g>
  <g id="_1605141934368">
   <path class="fil0 str1" d="M18030.78 11898.33c0,161.8 -242.66,350.53 -242.66,350.53 0,0 -242.67,-188.73 -242.67,-350.53 0,-132.17 110.49,-242.66 242.67,-242.66 132.17,0 242.66,110.49 242.66,242.66z"/>
   <path class="fil0 str1" d="M17788.12 11979.23c44.67,0 80.89,-36.22 80.89,-80.9 0,-44.67 -36.22,-80.87 -80.89,-80.87 -44.68,0 -80.9,36.2 -80.9,80.87 0,44.68 36.22,80.9 80.9,80.9z"/>
  </g>
  <g id="_1605141932976">
   <path class="fil0 str1" d="M18701.33 11188.72c0,161.8 -242.66,350.53 -242.66,350.53 0,0 -242.67,-188.73 -242.67,-350.53 0,-132.17 110.49,-242.66 242.67,-242.66 132.17,0 242.66,110.49 242.66,242.66z"/>
   <path class="fil0 str1" d="M18458.67 11269.62c44.67,0 80.89,-36.22 80.89,-80.9 0,-44.67 -36.22,-80.87 -80.89,-80.87 -44.68,0 -80.9,36.2 -80.9,80.87 0,44.68 36.22,80.9 80.9,80.9z"/>
  </g>
  <g id="_1605141931536">
   <path class="fil0 str1" d="M17556.56 10800.08c0,161.8 -242.66,350.53 -242.66,350.53 0,0 -242.67,-188.73 -242.67,-350.53 0,-132.17 110.49,-242.66 242.67,-242.66 132.17,0 242.66,110.49 242.66,242.66z"/>
   <path class="fil0 str1" d="M17313.9 10880.98c44.67,0 80.89,-36.22 80.89,-80.9 0,-44.67 -36.22,-80.87 -80.89,-80.87 -44.68,0 -80.9,36.2 -80.9,80.87 0,44.68 36.22,80.9 80.9,80.9z"/>
  </g>
  <g id="_1605141915744">
   <path class="fil0 str1" d="M19151.47 8954.83c0,161.8 -242.66,350.53 -242.66,350.53 0,0 -242.67,-188.73 -242.67,-350.53 0,-132.17 110.49,-242.66 242.67,-242.66 132.17,0 242.66,110.49 242.66,242.66z"/>
   <path class="fil0 str1" d="M18908.81 9035.73c44.67,0 80.89,-36.22 80.89,-80.9 0,-44.67 -36.22,-80.87 -80.89,-80.87 -44.68,0 -80.9,36.2 -80.9,80.87 0,44.68 36.22,80.9 80.9,80.9z"/>
  </g>
  <g id="_1605141916992">
   <path class="fil0 str1" d="M19976.85 8091.04c0,161.8 -242.66,350.53 -242.66,350.53 0,0 -242.67,-188.73 -242.67,-350.53 0,-132.17 110.49,-242.66 242.67,-242.66 132.17,0 242.66,110.49 242.66,242.66z"/>
   <path class="fil0 str1" d="M19734.19 8171.94c44.67,0 80.89,-36.22 80.89,-80.9 0,-44.67 -36.22,-80.87 -80.89,-80.87 -44.68,0 -80.9,36.2 -80.9,80.87 0,44.68 36.22,80.9 80.9,80.9z"/>
  </g>
  <g id="_1606317356432">
   <path class="fil0 str1" d="M18832.08 7702.4c0,161.8 -242.66,350.53 -242.66,350.53 0,0 -242.67,-188.73 -242.67,-350.53 0,-132.17 110.49,-242.66 242.67,-242.66 132.17,0 242.66,110.49 242.66,242.66z"/>
   <path class="fil0 str1" d="M18589.42 7783.3c44.67,0 80.89,-36.22 80.89,-80.9 0,-44.67 -36.22,-80.87 -80.89,-80.87 -44.68,0 -80.9,36.2 -80.9,80.87 0,44.68 36.22,80.9 80.9,80.9z"/>
  </g>
  <g id="_1606317353792">
   <path class="fil0 str1" d="M21108.3 8844.31c0,161.8 -242.66,350.53 -242.66,350.53 0,0 -242.67,-188.73 -242.67,-350.53 0,-132.17 110.49,-242.66 242.67,-242.66 132.17,0 242.66,110.49 242.66,242.66z"/>
   <path class="fil0 str1" d="M20865.64 8925.21c44.67,0 80.89,-36.22 80.89,-80.9 0,-44.67 -36.22,-80.87 -80.89,-80.87 -44.68,0 -80.9,36.2 -80.9,80.87 0,44.68 36.22,80.9 80.9,80.9z"/>
  </g>
  <g id="_1606317382880">
   <path class="fil0 str1" d="M22396.75 8054.9c0,161.8 -242.66,350.53 -242.66,350.53 0,0 -242.67,-188.73 -242.67,-350.53 0,-132.17 110.49,-242.66 242.67,-242.66 132.17,0 242.66,110.49 242.66,242.66z"/>
   <path class="fil0 str1" d="M22154.09 8135.8c44.67,0 80.89,-36.22 80.89,-80.9 0,-44.67 -36.22,-80.87 -80.89,-80.87 -44.68,0 -80.9,36.2 -80.9,80.87 0,44.68 36.22,80.9 80.9,80.9z"/>
  </g>
  <g id="_1606317381248">
   <path class="fil0 str1" d="M21251.98 7666.26c0,161.8 -242.66,350.53 -242.66,350.53 0,0 -242.67,-188.73 -242.67,-350.53 0,-132.17 110.49,-242.66 242.67,-242.66 132.17,0 242.66,110.49 242.66,242.66z"/>
   <path class="fil0 str1" d="M21009.32 7747.16c44.67,0 80.89,-36.22 80.89,-80.9 0,-44.67 -36.22,-80.87 -80.89,-80.87 -44.68,0 -80.9,36.2 -80.9,80.87 0,44.68 36.22,80.9 80.9,80.9z"/>
  </g>
  <g id="_1606317378224">
   <path class="fil0 str1" d="M16814.44 7242.54c0,161.8 -242.66,350.53 -242.66,350.53 0,0 -242.67,-188.73 -242.67,-350.53 0,-132.17 110.49,-242.66 242.67,-242.66 132.17,0 242.66,110.49 242.66,242.66z"/>
   <path class="fil0 str1" d="M16571.78 7323.44c44.67,0 80.89,-36.22 80.89,-80.9 0,-44.67 -36.22,-80.87 -80.89,-80.87 -44.68,0 -80.9,36.2 -80.9,80.87 0,44.68 36.22,80.9 80.9,80.9z"/>
  </g>
  <g id="_1606317377888">
   <path class="fil0 str1" d="M17448.09 5866.31c0,161.8 -242.66,350.53 -242.66,350.53 0,0 -242.67,-188.73 -242.67,-350.53 0,-132.17 110.49,-242.66 242.67,-242.66 132.17,0 242.66,110.49 242.66,242.66z"/>
   <path class="fil0 str1" d="M17205.43 5947.21c44.67,0 80.89,-36.22 80.89,-80.9 0,-44.67 -36.22,-80.87 -80.89,-80.87 -44.68,0 -80.9,36.2 -80.9,80.87 0,44.68 36.22,80.9 80.9,80.9z"/>
  </g>
  <g id="_1606317373232">
   <path class="fil0 str1" d="M16303.32 5477.67c0,161.8 -242.66,350.53 -242.66,350.53 0,0 -242.67,-188.73 -242.67,-350.53 0,-132.17 110.49,-242.66 242.67,-242.66 132.17,0 242.66,110.49 242.66,242.66z"/>
   <path class="fil0 str1" d="M16060.66 5558.57c44.67,0 80.89,-36.22 80.89,-80.9 0,-44.67 -36.22,-80.87 -80.89,-80.87 -44.68,0 -80.9,36.2 -80.9,80.87 0,44.68 36.22,80.9 80.9,80.9z"/>
  </g>
  <g id="_1606317372992">
   <path class="fil0 str1" d="M13949.89 8622.86c0,161.8 -242.66,350.53 -242.66,350.53 0,0 -242.67,-188.73 -242.67,-350.53 0,-132.17 110.49,-242.66 242.67,-242.66 132.17,0 242.66,110.49 242.66,242.66z"/>
   <path class="fil0 str1" d="M13707.23 8703.76c44.67,0 80.89,-36.22 80.89,-80.9 0,-44.67 -36.22,-80.87 -80.89,-80.87 -44.68,0 -80.9,36.2 -80.9,80.87 0,44.68 36.22,80.9 80.9,80.9z"/>
  </g>
  <g id="_1606317372464">
   <path class="fil0 str1" d="M14946.44 7273.2c0,161.8 -242.66,350.53 -242.66,350.53 0,0 -242.67,-188.73 -242.67,-350.53 0,-132.17 110.49,-242.66 242.67,-242.66 132.17,0 242.66,110.49 242.66,242.66z"/>
   <path class="fil0 str1" d="M14703.78 7354.1c44.67,0 80.89,-36.22 80.89,-80.9 0,-44.67 -36.22,-80.87 -80.89,-80.87 -44.68,0 -80.9,36.2 -80.9,80.87 0,44.68 36.22,80.9 80.9,80.9z"/>
  </g>
  <g id="_1606317371648">
   <path class="fil0 str1" d="M13475.67 7524.61c0,161.8 -242.66,350.53 -242.66,350.53 0,0 -242.67,-188.73 -242.67,-350.53 0,-132.17 110.49,-242.66 242.67,-242.66 132.17,0 242.66,110.49 242.66,242.66z"/>
   <path class="fil0 str1" d="M13233.01 7605.51c44.67,0 80.89,-36.22 80.89,-80.9 0,-44.67 -36.22,-80.87 -80.89,-80.87 -44.68,0 -80.9,36.2 -80.9,80.87 0,44.68 36.22,80.9 80.9,80.9z"/>
  </g>
  <g id="_1606317371744">
   <path class="fil0 str1" d="M8357.52 10365.29c0,161.8 -242.67,350.53 -242.67,350.53 0,0 -242.66,-188.73 -242.66,-350.53 0,-132.17 110.49,-242.66 242.66,-242.66 132.18,0 242.67,110.49 242.67,242.66z"/>
   <path class="fil0 str1" d="M8114.85 10446.19c44.68,0 80.9,-36.22 80.9,-80.9 0,-44.67 -36.22,-80.87 -80.9,-80.87 -44.67,0 -80.89,36.2 -80.89,80.87 0,44.68 36.22,80.9 80.89,80.9z"/>
  </g>
  <g id="_1606317366896">
   <path class="fil0 str1" d="M10778.51 9641.41c0,161.8 -242.67,350.53 -242.67,350.53 0,0 -242.66,-188.73 -242.66,-350.53 0,-132.17 110.49,-242.66 242.66,-242.66 132.18,0 242.67,110.49 242.67,242.66z"/>
   <path class="fil0 str1" d="M10535.84 9722.31c44.68,0 80.9,-36.22 80.9,-80.9 0,-44.67 -36.22,-80.87 -80.9,-80.87 -44.67,0 -80.89,36.2 -80.89,80.87 0,44.68 36.22,80.9 80.89,80.9z"/>
  </g>
  <g id="_1606317363872">
   <path class="fil0 str1" d="M8933.46 9022.75c0,161.8 -242.67,350.53 -242.67,350.53 0,0 -242.66,-188.73 -242.66,-350.53 0,-132.17 110.49,-242.66 242.66,-242.66 132.18,0 242.67,110.49 242.67,242.66z"/>
   <path class="fil0 str1" d="M8690.79 9103.65c44.68,0 80.9,-36.22 80.9,-80.9 0,-44.67 -36.22,-80.87 -80.9,-80.87 -44.67,0 -80.89,36.2 -80.89,80.87 0,44.68 36.22,80.9 80.89,80.9z"/>
  </g>
  <g id="_1606317364688">
   <path class="fil0 str1" d="M3244.68 6638.73c0,161.8 -242.67,350.53 -242.67,350.53 0,0 -242.66,-188.73 -242.66,-350.53 0,-132.17 110.49,-242.66 242.66,-242.66 132.18,0 242.67,110.49 242.67,242.66z"/>
   <path class="fil0 str1" d="M3002.01 6719.63c44.68,0 80.9,-36.22 80.9,-80.9 0,-44.67 -36.22,-80.87 -80.9,-80.87 -44.67,0 -80.89,36.2 -80.89,80.87 0,44.68 36.22,80.9 80.89,80.9z"/>
  </g>
  <g id="_1606317365984">
   <path class="fil0 str1" d="M5473.5 5744.67c0,161.8 -242.67,350.53 -242.67,350.53 0,0 -242.66,-188.73 -242.66,-350.53 0,-132.17 110.49,-242.66 242.66,-242.66 132.18,0 242.67,110.49 242.67,242.66z"/>
   <path class="fil0 str1" d="M5230.83 5825.57c44.68,0 80.9,-36.22 80.9,-80.9 0,-44.67 -36.22,-80.87 -80.9,-80.87 -44.67,0 -80.89,36.2 -80.89,80.87 0,44.68 36.22,80.9 80.89,80.9z"/>
  </g>
  <g id="_1606317360416">
   <path class="fil0 str1" d="M4328.73 5356.03c0,161.8 -242.67,350.53 -242.67,350.53 0,0 -242.66,-188.73 -242.66,-350.53 0,-132.17 110.49,-242.66 242.66,-242.66 132.18,0 242.67,110.49 242.67,242.66z"/>
   <path class="fil0 str1" d="M4086.06 5436.93c44.68,0 80.9,-36.22 80.9,-80.9 0,-44.67 -36.22,-80.87 -80.9,-80.87 -44.67,0 -80.89,36.2 -80.89,80.87 0,44.68 36.22,80.9 80.89,80.9z"/>
  </g>
  <g id="_1606317361904">
   <path class="fil0 str1" d="M4345.2 10938.13c0,161.8 -242.67,350.53 -242.67,350.53 0,0 -242.66,-188.73 -242.66,-350.53 0,-132.17 110.49,-242.66 242.66,-242.66 132.18,0 242.67,110.49 242.67,242.66z"/>
   <path class="fil0 str1" d="M4102.53 11019.03c44.68,0 80.9,-36.22 80.9,-80.9 0,-44.67 -36.22,-80.87 -80.9,-80.87 -44.67,0 -80.89,36.2 -80.89,80.87 0,44.68 36.22,80.9 80.89,80.9z"/>
  </g>
  <g id="_1606317358736">
   <path class="fil0 str1" d="M4629.06 8575.33c0,161.8 -242.67,350.53 -242.67,350.53 0,0 -242.66,-188.73 -242.66,-350.53 0,-132.17 110.49,-242.66 242.66,-242.66 132.18,0 242.67,110.49 242.67,242.66z"/>
   <path class="fil0 str1" d="M4386.39 8656.23c44.68,0 80.9,-36.22 80.9,-80.9 0,-44.67 -36.22,-80.87 -80.9,-80.87 -44.67,0 -80.89,36.2 -80.89,80.87 0,44.68 36.22,80.9 80.89,80.9z"/>
  </g>
  <g id="_1606317358688">
   <path class="fil0 str1" d="M3603.92 9193.3c0,161.8 -242.67,350.53 -242.67,350.53 0,0 -242.66,-188.73 -242.66,-350.53 0,-132.17 110.49,-242.66 242.66,-242.66 132.18,0 242.67,110.49 242.67,242.66z"/>
   <path class="fil0 str1" d="M3361.25 9274.2c44.68,0 80.9,-36.22 80.9,-80.9 0,-44.67 -36.22,-80.87 -80.9,-80.87 -44.67,0 -80.89,36.2 -80.89,80.87 0,44.68 36.22,80.9 80.89,80.9z"/>
  </g>
  <g id="_1604712122368">
   <path class="fil0 str1" d="M6551.04 13489.27c0,161.8 -242.67,350.53 -242.67,350.53 0,0 -242.66,-188.73 -242.66,-350.53 0,-132.17 110.49,-242.66 242.66,-242.66 132.18,0 242.67,110.49 242.67,242.66z"/>
   <path class="fil0 str1" d="M6308.37 13570.17c44.68,0 80.9,-36.22 80.9,-80.9 0,-44.67 -36.22,-80.87 -80.9,-80.87 -44.67,0 -80.89,36.2 -80.89,80.87 0,44.68 36.22,80.9 80.89,80.9z"/>
  </g>
  <g id="_1604712120208">
   <path class="fil0 str1" d="M7781.1 13357.7c0,161.8 -242.67,350.53 -242.67,350.53 0,0 -242.66,-188.73 -242.66,-350.53 0,-132.17 110.49,-242.66 242.66,-242.66 132.18,0 242.67,110.49 242.67,242.66z"/>
   <path class="fil0 str1" d="M7538.43 13438.6c44.68,0 80.9,-36.22 80.9,-80.9 0,-44.67 -36.22,-80.87 -80.9,-80.87 -44.67,0 -80.89,36.2 -80.89,80.87 0,44.68 36.22,80.9 80.89,80.9z"/>
  </g>
  <g id="_1604712120496">
   <path class="fil0 str1" d="M6195.86 11676.17c0,161.8 -242.67,350.53 -242.67,350.53 0,0 -242.66,-188.73 -242.66,-350.53 0,-132.17 110.49,-242.66 242.66,-242.66 132.18,0 242.67,110.49 242.67,242.66z"/>
   <path class="fil0 str1" d="M5953.19 11757.07c44.68,0 80.9,-36.22 80.9,-80.9 0,-44.67 -36.22,-80.87 -80.9,-80.87 -44.67,0 -80.89,36.2 -80.89,80.87 0,44.68 36.22,80.9 80.89,80.9z"/>
  </g>
  <g id="_1604712119296">
   <path class="fil0 str1" d="M9293.27 15620.75c0,161.8 -242.67,350.53 -242.67,350.53 0,0 -242.66,-188.73 -242.66,-350.53 0,-132.17 110.49,-242.66 242.66,-242.66 132.18,0 242.67,110.49 242.67,242.66z"/>
   <path class="fil0 str1" d="M9050.6 15701.65c44.68,0 80.9,-36.22 80.9,-80.9 0,-44.67 -36.22,-80.87 -80.9,-80.87 -44.67,0 -80.89,36.2 -80.89,80.87 0,44.68 36.22,80.9 80.89,80.9z"/>
  </g>
  <g id="_1604712115600">
   <path class="fil0 str1" d="M11115.57 15464.32c0,161.8 -242.67,350.53 -242.67,350.53 0,0 -242.66,-188.73 -242.66,-350.53 0,-132.17 110.49,-242.66 242.66,-242.66 132.18,0 242.67,110.49 242.67,242.66z"/>
   <path class="fil0 str1" d="M10872.9 15545.22c44.68,0 80.9,-36.22 80.9,-80.9 0,-44.67 -36.22,-80.87 -80.9,-80.87 -44.67,0 -80.89,36.2 -80.89,80.87 0,44.68 36.22,80.9 80.89,80.9z"/>
  </g>
  <g id="_1604712110512">
   <path class="fil0 str1" d="M8819.05 14522.5c0,161.8 -242.67,350.53 -242.67,350.53 0,0 -242.66,-188.73 -242.66,-350.53 0,-132.17 110.49,-242.66 242.66,-242.66 132.18,0 242.67,110.49 242.67,242.66z"/>
   <path class="fil0 str1" d="M8576.38 14603.4c44.68,0 80.9,-36.22 80.9,-80.9 0,-44.67 -36.22,-80.87 -80.9,-80.87 -44.67,0 -80.89,36.2 -80.89,80.87 0,44.68 36.22,80.9 80.89,80.9z"/>
  </g>
  <g id="_1604712112960">
   <path class="fil0 str1" d="M10865.6 12944.95c0,161.8 -242.67,350.53 -242.67,350.53 0,0 -242.66,-188.73 -242.66,-350.53 0,-132.17 110.49,-242.66 242.66,-242.66 132.18,0 242.67,110.49 242.67,242.66z"/>
   <path class="fil0 str1" d="M10622.93 13025.85c44.68,0 80.9,-36.22 80.9,-80.9 0,-44.67 -36.22,-80.87 -80.9,-80.87 -44.67,0 -80.89,36.2 -80.89,80.87 0,44.68 36.22,80.9 80.89,80.9z"/>
  </g>
  <g id="_1604712111904">
   <path class="fil0 str1" d="M12015.69 11379.1c0,161.8 -242.66,350.53 -242.66,350.53 0,0 -242.67,-188.73 -242.67,-350.53 0,-132.17 110.49,-242.66 242.67,-242.66 132.17,0 242.66,110.49 242.66,242.66z"/>
   <path class="fil0 str1" d="M11773.03 11460c44.67,0 80.89,-36.22 80.89,-80.9 0,-44.67 -36.22,-80.87 -80.89,-80.87 -44.68,0 -80.9,36.2 -80.9,80.87 0,44.68 36.22,80.9 80.9,80.9z"/>
  </g>
  <g id="_1604712112096">
   <path class="fil0 str1" d="M10391.38 11846.7c0,161.8 -242.67,350.53 -242.67,350.53 0,0 -242.66,-188.73 -242.66,-350.53 0,-132.17 110.49,-242.66 242.66,-242.66 132.18,0 242.67,110.49 242.67,242.66z"/>
   <path class="fil0 str1" d="M10148.71 11927.6c44.68,0 80.9,-36.22 80.9,-80.9 0,-44.67 -36.22,-80.87 -80.9,-80.87 -44.67,0 -80.89,36.2 -80.89,80.87 0,44.68 36.22,80.9 80.89,80.9z"/>
  </g>
 </g>
</svg>
