<?xml version="1.0" encoding="UTF-8"?>
<!DOCTYPE svg PUBLIC "-//W3C//DTD SVG 1.1//EN" "http://www.w3.org/Graphics/SVG/1.1/DTD/svg11.dtd">
<!-- Creator: CorelDRAW -->
<svg xmlns="http://www.w3.org/2000/svg" xml:space="preserve" width="235.833mm" height="100.959mm" version="1.1" style="shape-rendering:geometricPrecision; text-rendering:geometricPrecision; image-rendering:optimizeQuality; fill-rule:evenodd; clip-rule:evenodd"
viewBox="0 0 23583.28 10095.94"
 xmlns:xlink="http://www.w3.org/1999/xlink"
 xmlns:xodm="http://www.corel.com/coreldraw/odm/2003">
 <defs>
  <style type="text/css">
   <![CDATA[
    .str0 {stroke:#93BAB3;stroke-width:200;stroke-miterlimit:22.9256}
    .str1 {stroke:#25695C;stroke-width:75;stroke-linecap:round;stroke-linejoin:round;stroke-miterlimit:22.9256}
    .fil0 {fill:none}
   ]]>
  </style>
 </defs>
 <g id="Слой_x0020_1">
  <metadata id="CorelCorpID_0Corel-Layer"/>
  <path class="fil0 str0" d="M14216.69 152.69c-677.93,-138.15 -830.61,28.17 -911.12,145.86 -281.42,411.31 -606.43,793.49 -1044.76,1072.32 -373.17,237.35 -1084.46,394.33 -1608.14,301.34 -597.42,-106.09 -557.79,-554.58 -927.35,-881.71 -434.3,-384.36 -1013.24,-132.35 -1517.06,-28.52 -647.85,133.45 -1032.62,72.8 -1633.66,142.93 -462.82,53.96 -1048.85,226.23 -1418.69,347.05 -288.51,119.73 -147.84,572.25 -440.17,624.92 -1098.38,308.02 -1624.79,347.18 -1911.53,1443.79 -551.65,2109.24 -1981.11,1808.17 -2514.41,2513.52 -536.16,709.11 100.63,1035.08 966.17,1962.22 806.53,864.11 1058.68,-542.64 1583.99,926.53 345.68,966.58 688.64,1518.16 2346.58,1168.25 1294.59,-273.24 2508.75,-1022.39 3791.2,-1122.67 902.24,-70.55 1266.48,-31.93 1904.23,-509.76 1345.55,-1008.06 1452.39,154.93 3349.66,800.45 1066.18,362.74 1173.22,-122.32 1520.27,-708.01 287.96,233.93 160.8,144.36 281.48,580.91 483.77,1751.14 2256.94,-558.47 2889.57,-900.6 1931.31,-1044.35 557.45,-1113.4 2187.9,-2082.63 335.93,-351.83 -113.39,-660.74 212.1,-1000.69 274.46,-219.95 1256.12,-421.89 1740.29,55.6 215.86,-197.37 365.67,-531.86 311.78,-603.77 -46.33,-381.16 304.34,-733.6 -83.51,-1261.3 -728.82,-991.68 -2840.65,-1547.9 -3258.58,-1875.44 -976.2,-764.98 -2188.58,-581.93 -4237.78,-999.32 -472.1,-96.13 -1065.91,-77.64 -1578.46,-111.27z"/>
  <g id="_1609730328640">
   <path class="fil0 str1" d="M3994.04 6968.2c0,161.8 -242.67,350.53 -242.67,350.53 0,0 -242.66,-188.73 -242.66,-350.53 0,-132.17 110.49,-242.66 242.66,-242.66 132.18,0 242.67,110.49 242.67,242.66z"/>
   <path class="fil0 str1" d="M3751.37 7049.1c44.68,0 80.9,-36.22 80.9,-80.9 0,-44.67 -36.22,-80.87 -80.9,-80.87 -44.67,0 -80.89,36.2 -80.89,80.87 0,44.68 36.22,80.9 80.89,80.9z"/>
  </g>
  <g id="_1609730327776">
   <path class="fil0 str1" d="M5926.38 8690.73c0,161.8 -242.67,350.53 -242.67,350.53 0,0 -242.66,-188.73 -242.66,-350.53 0,-132.17 110.49,-242.66 242.66,-242.66 132.18,0 242.67,110.49 242.67,242.66z"/>
   <path class="fil0 str1" d="M5683.71 8771.63c44.68,0 80.9,-36.22 80.9,-80.9 0,-44.67 -36.22,-80.87 -80.9,-80.87 -44.67,0 -80.89,36.2 -80.89,80.87 0,44.68 36.22,80.9 80.89,80.9z"/>
  </g>
  <g id="_1609730325952">
   <path class="fil0 str1" d="M7793.66 8343.85c0,161.8 -242.67,350.53 -242.67,350.53 0,0 -242.66,-188.73 -242.66,-350.53 0,-132.17 110.49,-242.66 242.66,-242.66 132.18,0 242.67,110.49 242.67,242.66z"/>
   <path class="fil0 str1" d="M7550.99 8424.75c44.68,0 80.9,-36.22 80.9,-80.9 0,-44.67 -36.22,-80.87 -80.9,-80.87 -44.67,0 -80.89,36.2 -80.89,80.87 0,44.68 36.22,80.9 80.89,80.9z"/>
  </g>
  <g id="_1609730325376">
   <path class="fil0 str1" d="M8205.88 2307.89c0,161.8 -242.67,350.53 -242.67,350.53 0,0 -242.66,-188.73 -242.66,-350.53 0,-132.17 110.49,-242.66 242.66,-242.66 132.18,0 242.67,110.49 242.67,242.66z"/>
   <path class="fil0 str1" d="M7963.21 2388.79c44.68,0 80.9,-36.22 80.9,-80.9 0,-44.67 -36.22,-80.87 -80.9,-80.87 -44.67,0 -80.89,36.2 -80.89,80.87 0,44.68 36.22,80.9 80.89,80.9z"/>
  </g>
  <g id="_1609730325232">
   <path class="fil0 str1" d="M8667.43 6041.14c0,161.8 -242.67,350.53 -242.67,350.53 0,0 -242.66,-188.73 -242.66,-350.53 0,-132.17 110.49,-242.66 242.66,-242.66 132.18,0 242.67,110.49 242.67,242.66z"/>
   <path class="fil0 str1" d="M8424.76 6122.04c44.68,0 80.9,-36.22 80.9,-80.9 0,-44.67 -36.22,-80.87 -80.9,-80.87 -44.67,0 -80.89,36.2 -80.89,80.87 0,44.68 36.22,80.9 80.89,80.9z"/>
  </g>
  <g id="_1609730325184">
   <path class="fil0 str1" d="M9445.63 4724.64c0,161.8 -242.67,350.53 -242.67,350.53 0,0 -242.66,-188.73 -242.66,-350.53 0,-132.17 110.49,-242.66 242.66,-242.66 132.18,0 242.67,110.49 242.67,242.66z"/>
   <path class="fil0 str1" d="M9202.96 4805.54c44.68,0 80.9,-36.22 80.9,-80.9 0,-44.67 -36.22,-80.87 -80.9,-80.87 -44.67,0 -80.89,36.2 -80.89,80.87 0,44.68 36.22,80.9 80.89,80.9z"/>
  </g>
  <g id="_1609730324032">
   <path class="fil0 str1" d="M5570.14 3426.5c0,161.8 -242.67,350.53 -242.67,350.53 0,0 -242.66,-188.73 -242.66,-350.53 0,-132.17 110.49,-242.66 242.66,-242.66 132.18,0 242.67,110.49 242.67,242.66z"/>
   <path class="fil0 str1" d="M5327.47 3507.4c44.68,0 80.9,-36.22 80.9,-80.9 0,-44.67 -36.22,-80.87 -80.9,-80.87 -44.67,0 -80.89,36.2 -80.89,80.87 0,44.68 36.22,80.9 80.89,80.9z"/>
  </g>
  <g id="_1609730321920">
   <path class="fil0 str1" d="M9883.88 7779.56c0,161.8 -242.67,350.53 -242.67,350.53 0,0 -242.66,-188.73 -242.66,-350.53 0,-132.17 110.49,-242.66 242.66,-242.66 132.18,0 242.67,110.49 242.67,242.66z"/>
   <path class="fil0 str1" d="M9641.21 7860.46c44.68,0 80.9,-36.22 80.9,-80.9 0,-44.67 -36.22,-80.87 -80.9,-80.87 -44.67,0 -80.89,36.2 -80.89,80.87 0,44.68 36.22,80.9 80.89,80.9z"/>
  </g>
  <g id="_1609730320912">
   <path class="fil0 str1" d="M13870.51 7741.59c0,161.8 -242.66,350.53 -242.66,350.53 0,0 -242.67,-188.73 -242.67,-350.53 0,-132.17 110.49,-242.66 242.67,-242.66 132.17,0 242.66,110.49 242.66,242.66z"/>
   <path class="fil0 str1" d="M13627.85 7822.49c44.67,0 80.89,-36.22 80.89,-80.9 0,-44.67 -36.22,-80.87 -80.89,-80.87 -44.68,0 -80.9,36.2 -80.9,80.87 0,44.68 36.22,80.9 80.9,80.9z"/>
  </g>
  <g id="_1609730321680">
   <path class="fil0 str1" d="M17178.1 8367.81c0,161.8 -242.66,350.53 -242.66,350.53 0,0 -242.67,-188.73 -242.67,-350.53 0,-132.17 110.49,-242.66 242.67,-242.66 132.17,0 242.66,110.49 242.66,242.66z"/>
   <path class="fil0 str1" d="M16935.44 8448.71c44.67,0 80.89,-36.22 80.89,-80.9 0,-44.67 -36.22,-80.87 -80.89,-80.87 -44.68,0 -80.9,36.2 -80.9,80.87 0,44.68 36.22,80.9 80.9,80.9z"/>
  </g>
  <g id="_1609730323264">
   <path class="fil0 str1" d="M17051.57 7026.36c0,161.8 -242.66,350.53 -242.66,350.53 0,0 -242.67,-188.73 -242.67,-350.53 0,-132.17 110.49,-242.66 242.67,-242.66 132.17,0 242.66,110.49 242.66,242.66z"/>
   <path class="fil0 str1" d="M16808.91 7107.26c44.67,0 80.89,-36.22 80.89,-80.9 0,-44.67 -36.22,-80.87 -80.89,-80.87 -44.68,0 -80.9,36.2 -80.9,80.87 0,44.68 36.22,80.9 80.9,80.9z"/>
  </g>
  <g id="_1609730323216">
   <path class="fil0 str1" d="M19956.19 5000.14c0,161.8 -242.66,350.53 -242.66,350.53 0,0 -242.67,-188.73 -242.67,-350.53 0,-132.17 110.49,-242.66 242.67,-242.66 132.17,0 242.66,110.49 242.66,242.66z"/>
   <path class="fil0 str1" d="M19713.53 5081.04c44.67,0 80.89,-36.22 80.89,-80.9 0,-44.67 -36.22,-80.87 -80.89,-80.87 -44.68,0 -80.9,36.2 -80.9,80.87 0,44.68 36.22,80.9 80.9,80.9z"/>
  </g>
  <g id="_1609730318656">
   <path class="fil0 str1" d="M19633.1 2242.69c0,161.8 -242.66,350.53 -242.66,350.53 0,0 -242.67,-188.73 -242.67,-350.53 0,-132.17 110.49,-242.66 242.67,-242.66 132.17,0 242.66,110.49 242.66,242.66z"/>
   <path class="fil0 str1" d="M19390.44 2323.59c44.67,0 80.89,-36.22 80.89,-80.9 0,-44.67 -36.22,-80.87 -80.89,-80.87 -44.68,0 -80.9,36.2 -80.9,80.87 0,44.68 36.22,80.9 80.9,80.9z"/>
  </g>
  <g id="_1609730320048">
   <path class="fil0 str1" d="M20677.3 2760.33c0,161.8 -242.66,350.53 -242.66,350.53 0,0 -242.67,-188.73 -242.67,-350.53 0,-132.17 110.49,-242.66 242.67,-242.66 132.17,0 242.66,110.49 242.66,242.66z"/>
   <path class="fil0 str1" d="M20434.64 2841.23c44.67,0 80.89,-36.22 80.89,-80.9 0,-44.67 -36.22,-80.87 -80.89,-80.87 -44.68,0 -80.9,36.2 -80.9,80.87 0,44.68 36.22,80.9 80.9,80.9z"/>
  </g>
  <g id="_1609730319712">
   <path class="fil0 str1" d="M16633.64 1635.2c0,161.8 -242.66,350.53 -242.66,350.53 0,0 -242.67,-188.73 -242.67,-350.53 0,-132.17 110.49,-242.66 242.67,-242.66 132.17,0 242.66,110.49 242.66,242.66z"/>
   <path class="fil0 str1" d="M16390.98 1716.1c44.67,0 80.89,-36.22 80.89,-80.9 0,-44.67 -36.22,-80.87 -80.89,-80.87 -44.68,0 -80.9,36.2 -80.9,80.87 0,44.68 36.22,80.9 80.9,80.9z"/>
  </g>
  <g id="_1609730319808">
   <path class="fil0 str1" d="M13937.91 2432.53c0,161.8 -242.66,350.53 -242.66,350.53 0,0 -242.67,-188.73 -242.67,-350.53 0,-132.17 110.49,-242.66 242.67,-242.66 132.17,0 242.66,110.49 242.66,242.66z"/>
   <path class="fil0 str1" d="M13695.25 2513.43c44.67,0 80.89,-36.22 80.89,-80.9 0,-44.67 -36.22,-80.87 -80.89,-80.87 -44.68,0 -80.9,36.2 -80.9,80.87 0,44.68 36.22,80.9 80.9,80.9z"/>
  </g>
  <g id="_1609730318176">
   <path class="fil0 str1" d="M16949.79 5254.93c0,161.8 -242.66,350.53 -242.66,350.53 0,0 -242.67,-188.73 -242.67,-350.53 0,-132.17 110.49,-242.66 242.67,-242.66 132.17,0 242.66,110.49 242.66,242.66z"/>
   <path class="fil0 str1" d="M16707.13 5335.83c44.67,0 80.89,-36.22 80.89,-80.9 0,-44.67 -36.22,-80.87 -80.89,-80.87 -44.68,0 -80.9,36.2 -80.9,80.87 0,44.68 36.22,80.9 80.9,80.9z"/>
  </g>
  <g id="_1609730316256">
   <path class="fil0 str1" d="M14900.02 5254.44c0,161.8 -242.66,350.53 -242.66,350.53 0,0 -242.67,-188.73 -242.67,-350.53 0,-132.17 110.49,-242.66 242.67,-242.66 132.17,0 242.66,110.49 242.66,242.66z"/>
   <path class="fil0 str1" d="M14657.36 5335.34c44.67,0 80.89,-36.22 80.89,-80.9 0,-44.67 -36.22,-80.87 -80.89,-80.87 -44.68,0 -80.9,36.2 -80.9,80.87 0,44.68 36.22,80.9 80.9,80.9z"/>
  </g>
  <g id="_1609730315440">
   <path class="fil0 str1" d="M12298.97 5919.11c0,161.8 -242.66,350.53 -242.66,350.53 0,0 -242.67,-188.73 -242.67,-350.53 0,-132.17 110.49,-242.66 242.67,-242.66 132.17,0 242.66,110.49 242.66,242.66z"/>
   <path class="fil0 str1" d="M12056.31 6000.01c44.67,0 80.89,-36.22 80.89,-80.9 0,-44.67 -36.22,-80.87 -80.89,-80.87 -44.68,0 -80.9,36.2 -80.9,80.87 0,44.68 36.22,80.9 80.9,80.9z"/>
  </g>
  <g id="_1609730315296">
   <path class="fil0 str1" d="M11881.32 3028.6c0,161.8 -242.67,350.53 -242.67,350.53 0,0 -242.66,-188.73 -242.66,-350.53 0,-132.17 110.49,-242.66 242.66,-242.66 132.18,0 242.67,110.49 242.67,242.66z"/>
   <path class="fil0 str1" d="M11638.65 3109.5c44.68,0 80.9,-36.22 80.9,-80.9 0,-44.67 -36.22,-80.87 -80.9,-80.87 -44.67,0 -80.89,36.2 -80.89,80.87 0,44.68 36.22,80.9 80.89,80.9z"/>
  </g>
 </g>
</svg>
