<?xml version="1.0" encoding="UTF-8"?>
<!DOCTYPE svg PUBLIC "-//W3C//DTD SVG 1.1//EN" "http://www.w3.org/Graphics/SVG/1.1/DTD/svg11.dtd">
<!-- Creator: CorelDRAW -->
<svg xmlns="http://www.w3.org/2000/svg" xml:space="preserve" width="235.833mm" height="100.959mm" version="1.1" style="shape-rendering:geometricPrecision; text-rendering:geometricPrecision; image-rendering:optimizeQuality; fill-rule:evenodd; clip-rule:evenodd"
viewBox="0 0 23583.28 10095.94"
 xmlns:xlink="http://www.w3.org/1999/xlink"
 xmlns:xodm="http://www.corel.com/coreldraw/odm/2003">
 <defs>
  <style type="text/css">
   <![CDATA[
    .str0 {stroke:#93BAB3;stroke-width:100;stroke-miterlimit:22.9256}
    .fil0 {fill:none}
   ]]>
  </style>
 </defs>
 <g id="Слой_x0020_1">
  <metadata id="CorelCorpID_0Corel-Layer"/>
  <polygon class="fil0 str0" points="14216.69,152.69 13305.57,298.55 12260.81,1370.87 10652.67,1672.21 9725.32,790.5 8208.26,761.98 6574.6,904.91 5155.91,1251.96 4715.74,1876.88 3609.37,2446.47 2910.3,3922.05 1146.33,4977.93 289.8,5834.19 1023.19,7128.85 1633.78,7565.89 2382.39,7483.07 2683.46,8535.94 3131.75,9124.57 5186.54,9891.19 6431.6,9791.79 8977.74,8768.52 9945.75,8751.05 10881.97,8258.76 12432.26,8356.52 14231.63,9059.21 15345.97,8125.72 15645.27,8155.81 16033.38,8932.11 16300,9408.03 17046.97,9393.02 18922.95,8031.51 21110.85,5948.88 21322.95,4948.19 21879.65,4593.29 23063.24,5003.79 23375.02,4400.02 23291.51,3138.72 20032.93,1263.28 15795.15,263.96 "/>
 </g>
</svg>
