<?xml version="1.0" encoding="UTF-8"?>
<!DOCTYPE svg PUBLIC "-//W3C//DTD SVG 1.1//EN" "http://www.w3.org/Graphics/SVG/1.1/DTD/svg11.dtd">
<!-- Creator: CorelDRAW -->
<svg xmlns="http://www.w3.org/2000/svg" xml:space="preserve" width="247.309mm" height="170.778mm" version="1.1" style="shape-rendering:geometricPrecision; text-rendering:geometricPrecision; image-rendering:optimizeQuality; fill-rule:evenodd; clip-rule:evenodd"
viewBox="0 0 24730.86 17077.8"
 xmlns:xlink="http://www.w3.org/1999/xlink"
 xmlns:xodm="http://www.corel.com/coreldraw/odm/2003">
 <defs>
  <style type="text/css">
   <![CDATA[
    .str0 {stroke:#93BAB3;stroke-width:100;stroke-miterlimit:22.9256}
    .fil0 {fill:none}
   ]]>
  </style>
 </defs>
 <g id="Слой_x0020_1">
  <metadata id="CorelCorpID_0Corel-Layer"/>
  <polygon class="fil0 str0" points="74.12,10379.26 43.77,11048.91 798.01,11858.98 928.6,12541.88 758.28,13287.06 928.6,13915.14 843.44,14096.11 1216.03,14926.46 2387.03,15181.95 2791.56,15352.28 4271.27,15299.05 4686.44,15064.85 5484.85,15213.89 5900.03,14969.04 6304.55,14266.44 6549.4,14245.15 7186.13,14674.28 7707.76,15132.04 7662.35,15568.29 7869.3,15811.76 8106.68,15854.37 8155.37,16103.92 8636.22,16633.46 9674.43,16683.11 9753.82,16450.22 9970.83,16196.16 10018.47,15767.44 10362.51,15640.41 10584.81,15830.95 11014.47,16160.86 11173.26,16250.83 11300.29,16425.5 11633.74,16478.43 11676.08,16848.93 11844.75,16848.76 12105.19,16507.97 12781.22,16430.39 13004.03,16649.29 13186.9,16665.91 13572.03,17026.11 13948.85,16984.55 14037.51,16718.56 14198.22,16746.27 14336.59,16872.36 14980.47,15953.67 15325.01,15258.32 16351.65,15163.01 17390.91,14955.49 17566.22,14856.88 17653.88,15810.13 17714.14,16007.35 17440.22,16368.93 17752.49,16818.16 18042.85,16620.94 18732.12,16615.74 18967.98,16807.38 19623.98,16320.91 19623.98,15775.47 20132.07,15535.05 21040.73,15675.01 21554.87,15928.9 21959.74,16270.88 22682.18,16364.28 22819.04,16121.84 23073.96,15743.93 23178.05,15367.52 23405.09,15145.99 23126.21,14871.83 23726.1,14618.09 23503.15,14379.77 23549.28,14226.01 23914.45,14252.92 24098.96,13980 23977.76,13755.05 24231.95,13442.21 24243.68,13270.14 23829.16,12843.89 23625.22,12578.37 23072.23,12291.93 23421.23,11556.07 24056.19,10873.27 24174.57,10498.22 24455.82,10458.42 24657.47,10190.43 24211.65,9751.29 24108.59,9412.66 23854.62,9408.98 23453.43,9096.13 23480.81,8785.34 23256.29,8744.85 21811.15,9049.19 21560.86,8920.37 21266.39,8946.13 21038.18,8662.71 20082.97,8735.25 19921.01,8562.24 19781.13,7881.27 19541.87,7803.97 19487.27,6947.3 18957.88,6392.08 19514.28,6007.67 19230.61,5594.4 18832.43,5477.45 17947.37,5416.18 17923.42,4558.96 17843.3,4276.04 18028.16,2610.82 17662.2,2451.65 17471.79,2134.28 17065.27,2065.95 16968.24,1744.99 17239.54,909.34 16892.55,608.91 16621.74,646.99 16257.83,841.64 16256.82,556.58 16361.64,290.81 16226.87,58.72 15729.59,192.06 15137.23,531.03 14945.3,1843.52 14379.51,2125.05 14239.65,1968.7 14033.99,1382.2 13755.97,1031.82 12614.52,820.77 12317.45,919.8 12363.15,1460.62 12338.89,2030.38 11664.4,1487.44 11480.05,884.1 10968.47,459.61 10375.3,1181.19 10116.86,1662.42 10189.05,2409.09 10305.55,2620.59 9925.83,3174.68 10061.44,3573.78 9277.41,5301.09 9705.2,5898.21 9462.44,6221.78 9568.87,6641.92 9417.62,6871.59 8963.87,6888.4 8308.45,7252.52 8225.92,7522.05 7167.5,7433.95 6381.35,7229.08 5530.14,7771.18 4835.5,7121.35 4533.78,7071.33 4220.06,6695.99 3844.72,6684.79 3130.06,8339.44 3202.89,8569.13 3550.22,8636.35 3505.4,9045.3 3191.69,9129.33 3320.97,9612.9 3454.32,9752.92 3267.63,10099.63 2647.56,9946.27 2367.53,9739.59 2000.83,9719.58 1374.09,10019.62 1374.09,10206.3 1204.05,10314.45 "/>
 </g>
</svg>
