<?xml version="1.0" encoding="UTF-8"?>
<!DOCTYPE svg PUBLIC "-//W3C//DTD SVG 1.1//EN" "http://www.w3.org/Graphics/SVG/1.1/DTD/svg11.dtd">
<!-- Creator: CorelDRAW -->
<svg xmlns="http://www.w3.org/2000/svg" xml:space="preserve" width="248.385mm" height="175.063mm" version="1.1"
     style="shape-rendering:geometricPrecision; text-rendering:geometricPrecision; image-rendering:optimizeQuality; fill-rule:evenodd; clip-rule:evenodd;max-height: 45rem;"
viewBox="0 0 24838.46 17506.26"
 xmlns:xlink="http://www.w3.org/1999/xlink"
 xmlns:xodm="http://www.corel.com/coreldraw/odm/2003">

 <defs>
  <style type="text/css">
   <![CDATA[
    .str0 {stroke:#93BAB3;stroke-width:200;stroke-miterlimit:22.9256}
    .str1 {stroke:#25695C;stroke-width:75;stroke-linecap:round;stroke-linejoin:round;stroke-miterlimit:22.9256}
    .fil0 {fill:none}
   ]]>
  </style>
 </defs>
 <g id="Слой_x0020_1">
  <metadata id="CorelCorpID_0Corel-Layer"/>
  <path class="fil0 str0" d="M1356.92 15105.1c108,-0.33 199.24,5.48 311.91,13.89 554.09,41.36 958.32,33.22 1511.22,-12.26l639.62 -13.95 1429.21 -17.8c904.38,-59.43 1371.03,-877.73 2080.77,-436.42 570.48,354.68 494.01,1020.25 894.01,1590.51 428.12,610.37 644.29,727.76 1509.65,673.54 299.16,-49.01 456.39,-391.04 637.88,-819.81 191.43,-297.97 283.1,-464.37 539.33,-623.07 201.36,-78.76 399.62,-109.47 469.04,33.7 188.65,328.04 -988.5,1693.63 446.84,1910.62 487.55,-181.92 657.26,-960.49 1009.39,-1247.44 462.91,-377.21 579.87,484.45 974.07,849.78 740.46,218.07 1471.81,-856.29 1571.68,-1482.24l32.99 -482.61c163.81,-405.37 556.97,-232.51 1092.39,-17.8 447.22,179.27 1146.27,732.49 1533.47,1046.74 292.43,237.29 525.86,469.31 843.69,695.85 1375.53,404.62 1074.85,-541.12 1271.22,-1192.95 137.96,-275.77 1885.11,262.36 1988.18,716.31 65.51,156.15 377.64,48.47 471.86,-39.13 245.92,-212.81 558.48,-274.47 617.05,-718.87 50.63,-384.53 -119.79,-717.34 -121.74,-1121.14 437.18,-308.71 673.16,-64.75 844.56,-578.19l29.8 -539.81 -162.44 -465.68c-612.17,-2565.11 1083.59,-1494.6 894.38,-3018.14 -115.33,-928.8 -860.41,-439.52 -1405.49,-679.41 -476.15,-209.55 -688.03,-782.53 -1326.63,36.85 -713.16,37.4 -1038.75,135.26 -1311.32,-478.26 -282.99,-636.8 346.92,-745.68 16.5,-1419.06 -262.15,-356.8 -518.65,-189.69 -761.47,-414.6 -143.07,-132.49 -231.97,-596.43 -334.77,-828.29 -328.41,-740.79 -856.77,-490.96 -1727.82,-602.77 -427.2,-1321.85 185.18,-1107.2 295.9,-2042.18 129.61,-1094.88 -554.19,-996.21 -1138.46,-1439.2 -98.72,-689.17 490.32,-1391.81 315.44,-1787.47 0,0 -1914.96,-281.79 -2036.97,444.34 -130.58,776.78 -213.03,1126.69 -727.71,1426.39 -452.11,-587.95 239.08,-1273.6 -1085.16,-1295.53 -1188.4,-19.59 -661.17,640.55 -1079.74,1287.17 -522.77,-401.52 -121.36,-1149.26 -740.84,-1393.39 -778.57,-306.81 -1128.21,162.77 -1380.8,640.33 -1167.88,2208.16 326.62,2294.78 -104.86,3305.05l-785.3 1383.72c-1067.3,2166.75 -1190.4,1841.32 -2223.29,1413.47 -984.81,-407.98 -843.43,171.56 -1176.35,590.29 -599.29,-174.11 -1365.54,-1546.66 -2099.82,-843.05 -675.12,646.9 -197.72,1949.11 -326.73,2739.89 -328.63,-184.32 -680.98,-765.76 -1287.23,-537.81 -317.45,119.35 -624.43,768.09 -845.11,977.81 -617.1,104.69 -826.76,-224.43 -1274.63,168.52 -271.64,566.35 292.05,997.67 669.26,1168.53 456.66,206.89 806.46,460.9 740.84,1089.99l-10.15 134.06c-147.62,581.33 -327.49,1125.81 -449.66,1634.69 -26.38,539.38 16.66,568.42 242.34,616.29z"/>

  <path class="fil0 str1" d="M23290.73 13332.23c0,161.8 -242.66,350.53 -242.66,350.53 0,0 -242.67,-188.73 -242.67,-350.53 0,-132.17 110.49,-242.66 242.67,-242.66 132.17,0 242.66,110.49 242.66,242.66zm-242.66 80.9c44.67,0 80.89,-36.22 80.89,-80.9 0,-44.67 -36.22,-80.87 -80.89,-80.87 -44.68,0 -80.9,36.2 -80.9,80.87 0,44.68 36.22,80.9 80.9,80.9z"/>
  <path class="fil0 str1" d="M22650.3 14186.14c0,161.8 -242.66,350.53 -242.66,350.53 0,0 -242.67,-188.73 -242.67,-350.53 0,-132.17 110.49,-242.66 242.67,-242.66 132.17,0 242.66,110.49 242.66,242.66zm-242.66 80.9c44.67,0 80.89,-36.22 80.89,-80.9 0,-44.67 -36.22,-80.87 -80.89,-80.87 -44.68,0 -80.9,36.2 -80.9,80.87 0,44.68 36.22,80.9 80.9,80.9z"/>
  <path class="fil0 str1" d="M19174.67 13686.95c0,161.8 -242.66,350.53 -242.66,350.53 0,0 -242.67,-188.73 -242.67,-350.53 0,-132.17 110.49,-242.66 242.67,-242.66 132.17,0 242.66,110.49 242.66,242.66zm-242.66 80.9c44.67,0 80.89,-36.22 80.89,-80.9 0,-44.67 -36.22,-80.87 -80.89,-80.87 -44.68,0 -80.9,36.2 -80.9,80.87 0,44.68 36.22,80.9 80.9,80.9z"/>
  <path class="fil0 str1" d="M20487.25 13040.91c0,161.8 -242.66,350.53 -242.66,350.53 0,0 -242.67,-188.73 -242.67,-350.53 0,-132.17 110.49,-242.66 242.67,-242.66 132.17,0 242.66,110.49 242.66,242.66zm-242.66 80.9c44.67,0 80.89,-36.22 80.89,-80.9 0,-44.67 -36.22,-80.87 -80.89,-80.87 -44.68,0 -80.9,36.2 -80.9,80.87 0,44.68 36.22,80.9 80.9,80.9z"/>
  <path class="fil0 str1" d="M18509.36 12032.34c0,161.8 -242.66,350.53 -242.66,350.53 0,0 -242.67,-188.73 -242.67,-350.53 0,-132.17 110.49,-242.66 242.67,-242.66 132.17,0 242.66,110.49 242.66,242.66zm-242.66 80.9c44.67,0 80.89,-36.22 80.89,-80.9 0,-44.67 -36.22,-80.87 -80.89,-80.87 -44.68,0 -80.9,36.2 -80.9,80.87 0,44.68 36.22,80.9 80.9,80.9z"/>
  <path class="fil0 str1" d="M19154.89 10950.65c0,161.8 -242.66,350.53 -242.66,350.53 0,0 -242.67,-188.73 -242.67,-350.53 0,-132.17 110.49,-242.66 242.67,-242.66 132.17,0 242.66,110.49 242.66,242.66zm-242.66 80.9c44.67,0 80.89,-36.22 80.89,-80.9 0,-44.67 -36.22,-80.87 -80.89,-80.87 -44.68,0 -80.9,36.2 -80.9,80.87 0,44.68 36.22,80.9 80.9,80.9z"/>
  <path class="fil0 str1" d="M21540.72 11474.8c0,161.8 -242.66,350.53 -242.66,350.53 0,0 -242.67,-188.73 -242.67,-350.53 0,-132.17 110.49,-242.66 242.67,-242.66 132.17,0 242.66,110.49 242.66,242.66zm-242.66 80.9c44.67,0 80.89,-36.22 80.89,-80.9 0,-44.67 -36.22,-80.87 -80.89,-80.87 -44.68,0 -80.9,36.2 -80.9,80.87 0,44.68 36.22,80.9 80.9,80.9z"/>
  <path class="fil0 str1" d="M20969.34 10060.87c0,161.8 -242.66,350.53 -242.66,350.53 0,0 -242.67,-188.73 -242.67,-350.53 0,-132.17 110.49,-242.66 242.67,-242.66 132.17,0 242.66,110.49 242.66,242.66zm-242.66 80.9c44.67,0 80.89,-36.22 80.89,-80.9 0,-44.67 -36.22,-80.87 -80.89,-80.87 -44.68,0 -80.9,36.2 -80.9,80.87 0,44.68 36.22,80.9 80.9,80.9z"/>
  <path class="fil0 str1" d="M19688.01 9589.81c0,161.8 -242.66,350.53 -242.66,350.53 0,0 -242.67,-188.73 -242.67,-350.53 0,-132.17 110.49,-242.66 242.67,-242.66 132.17,0 242.66,110.49 242.66,242.66zm-242.66 80.9c44.67,0 80.89,-36.22 80.89,-80.9 0,-44.67 -36.22,-80.87 -80.89,-80.87 -44.68,0 -80.9,36.2 -80.9,80.87 0,44.68 36.22,80.9 80.9,80.9z"/>
  <path class="fil0 str1" d="M16505.99 7829.4c0,161.8 -242.66,350.53 -242.66,350.53 0,0 -242.67,-188.73 -242.67,-350.53 0,-132.17 110.49,-242.66 242.67,-242.66 132.17,0 242.66,110.49 242.66,242.66zm-242.66 80.9c44.67,0 80.89,-36.22 80.89,-80.9 0,-44.67 -36.22,-80.87 -80.89,-80.87 -44.68,0 -80.9,36.2 -80.9,80.87 0,44.68 36.22,80.9 80.9,80.9z"/>
  <path class="fil0 str1" d="M16477.63 10236.55c0,161.8 -242.66,350.53 -242.66,350.53 0,0 -242.67,-188.73 -242.67,-350.53 0,-132.17 110.49,-242.66 242.67,-242.66 132.17,0 242.66,110.49 242.66,242.66zm-242.66 80.9c44.67,0 80.89,-36.22 80.89,-80.9 0,-44.67 -36.22,-80.87 -80.89,-80.87 -44.68,0 -80.9,36.2 -80.9,80.87 0,44.68 36.22,80.9 80.9,80.9z"/>

  <path class="fil0 str1" d="M17883.97 9767.22c0,161.8 -242.66,350.53 -242.66,350.53 0,0 -242.67,-188.73 -242.67,-350.53 0,-132.17 110.49,-242.66 242.67,-242.66 132.17,0 242.66,110.49 242.66,242.66zm-242.66 80.9c44.67,0 80.89,-36.22 80.89,-80.9 0,-44.67 -36.22,-80.87 -80.89,-80.87 -44.68,0 -80.9,36.2 -80.9,80.87 0,44.68 36.22,80.9 80.9,80.9z"/>
  <path class="fil0 str1" d="M15899.44 11924.54c0,161.8 -242.66,350.53 -242.66,350.53 0,0 -242.67,-188.73 -242.67,-350.53 0,-132.17 110.49,-242.66 242.67,-242.66 132.17,0 242.66,110.49 242.66,242.66zm-242.66 80.9c44.67,0 80.89,-36.22 80.89,-80.9 0,-44.67 -36.22,-80.87 -80.89,-80.87 -44.68,0 -80.9,36.2 -80.9,80.87 0,44.68 36.22,80.9 80.9,80.9z"/>
  <path class="fil0 str1" d="M15444.95 13785.31c0,161.8 -242.66,350.53 -242.66,350.53 0,0 -242.67,-188.73 -242.67,-350.53 0,-132.17 110.49,-242.66 242.67,-242.66 132.17,0 242.66,110.49 242.66,242.66zm-242.66 80.9c44.67,0 80.89,-36.22 80.89,-80.9 0,-44.67 -36.22,-80.87 -80.89,-80.87 -44.68,0 -80.9,36.2 -80.9,80.87 0,44.68 36.22,80.9 80.9,80.9z"/>
  <path class="fil0 str1" d="M14909.9 10036.67c0,161.8 -242.66,350.53 -242.66,350.53 0,0 -242.67,-188.73 -242.67,-350.53 0,-132.17 110.49,-242.66 242.67,-242.66 132.17,0 242.66,110.49 242.66,242.66zm-242.66 80.9c44.67,0 80.89,-36.22 80.89,-80.9 0,-44.67 -36.22,-80.87 -80.89,-80.87 -44.68,0 -80.9,36.2 -80.9,80.87 0,44.68 36.22,80.9 80.9,80.9z"/>
  <path class="fil0 str1" d="M13923.77 10895.81c0,161.8 -242.66,350.53 -242.66,350.53 0,0 -242.67,-188.73 -242.67,-350.53 0,-132.17 110.49,-242.66 242.67,-242.66 132.17,0 242.66,110.49 242.66,242.66zm-242.66 80.9c44.67,0 80.89,-36.22 80.89,-80.9 0,-44.67 -36.22,-80.87 -80.89,-80.87 -44.68,0 -80.9,36.2 -80.9,80.87 0,44.68 36.22,80.9 80.9,80.9z"/>
  <path class="fil0 str1" d="M12067.96 6832.31c0,161.8 -242.66,350.53 -242.66,350.53 0,0 -242.67,-188.73 -242.67,-350.53 0,-132.17 110.49,-242.66 242.67,-242.66 132.17,0 242.66,110.49 242.66,242.66zm-242.66 80.9c44.67,0 80.89,-36.22 80.89,-80.9 0,-44.67 -36.22,-80.87 -80.89,-80.87 -44.68,0 -80.9,36.2 -80.9,80.87 0,44.68 36.22,80.9 80.9,80.9z"/>
  <path class="fil0 str1" d="M13685.26 7778.28c0,161.8 -242.66,350.53 -242.66,350.53 0,0 -242.67,-188.73 -242.67,-350.53 0,-132.17 110.49,-242.66 242.67,-242.66 132.17,0 242.66,110.49 242.66,242.66zm-242.66 80.9c44.67,0 80.89,-36.22 80.89,-80.9 0,-44.67 -36.22,-80.87 -80.89,-80.87 -44.68,0 -80.9,36.2 -80.9,80.87 0,44.68 36.22,80.9 80.9,80.9z"/>
  <path class="fil0 str1" d="M11465.18 12095.33c0,161.8 -242.66,350.53 -242.66,350.53 0,0 -242.67,-188.73 -242.67,-350.53 0,-132.17 110.49,-242.66 242.67,-242.66 132.17,0 242.66,110.49 242.66,242.66zm-242.66 80.9c44.67,0 80.89,-36.22 80.89,-80.9 0,-44.67 -36.22,-80.87 -80.89,-80.87 -44.68,0 -80.9,36.2 -80.9,80.87 0,44.68 36.22,80.9 80.9,80.9z"/>
  <path class="fil0 str1" d="M13113 13926.25c0,161.8 -242.66,350.53 -242.66,350.53 0,0 -242.67,-188.73 -242.67,-350.53 0,-132.17 110.49,-242.66 242.67,-242.66 132.17,0 242.66,110.49 242.66,242.66zm-242.66 80.9c44.67,0 80.89,-36.22 80.89,-80.9 0,-44.67 -36.22,-80.87 -80.89,-80.87 -44.68,0 -80.9,36.2 -80.9,80.87 0,44.68 36.22,80.9 80.9,80.9z"/>
  <path class="fil0 str1" d="M10607.04 13847.97c0,161.8 -242.66,350.53 -242.66,350.53 0,0 -242.67,-188.73 -242.67,-350.53 0,-132.17 110.49,-242.66 242.67,-242.66 132.17,0 242.66,110.49 242.66,242.66zm-242.66 80.9c44.67,0 80.89,-36.22 80.89,-80.9 0,-44.67 -36.22,-80.87 -80.89,-80.87 -44.68,0 -80.9,36.2 -80.9,80.87 0,44.68 36.22,80.9 80.9,80.9z"/>
  <path class="fil0 str1" d="M8898.18 11162.63c0,161.8 -242.66,350.53 -242.66,350.53 0,0 -242.67,-188.73 -242.67,-350.53 0,-132.17 110.49,-242.66 242.67,-242.66 132.17,0 242.66,110.49 242.66,242.66zm-242.66 80.9c44.67,0 80.89,-36.22 80.89,-80.9 0,-44.67 -36.22,-80.87 -80.89,-80.87 -44.68,0 -80.9,36.2 -80.9,80.87 0,44.68 36.22,80.9 80.9,80.9z"/>
  <path class="fil0 str1" d="M16487.3 5608.84c0,161.8 -242.66,350.53 -242.66,350.53 0,0 -242.67,-188.73 -242.67,-350.53 0,-132.17 110.49,-242.66 242.67,-242.66 132.17,0 242.66,110.49 242.66,242.66zm-242.66 80.9c44.67,0 80.89,-36.22 80.89,-80.9 0,-44.67 -36.22,-80.87 -80.89,-80.87 -44.68,0 -80.9,36.2 -80.9,80.87 0,44.68 36.22,80.9 80.9,80.9z"/>
 </g>
</svg>
