<?xml version="1.0" encoding="UTF-8"?>
<!DOCTYPE svg PUBLIC "-//W3C//DTD SVG 1.1//EN" "http://www.w3.org/Graphics/SVG/1.1/DTD/svg11.dtd">
<!-- Creator: CorelDRAW -->
<svg xmlns="http://www.w3.org/2000/svg" xml:space="preserve" width="7.986mm" height="8.0836mm" version="1.1" style="shape-rendering:geometricPrecision; text-rendering:geometricPrecision; image-rendering:optimizeQuality; fill-rule:evenodd; clip-rule:evenodd"
viewBox="0 0 798.6 808.36"
 xmlns:xlink="http://www.w3.org/1999/xlink"
 xmlns:xodm="http://www.corel.com/coreldraw/odm/2003">
 <defs>
  <style type="text/css">
   <![CDATA[
    .fil0 {fill:#EF7F1A}
   ]]>
  </style>
 </defs>
 <g id="Слой_x0020_1">
  <metadata id="CorelCorpID_0Corel-Layer"/>
  <path class="fil0" d="M64.9 89.34l444.1 0 159.35 160.26 0 431.88 -669.82 0 0 -525.77c0,-36.5 29.87,-66.37 66.37,-66.37zm493.35 14.47l43.5 -41.86 85.18 88.51 -43.5 41.86 -85.18 -88.51zm168.38 -33.7c-14.73,13.86 -29.46,27.73 -44.19,41.59l-40.24 -42.36c19.93,-18.9 39.85,-37.79 59.78,-56.69 6.08,-4.45 9.54,-5.5 18.24,-5.52l47.62 0c16.12,0 29.3,13.18 29.3,29.3 0,16.11 -13.18,29.29 -29.3,29.29 -9.07,0 -18.19,-0.09 -27.29,-0.13 -8.83,-0.04 -10.02,1.58 -13.92,4.52zm-453.44 394.3c24.86,13.8 37.3,35.28 37.3,64.46 0,25.2 -9.84,45.76 -29.51,61.67 -19.68,15.92 -43.72,23.87 -72.13,23.87 -28.42,0 -52.46,-7.95 -72.13,-23.87 -19.68,-15.91 -29.51,-36.47 -29.51,-61.67 0,-28.65 12.3,-50.13 36.88,-64.46 -15.84,-10.87 -23.77,-27.19 -23.77,-48.94 0,-21.22 8.54,-38.99 25.62,-53.31 17.08,-14.33 38.05,-21.49 62.91,-21.49 24.59,0 45.49,7.16 62.7,21.49 17.21,14.32 25.82,32.09 25.82,53.31 0,21.22 -8.06,37.54 -24.18,48.94zm-29.5 -75.2c-9.57,-6.89 -21.18,-10.34 -34.84,-10.34 -13.67,0 -25.27,3.45 -34.83,10.34 -9.57,6.9 -14.35,15.12 -14.35,24.67 0,9.55 4.78,17.77 14.35,24.67 9.56,6.9 21.16,10.34 34.83,10.34 13.66,0 25.27,-3.44 34.84,-10.34 9.56,-6.9 14.34,-15.12 14.34,-24.67 0,-9.55 -4.78,-17.77 -14.34,-24.67zm-78.9 173.68c12.16,8.88 26.84,13.33 44.06,13.33 17.21,0 31.89,-4.45 44.06,-13.33 12.15,-8.89 18.23,-19.83 18.23,-32.83 0,-12.99 -6.08,-23.94 -18.23,-32.82 -12.17,-8.89 -26.85,-13.33 -44.06,-13.33 -17.22,0 -31.9,4.44 -44.06,13.33 -12.16,8.88 -18.23,19.83 -18.23,32.82 0,13 6.07,23.94 18.23,32.83zm220.08 -182.63c18.99,-26.39 43.37,-39.59 73.16,-39.59 29.78,0 54.16,13.2 73.16,39.59 18.98,26.39 28.48,58.82 28.48,97.28 0,38.46 -9.5,70.89 -28.48,97.28 -19,26.4 -43.38,39.59 -73.16,39.59 -30.06,0 -54.51,-13.19 -73.36,-39.59 -18.86,-26.39 -28.28,-58.82 -28.28,-97.28 0,-38.46 9.49,-70.89 28.48,-97.28zm29.1 167.11c12.16,19.23 26.84,28.85 44.06,28.85 17.21,0 31.89,-9.62 44.06,-28.85 12.15,-19.23 18.23,-42.51 18.23,-69.83 0,-27.32 -6.08,-50.59 -18.23,-69.83 -12.17,-19.23 -26.85,-28.84 -44.06,-28.84 -17.22,0 -31.9,9.61 -44.06,28.84 -12.16,19.24 -18.24,42.51 -18.24,69.83 0,27.32 6.08,50.6 18.24,69.83zm-287.28 -406.05l328.77 0c5.36,0 8.89,-0.63 11.86,2.05 58.45,58.18 64.18,64.55 101.42,102.29 3.42,3.47 -0.63,7.16 -3.47,7.16l-438.58 0c-30.66,0 -55.74,-25.09 -55.74,-55.75 0,-30.66 25.08,-55.75 55.74,-55.75zm541.66 565.43l0 42.37c0,36.49 -29.88,66.37 -66.37,66.37l-537.08 0c-36.49,0 -66.37,-29.87 -66.37,-66.37l0 -42.37 669.82 0z"/>
 </g>
</svg>
