<?xml version="1.0" encoding="UTF-8"?>
<!DOCTYPE svg PUBLIC "-//W3C//DTD SVG 1.1//EN" "http://www.w3.org/Graphics/SVG/1.1/DTD/svg11.dtd">
<!-- Creator: CorelDRAW -->
<svg xmlns="http://www.w3.org/2000/svg" xml:space="preserve" width="59.6422mm" height="33.218mm" version="1.1" style="shape-rendering:geometricPrecision; text-rendering:geometricPrecision; image-rendering:optimizeQuality; fill-rule:evenodd; clip-rule:evenodd;max-height: 45rem;"
viewBox="0 0 5964.22 3321.8"
 xmlns:xlink="http://www.w3.org/1999/xlink"
 xmlns:xodm="http://www.corel.com/coreldraw/odm/2003">
 <defs>
  <style type="text/css">
   <![CDATA[
    .fil2 {fill:#FEFEFE}
    .fil6 {fill:#C2671D}
    .fil1 {fill:#0A4A84}
    .fil4 {fill:#2D3776}
    .fil3 {fill:url(#id0)}
    .fil5 {fill:url(#id1)}
    .fil0 {fill:url(#id2)}
   ]]>
  </style>
  <linearGradient id="id0" gradientUnits="userSpaceOnUse" x1="4838.53" y1="-1231.81" x2="2011.84" y2="1933.7">
   <stop offset="0" style="stop-opacity:1; stop-color:#6984C7"/>
   <stop offset="1" style="stop-opacity:1; stop-color:#364896"/>
  </linearGradient>
  <linearGradient id="id1" gradientUnits="userSpaceOnUse" x1="4129.55" y1="1245.94" x2="2728.58" y2="3231">
   <stop offset="0" style="stop-opacity:1; stop-color:#F2A864"/>
   <stop offset="1" style="stop-opacity:1; stop-color:#D77C21"/>
  </linearGradient>
  <linearGradient id="id2" gradientUnits="userSpaceOnUse" x1="3532.01" y1="-830.71" x2="1481.38" y2="798.95">
   <stop offset="0" style="stop-opacity:1; stop-color:#6AB3EB"/>
   <stop offset="1" style="stop-opacity:1; stop-color:#0D64AD"/>
  </linearGradient>
 </defs>
 <g id="Слой_x0020_1">
  <metadata id="CorelCorpID_0Corel-Layer"/>
  <rect class="fil0" x="-6.63" y="2.19" width="4437.4" height="1040.33" rx="142.45" ry="78.87"/>
  <rect class="fil1" x="-6.62" y="2.19" width="149.61" height="1040.33" rx="31.68" ry="520.17"/>
  <path class="fil2" d="M380.76 235.83l325.01 0c37.44,0 68.07,30.63 68.07,68.07l0 12.54 -461.15 0 0 -12.54c0,-37.44 30.63,-68.07 68.07,-68.07zm170.22 150.84c41.24,0 72.34,9.42 93.29,28.25 20.96,18.83 31.44,44.33 31.44,76.49 0,31.51 -9.93,57.66 -29.73,78.44 -19.81,20.79 -46.61,31.19 -80.39,31.19l-69.18 0 0 113.01 -46.77 0 0 -327.38 101.34 0zm15.09 167.58c18.52,0 33.63,-4.95 45.31,-14.85 11.71,-9.9 17.54,-24.92 17.54,-45.07 0,-20.12 -6.33,-35.31 -18.98,-45.54 -12.69,-10.24 -28.26,-15.35 -46.78,-15.35l-66.75 0 0 120.81 69.66 0zm-31.89 -374.81l15.76 0 17.35 0c4.34,0 7.9,3.56 7.9,7.89 0,4.34 -3.56,7.89 -7.9,7.89l-17.35 0 0 23.45 -15.76 0 0 -23.45 -18.22 0c-4.34,0 -7.89,-3.55 -7.89,-7.89 0,-4.33 3.55,-7.89 7.89,-7.89l18.22 0zm130.69 -19.79l23.5 0 0 57.43 -23.5 0 0 -57.43zm-263.65 0l23.51 0 0 57.43 -23.51 0 0 -57.43zm-23.5 -46.57l334.13 0 0 28.48 -334.13 0 0 -28.48zm26.7 777.25l277.7 0 0 3.95c0,13.89 -11.35,25.25 -25.24,25.25l-227.24 0c-13.88,0 -25.22,-11.36 -25.22,-25.25l0 -3.95zm369.42 -554.46l0 434.54 -461.15 0 0 -434.54 461.15 0zm0 453.97l0 13.03c0,37.45 -30.63,68.07 -68.07,68.07l-325.01 0c-37.44,0 -68.07,-30.62 -68.07,-68.07l0 -13.03 461.15 0z"/>
  <rect class="fil3" x="753.62" y="1142.92" width="4437.4" height="1040.33" rx="142.45" ry="78.87"/>
  <rect class="fil4" x="753.63" y="1142.92" width="149.61" height="1040.33" rx="31.68" ry="520.17"/>
  <rect class="fil5" x="1520.19" y="2283.65" width="4437.4" height="1040.33" rx="142.45" ry="78.87"/>
  <rect class="fil6" x="1520.2" y="2283.65" width="149.61" height="1040.33" rx="31.68" ry="520.17"/>
  <path class="fil2" d="M1981.3 2456.42l417.7 0 149.89 150.74 0 406.22 -630.03 0 0 -494.53c0,-34.33 28.1,-62.43 62.44,-62.43zm291.01 352.58c12.39,2.87 21.68,9.34 27.87,19.41 6.19,10.06 9.29,21.17 9.29,33.34 0,19.68 -6.47,35.78 -19.41,48.27 -12.94,12.49 -30.35,18.74 -52.25,18.74l-82.28 0 0 -222.94 66.69 0c24.33,0 43.18,4.98 56.56,14.93 13.38,9.96 20.08,24.44 20.08,43.46 0,10.84 -2.55,20.29 -7.64,28.37 -5.08,8.07 -11.39,13.55 -18.91,16.42zm-84.93 -71.33l0 55.74 39.82 0c26.53,0 39.8,-9.29 39.8,-27.87 0,-18.58 -13.27,-27.87 -39.8,-27.87l-39.82 0zm45.12 159.24c14.16,0 25.21,-2.98 33.18,-8.95 7.96,-5.97 11.94,-14.93 11.94,-26.87 0,-11.95 -3.98,-20.91 -11.94,-26.88 -7.97,-5.97 -19.02,-8.96 -33.18,-8.96l-45.12 0 0 71.66 45.12 0zm-193.09 -391.6l309.23 0c5.04,0 8.37,-0.58 11.16,1.94 54.98,54.72 60.36,60.71 95.39,96.21 3.22,3.26 -0.58,6.73 -3.27,6.73l-412.51 0c-28.84,0 -52.43,-23.59 -52.43,-52.44 0,-28.84 23.59,-52.44 52.43,-52.44zm509.48 531.84l0 39.85c0,34.32 -28.11,62.43 -62.43,62.43l-505.16 0c-34.33,0 -62.44,-28.1 -62.44,-62.43l0 -39.85 630.03 0z"/>
  <g id="_2186663580112">
   <polygon class="fil2" points="2445.32,2470.04 2486.24,2430.66 2566.36,2513.91 2525.44,2553.29 "/>
   <path class="fil2" d="M2603.7 2438.34c-13.85,13.04 -27.71,26.08 -41.56,39.11l-37.85 -39.84c18.74,-17.77 37.48,-35.54 56.22,-53.31 5.72,-4.2 8.98,-5.18 17.16,-5.2l44.8 0c15.15,0 27.55,12.4 27.55,27.56 0,15.15 -12.4,27.55 -27.55,27.55 -8.54,0 -17.12,-0.08 -25.67,-0.12 -8.31,-0.04 -9.43,1.48 -13.1,4.25z"/>
  </g>
  <path class="fil2" d="M1148.67 1376.57l325.03 0c37.43,0 68.06,30.63 68.06,68.06l0 12.55 -461.15 0 0 -12.55c0,-37.43 30.63,-68.06 68.06,-68.06zm168.98 460.12l-92.08 -178.5 -27.54 171.63 -41.78 0 48.87 -294.76 112.53 218.28 111.68 -216.55 48.58 293.03 -40.92 0 -27.48 -171.2 -91.86 178.07zm-15.55 -516.51l15.77 0 17.35 0c4.33,0 7.88,3.55 7.88,7.88 0,4.34 -3.55,7.89 -7.88,7.89l-17.35 0 0 23.46 -15.77 0 0 -23.46 -18.21 0c-4.34,0 -7.89,-3.55 -7.89,-7.89 0,-4.33 3.55,-7.88 7.89,-7.88l18.21 0zm130.69 -19.8l23.5 0 0 57.43 -23.5 0 0 -57.43zm-263.65 0l23.5 0 0 57.43 -23.5 0 0 -57.43zm-23.49 -46.57l334.13 0 0 28.49 -334.13 0 0 -28.49zm26.68 777.25l277.71 0 0 3.96c0,13.88 -11.36,25.24 -25.24,25.24l-227.23 0c-13.88,0 -25.24,-11.36 -25.24,-25.24l0 -3.96zm369.43 -554.46l0 434.55 -461.15 0 0 -434.55 461.15 0zm0 453.97l0 13.05c0,37.43 -30.63,68.06 -68.06,68.06l-325.03 0c-37.43,0 -68.06,-30.63 -68.06,-68.06l0 -13.05 461.15 0z"/>
 </g>
</svg>
