<?xml version="1.0" encoding="UTF-8"?>
<!DOCTYPE svg PUBLIC "-//W3C//DTD SVG 1.1//EN" "http://www.w3.org/Graphics/SVG/1.1/DTD/svg11.dtd">
<!-- Creator: CorelDRAW -->
<svg xmlns="http://www.w3.org/2000/svg" xml:space="preserve" width="7.986mm" height="8.0836mm" version="1.1" style="shape-rendering:geometricPrecision; text-rendering:geometricPrecision; image-rendering:optimizeQuality; fill-rule:evenodd; clip-rule:evenodd;max-height: 45rem;"
viewBox="0 0 798.6 808.36"
 xmlns:xlink="http://www.w3.org/1999/xlink"
 xmlns:xodm="http://www.corel.com/coreldraw/odm/2003">
 <defs>
  <style type="text/css">
   <![CDATA[
    .fil0 {fill:#EF7F1A}
   ]]>
  </style>
 </defs>
 <g id="Слой_x0020_1">
  <metadata id="CorelCorpID_0Corel-Layer"/>
  <path class="fil0" d="M59.28 84.43l444.1 0 159.35 160.26 0 431.88 -669.82 0 0 -525.77c0,-36.5 29.87,-66.37 66.37,-66.37zm493.35 14.47l43.5 -41.86 85.18 88.51 -43.5 41.86 -85.18 -88.51zm168.38 -33.7c-14.73,13.86 -29.46,27.73 -44.19,41.59l-40.24 -42.36c19.93,-18.9 39.85,-37.79 59.78,-56.69 6.08,-4.45 9.54,-5.5 18.24,-5.52l47.62 0c16.12,0 29.3,13.18 29.3,29.3 0,16.11 -13.18,29.29 -29.3,29.29 -9.07,0 -18.19,-0.09 -27.29,-0.13 -8.83,-0.04 -10.02,1.58 -13.92,4.52zm-423.78 277.52c46.54,0 82.8,13.64 108.8,40.93 26,27.3 39,61.91 39,103.85 0,41.66 -13.21,76.2 -39.64,103.64 -26.43,27.43 -62.49,41.15 -108.16,41.15l-86.61 0 0 -289.57 86.61 0zm10.77 248.2c27.87,0 50.78,-9.98 68.73,-29.95 17.96,-19.96 26.93,-44.45 26.93,-73.47 0,-29.01 -8.97,-53.5 -26.93,-73.47 -17.95,-19.96 -40.86,-29.94 -68.73,-29.94l-56.02 0 0 206.83 56.02 0zm-186.93 -454.51l328.77 0c5.36,0 8.89,-0.63 11.86,2.05 58.45,58.18 64.18,64.55 101.42,102.29 3.42,3.47 -0.63,7.16 -3.47,7.16l-438.58 0c-30.66,0 -55.74,-25.09 -55.74,-55.75 0,-30.66 25.08,-55.75 55.74,-55.75zm541.66 565.43l0 42.37c0,36.49 -29.88,66.37 -66.37,66.37l-537.08 0c-36.49,0 -66.37,-29.87 -66.37,-66.37l0 -42.37 669.82 0z"/>
 </g>
</svg>
