<?xml version="1.0" encoding="UTF-8"?>
<!DOCTYPE svg PUBLIC "-//W3C//DTD SVG 1.1//EN" "http://www.w3.org/Graphics/SVG/1.1/DTD/svg11.dtd">
<!-- Creator: CorelDRAW -->
<svg xmlns="http://www.w3.org/2000/svg" xml:space="preserve" width="5.7282mm" height="10.0174mm" version="1.1" style="shape-rendering:geometricPrecision; text-rendering:geometricPrecision; image-rendering:optimizeQuality; fill-rule:evenodd; clip-rule:evenodd;max-height: 45rem;"
viewBox="0 0 572.82 1001.74"
 xmlns:xlink="http://www.w3.org/1999/xlink"
 xmlns:xodm="http://www.corel.com/coreldraw/odm/2003">
 <defs>
  <style type="text/css">
   <![CDATA[
    .fil0 {fill:#4696D3}
   ]]>
  </style>
 </defs>
 <g id="Слой_x0020_1">
  <metadata id="CorelCorpID_0Corel-Layer"/>
  <path class="fil0" d="M83.08 159.61l403.74 0c46.5,0 84.54,38.05 84.54,84.54l0 15.59 -572.82 0 0 -15.59c0,-46.49 38.04,-84.54 84.54,-84.54zm211.45 187.36c51.24,0 89.87,11.7 115.89,35.1 26.03,23.4 39.04,55.07 39.04,95.01 0,39.14 -12.31,71.62 -36.92,97.44 -24.61,25.82 -57.9,38.73 -99.85,38.73l-85.94 0 0 140.4 -58.1 0 0 -406.68 125.88 0zm18.76 208.18c23,0 41.76,-6.15 56.28,-18.46 14.53,-12.3 21.79,-30.96 21.79,-55.98 0,-25.01 -7.87,-43.87 -23.6,-56.58 -15.74,-12.71 -35.1,-19.06 -58.1,-19.06l-82.91 0 0 150.08 86.54 0zm-39.63 -465.58l19.59 0 21.55 0c5.39,0 9.79,4.41 9.79,9.79 0,5.39 -4.4,9.8 -9.79,9.8l-21.55 0 0 29.14 -19.59 0 0 -29.14 -22.62 0c-5.39,0 -9.8,-4.41 -9.8,-9.8 0,-5.38 4.41,-9.79 9.8,-9.79l22.62 0zm162.35 -24.6l29.18 0 0 71.34 -29.18 0 0 -71.34zm-327.5 0l29.18 0 0 71.34 -29.18 0 0 -71.34zm-29.19 -57.84l415.06 0 0 35.38 -415.06 0 0 -35.38zm33.15 965.47l344.96 0 0 4.92c0,17.24 -14.11,31.35 -31.35,31.35l-282.26 0c-17.24,0 -31.35,-14.11 -31.35,-31.35l0 -4.92zm458.89 -688.73l0 539.78 -572.82 0 0 -539.78 572.82 0zm0 563.9l0 16.21c0,46.5 -38.04,84.54 -84.54,84.54l-403.74 0c-46.5,0 -84.54,-38.04 -84.54,-84.54l0 -16.21 572.82 0z"/>
 </g>
</svg>
