<?xml version="1.0" encoding="UTF-8"?>
<!DOCTYPE svg PUBLIC "-//W3C//DTD SVG 1.1//EN" "http://www.w3.org/Graphics/SVG/1.1/DTD/svg11.dtd">
<!-- Creator: CorelDRAW -->
<svg xmlns="http://www.w3.org/2000/svg" xml:space="preserve" width="210mm" height="297mm" version="1.1" style="shape-rendering:geometricPrecision; text-rendering:geometricPrecision; image-rendering:optimizeQuality; fill-rule:evenodd; clip-rule:evenodd"
viewBox="0 0 21000 29700"
 xmlns:xlink="http://www.w3.org/1999/xlink"
 xmlns:xodm="http://www.corel.com/coreldraw/odm/2003">
 <defs>
  <style type="text/css">
   <![CDATA[
    .str0 {stroke:#93BAB3;stroke-width:200;stroke-miterlimit:22.9256}
    .fil0 {fill:none}
   ]]>
  </style>
 </defs>
 <g id="Слой_x0020_1">
  <metadata id="CorelCorpID_0Corel-Layer"/>
  <polygon class="fil0 str0" points="1316.04,15968.36 1626.96,16031.11 2328.52,16738.33 2118.81,17738.46 1386.5,18499.66 1017.25,20868.93 976.7,22254.89 1418.44,23213.06 951.67,23866.09 1208.67,24610.41 2474.97,24928.96 3491.58,25226.45 4017.64,24790.89 5730.2,24318.47 6644.59,24173.43 7297.45,25492.17 8208.04,26057.7 8860.56,26862.17 9321.72,26862.17 10864.27,26295.45 11123.65,25646.84 11809.41,26106.29 12712.3,25984.65 14455.95,26358.08 15250.96,25509.45 15125.35,24786.82 15073.64,22727.38 15506.26,21149.32 17593.9,18860.01 17755.58,16712.28 19540.35,15795.29 19941.37,13504.22 19873.52,12563.79 19070.3,11980.98 18133.89,11243.97 17380.22,9683.41 16834.06,8915.07 16653.97,6438.14 17628.56,4807.36 17095.59,4052.05 16701.14,3173.85 16440.92,2961.03 16089.8,2844.82 15310.93,3044.11 14015.58,3163.83 12729.74,3040.76 12058.53,2924.78 11518.54,3852.7 12347.02,5267.21 12182.27,5665.62 10681.18,5389.03 10087.61,5477.37 9663.94,6364.41 9673.35,7775.69 7756.45,8275.13 7433.82,9018.2 7651.91,10093.76 7189.51,10553.9 7104.27,11357.06 6933.24,11451.64 6036.64,11290.86 5371.04,12315.62 5276.01,13118.67 5482.26,13868.14 5131.48,14339.5 2517.56,14407.45 1389.5,15356.16 "/>
 </g>
</svg>
