<?xml version="1.0" encoding="UTF-8"?>
<!DOCTYPE svg PUBLIC "-//W3C//DTD SVG 1.1//EN" "http://www.w3.org/Graphics/SVG/1.1/DTD/svg11.dtd">
<!-- Creator: CorelDRAW -->
<svg xmlns="http://www.w3.org/2000/svg" xml:space="preserve" width="118.456mm" height="118.531mm" version="1.1" style="shape-rendering:geometricPrecision; text-rendering:geometricPrecision; image-rendering:optimizeQuality; fill-rule:evenodd; clip-rule:evenodd"
viewBox="0 0 11845.6 11853.14"
 xmlns:xlink="http://www.w3.org/1999/xlink"
 xmlns:xodm="http://www.corel.com/coreldraw/odm/2003">
 <defs>
  <style type="text/css">
   <![CDATA[
    .fil0 {fill:#0E6253}
   ]]>
  </style>
 </defs>
 <g id="Слой_x0020_1">
  <metadata id="CorelCorpID_0Corel-Layer"/>
  <path class="fil0" d="M5810.43 7108.05c41.09,-52.95 259.54,-277.83 306.73,-301.19l471.48 463.74c29.05,31.94 54,49.76 79.13,75.04l387.52 387.77c186.39,183.43 432.74,448.42 612.79,614.22l919.19 931.24c-0.02,27.14 -253.16,280.24 -299.3,301.7 -65.58,-31.02 -1664.79,-1655.77 -1869.79,-1856.14 -107.43,-104.99 -204.18,-203.69 -310.24,-309.99 -68.22,-68.38 -262.6,-246.84 -297.51,-306.39zm598.3 -594.39c37.7,-61.85 363.91,-372.97 443.52,-453.71 56.47,-57.28 405.92,-421.79 453.69,-437.41 47.46,29.73 200.15,192.97 248.04,242.53 44.44,45.98 209.86,189.39 233.17,248.03 -11.6,16.03 -3.77,6.12 -17.22,23.63 -61.23,79.76 -178.67,183.96 -257.42,273.07 -115.75,130.99 -232.36,197.6 -205.56,347.44 17.78,99.41 705.68,751.25 824.19,869.4 192.08,191.5 312.25,380.66 516.2,190.44 68.6,-63.98 420.56,-403.38 441.77,-403.24 29.74,0.21 439.64,424.98 513.03,499.2 159.42,161.19 213.88,157.79 116.88,251.65l-388.09 386.98c-44.95,45.75 -421.41,433.13 -448.57,434.58 -52.21,-18.19 -270.45,-253.65 -320.41,-304.39l-925.92 -921.83c-78.22,-79.14 -1199.41,-1184.67 -1227.3,-1246.37zm1380.61 193.83c28.01,-58.59 154.39,-176.99 197.99,-222.66l1402.48 -1479.74c171.2,-180.48 4.18,-290.55 165.16,-663 274.5,-635.13 1130.96,-784.08 1603.5,-298.02 614.47,632.04 167.58,1665.3 -660.9,1676.23 -176.12,2.32 -196.21,-7.59 -304.01,88.74 -227.17,203 -1620.93,1558.52 -1698.84,1600.59 -72.15,-25.19 -533.77,-518.51 -625.83,-605.84 -51.08,-48.45 -60.33,-50.51 -79.55,-96.3zm2454.11 -3333.4c-25.51,10.5 -210.39,40.48 -307.63,85.76 -100.15,46.64 -186.89,91.89 -265.92,146.63 -326.83,226.4 -558.37,609.08 -588.88,1036.13 -11.89,166.5 9.85,93.31 -140.56,262.46 -25.87,29.1 -169.75,191.83 -205.06,197.91 -15.05,33.74 -9.36,27.74 -39.58,61.6 -16.51,18.48 -27.53,27.51 -44.85,45.18l-245.17 259.41c-56.02,59.31 -279.21,313.95 -337.5,339.2 -30.8,-17.19 -34.07,-20.96 -61.71,-47.84l-496.68 -497.41c-74.93,-76.67 -95.28,-127.83 -242.67,-126.58 -93.24,18.52 -167.73,118.09 -222.49,172.54 -53.31,53 -160.99,175.64 -209.56,200.25 -45.43,72.07 -1198.2,1203.94 -1354.46,1362.81 -267.77,272.22 -194.11,281.29 187.68,658.75 276.1,272.97 2452.4,2484.54 2541.73,2522.71 130.07,55.58 212.49,-36.57 275.12,-99.49l1168.62 -1169.99c67.8,-66.86 126.39,-125.94 194.33,-193.34 47.11,-46.73 150.36,-171.86 211.53,-193.1l1.85 3013.24c-3.66,74.95 4.75,14.97 -29.15,40.55l-7667.73 1.26 -2.72 389.35c149.31,22.54 3017.43,5.25 3251.23,5.25l4470.84 0c156.66,0.01 253.4,23.19 332.84,-78.2 63.48,-81.03 40.42,-241.9 40.42,-358.21l0 -3669.71c0,-181.59 -22.92,-680.1 5.48,-822.53 -48.7,-14.58 -345.72,-27.93 -384.98,0.51 -20.53,21.79 -9.43,-14.38 -16.58,46.3 -1.02,8.61 -0.39,40.89 -0.29,51.44l-0.65 778.8c-73.45,-32.13 -132.14,-115.16 -179.35,-161.62 -59.41,-58.49 -109.37,-109.04 -167.77,-168.03 -24.41,-24.66 -329.96,-311.91 -324.75,-345.1l1004.54 -957.27c97.02,-91.36 366.41,6.78 755.39,-226.47 1036.83,-621.72 818.03,-2022.31 -77.45,-2436.76 -299.35,-138.55 -458.84,-149.89 -827.46,-126.39z"/>
  <path class="fil0" d="M2212.83 1197.71c269.26,-44.52 641.28,35.61 857.47,118.67 681.35,261.77 1211.12,914.83 1262.24,1682.11 35.66,535.4 -134.22,1101.96 -496.73,1478.96 -401.77,417.82 -737.62,576.01 -1316.87,649.46 -560.55,71.08 -1162.99,-208.85 -1470.89,-496.2 -357.18,-333.35 -571.59,-685.57 -650.08,-1314.82 -35.07,-281.18 37.46,-644.37 123.74,-861.65 193.45,-487.2 496.82,-800.59 923.72,-1039.08 109.28,-61.05 210.57,-100.43 348.23,-143.88 194.19,-61.29 255.64,-46.53 419.17,-73.57zm3274.92 394.42c135.3,-54.75 155.79,105.64 229.34,166.58 140.68,116.53 195.31,-16.18 315.13,21.45 52.03,16.34 89.25,68.04 88,132.99 -1.36,71.01 -40.49,87.23 -25.72,180.06 23.08,145.04 148.51,116.35 201.3,209.32 86.21,151.84 -100.35,196.76 -149.63,247.9 -116.75,121.18 13.51,243.34 -39.86,347.26 -71.29,138.81 -211.11,13.69 -327.52,49.28 -128.59,39.31 -99.63,158.17 -206.78,203.71 -140.29,59.61 -177.07,-106.68 -234.1,-160.85 -123.06,-116.87 -213.66,6.62 -327.05,-32.42 -155.41,-53.5 -37.52,-194.75 -61.6,-316.53 -26.56,-134.34 -156.67,-111.84 -201.77,-209.32 -69.04,-149.21 101.24,-185.78 156.83,-244.24 114.75,-120.67 -21.82,-244.5 40.75,-347.93 83.64,-138.26 204.65,-7.42 324.65,-47.75 139.97,-47.04 82.65,-144.71 218.03,-199.51zm190.01 -386.28c-473.63,-57.06 -474.15,146.07 -585.06,172.16 -94.73,22.28 -340.35,-13.62 -497.78,280.84 -31.04,58.05 -59.08,118.87 -62.97,189.83 -5.8,105.73 4.91,134.68 -81.67,180.08 -26.29,-31.86 -65.97,-106.29 -89.34,-141.92 -31.43,-47.91 -55.27,-83.52 -88.75,-131.42 -60.24,-86.18 -148.05,-185.18 -206.61,-245.32 -131.42,-134.95 -314.69,-284.4 -500.65,-391.78 -455.73,-263.14 -829.08,-343.59 -1466.3,-319.85l-1.12 10.75c-443,21.15 -942.65,286.27 -1218.62,505.29 -306.11,242.94 -577.93,603.9 -727.75,1004.09 -351.23,938.16 -101.25,1874.69 585.14,2558.84 578.45,576.56 1647.7,880.93 2590.15,446.86 622.49,-286.7 1006.48,-722.64 1256.04,-1340.86 95.35,-236.22 120.22,-430.06 144.56,-721.71 48.78,2.62 145.58,78.71 243.31,93.6 61.88,9.43 116.9,-5.66 158.28,25.43 33.03,24.83 50.54,51.51 97.46,82.96 154.64,103.65 375.36,126.85 553.62,25.63 32.65,-18.54 64.7,-40.52 98.21,-70.34 49.83,-44.32 37.33,-54.53 122.15,-58.71 188.61,-9.28 358.89,-98.76 446.75,-263.62 67.93,-127.48 49.51,-143.93 72.32,-290.77 14.01,-90.12 224.4,-175.13 184.66,-515.26 -22.71,-194.31 -170.89,-297.3 -182.16,-340.99 -10.58,-41.04 -6.79,-107.76 -19.45,-162.29 -53.36,-229.78 -251.39,-393.22 -475.82,-404.84 -172.81,-8.94 -63.7,-26.82 -234.92,-124.1 -33.12,-18.81 -91.97,-35.37 -113.68,-52.58z"/>
  <path class="fil0" d="M1383.49 10906.92c67.36,194.6 237.03,151.24 456.64,151.24l7520.33 0.02c268.68,0.48 308.05,-48.11 307.67,-319.18 -0.25,-175.07 -12.09,-1166.97 6.86,-1251.31l-398.5 -5.67 -1.46 1172.87c-86.54,25.41 -3562.76,8.6 -3752.26,8.6 -283.43,0 -3563.38,16.39 -3747.74,-3.74l-0.04 -4733.53 -393.35 -0.25 1.85 4980.95z"/>
  <path class="fil0" d="M8006.32 802.29c39.22,5.61 435.14,421.1 471.32,456.48l348.2 349.56c33.02,33.38 104.6,82.39 108.27,120.75 47.32,21.09 27.43,2.31 49.4,42.39 -43.94,24.52 -1036.23,24.59 -1083.52,1.14 -1.66,-2.86 -3.7,-10.68 -4.14,-9.01l-9.05 -250.56c0,-197.94 -11.25,-689.26 3.97,-825.36 44.57,12.48 95.31,71.34 115.55,114.61zm-6618.04 -671.79c-4.97,92.09 -15.9,383.82 5.09,459.2 126.54,3.2 278.77,-1.2 387.52,-2.32l1.22 -191.68 5715.17 2.43 3.64 1626c69.66,89.07 17.5,150.28 321.88,149.64 261.25,-0.55 1345.57,-17.65 1451.46,6.43l2.39 976.29 389.05 -0.04 2.47 -1153.01c-1.55,-80.68 -18.11,-89.44 -23.5,-133.03l-1773.32 -1775.52c-94.17,-93.3 -123.43,-93.01 -294.06,-92.65l-2338.86 0.02 -3488.75 -0.03c-217.39,-0.04 -263.48,-26.19 -361.4,128.27z"/>
  <path class="fil0" d="M4595.38 8146.69c-18.48,51.03 -57.45,40.17 -58.61,188.48l0.37 1292.58c0,143.93 -25.16,388.86 104.42,407.72 64.54,9.62 2.69,-0.54 34.13,7.35 15.56,3.91 15.31,5.67 33.55,9.1l1239.94 4.41c439.77,0 898.5,12.66 1335.92,-1.34l-0.99 -362.65c-263.97,-0.83 -2286.24,20.17 -2362.14,-17.91l-7.47 -1120.18c0.47,-10.03 1.18,-27.22 4.31,-36.23 12.8,-36.89 -10.56,-3.46 19.07,-26.34l976.78 -5.42 -0.3 -386.8 -1011.82 0c-194.22,-0.02 -153.72,-18.36 -307.16,47.23z"/>
  <path class="fil0" d="M1306.68 4155.11l88.04 88.04c92.14,112.78 229.98,139.74 350.35,17.71l1101.43 -1108.3c44.4,-44.4 92.62,-91.68 137.29,-133.49l692.49 -704.9c-27.35,-67.39 -197.37,-192.77 -255.67,-273.88l-1601 1583.87c-50.07,51.67 -190.59,201.17 -237.9,231.8 -90.44,-32.98 -336.52,-354.56 -452.26,-428.64 -36,11.01 -252.72,223.59 -274.79,269.45l452.02 458.34z"/>
  <path class="fil0" d="M10061.37 1196.34l0.21 1760.13 394.28 5.79c20.56,-467.13 1.46,-1172.1 1.46,-1681.81 0,-136.8 31.89,-442.96 -99.45,-452.32 -174.39,-53.05 -655.68,-25.91 -871.35,-25.92l-1 372.79 522.02 -1.42c88.04,7.9 32.93,3.67 53.83,22.76z"/>
  <path class="fil0" d="M2564.73 6910.8c220.66,20.57 1824.93,-0.56 2221.6,3.07 72.65,0.67 130.36,20.99 142.68,-38.02 7.96,-38.11 0.8,-294.96 -1.54,-349.42l-2362.11 -5.2 -0.63 389.57z"/>
  <path class="fil0" d="M4359.77 5326.4l2328.52 1.87c17.53,-75.09 15.99,-298.77 3.78,-377.81l-2338.25 4.75 5.95 371.19z"/>
  <polygon class="fil0" points="4947.13,4278.24 4951.72,4331.37 6885.65,4331 6891.11,3970.19 6840.94,3962.04 4947.76,3963.4 "/>
  <polygon class="fil0" points="3761.74,6103.26 5701.93,6103.45 5700.44,5745.19 3817.04,5744.26 3761.74,5749.99 "/>
  <polygon class="fil0" points="2570.2,9270.13 4129.12,9270.13 4127.24,8896.86 2572.62,8896.86 "/>
  <polygon class="fil0" points="2573.12,8480.12 2602.5,8480.12 4153.09,8480.12 4128.53,8480.12 4127.24,8110.93 2573.35,8110.93 "/>
  <polygon class="fil0" points="2578.07,9690.43 2572.41,10057.56 4128.87,10057.56 4127.24,9690.33 "/>
  <polygon class="fil0" points="2564.51,7699.87 3740.36,7703.21 3744.99,7310.65 2565.11,7309.98 "/>
  <path class="fil0" d="M6505.23 8890.56c-172.19,3.38 -1083.3,-19.67 -1168.57,10.38l0.4 365.02c88.5,17.49 1097.55,17.18 1163.93,-2.3l4.24 -373.1z"/>
  <polygon class="fil0" points="2571.47,6107.01 3342.26,6107.01 3340.41,5743.26 3326.11,5743.3 2576.66,5743.3 "/>
  <polygon class="fil0" points="4153.09,7679.17 4902.59,7679.17 4902.54,7323.68 4163.07,7323.68 "/>
  <path class="fil0" d="M4641.56 10035.47c26.14,69.89 245.77,38 312.66,38 325.83,0 2232.99,15.53 2349.54,-7.77l-1.53 -369.96c-0.88,-2.99 -3.54,-7.14 -4.38,-9.45 -15.1,-41.36 -1039.96,-15.78 -1167.77,-15.78 -388.4,0 -795.15,-11.68 -1181.25,1.3 -44.82,-33.71 -17.32,-226.59 -17.32,-289.57 0,-99.07 0,-198.13 0,-297.19 0,-148.6 -16.99,-464.46 6.37,-593.37 -29.63,22.88 -6.27,-10.55 -19.07,26.34 -3.13,9.01 -3.84,26.2 -4.31,36.23l7.47 1120.18c75.9,38.08 2098.17,17.08 2362.14,17.91l0.99 362.65c-437.42,14 -896.15,1.34 -1335.92,1.34l-1239.94 -4.41c-18.24,-3.43 -17.99,-5.19 -33.55,-9.1 -31.44,-7.89 30.41,2.27 -34.13,-7.35z"/>
  <path class="fil0" d="M3761.74 5749.99l55.3 -5.73 1883.4 0.93 1.49 358.26 -1940.19 -0.19 0 -353.27zm-18.98 40.07c0,345.85 -26.68,337.15 74.37,337.15l1860.7 0c47.86,0 45.68,-18.18 45.68,-65.8l0 -271.35c0,-48.73 4.22,-67.38 -45.68,-67.38l-1860.7 0c-73.27,0 -74.37,-6.41 -74.37,67.38z"/>
  <path class="fil0" d="M4947.76 3963.4l1893.18 -1.36 50.17 8.15 -5.46 360.81 -1933.93 0.37 -4.59 -53.13 0.63 -314.84zm-25.03 43.49c0,312.17 -30.65,344.14 70.25,344.14l1846.17 0c73.46,0 73.63,-1.64 73.63,-72.79l-3.8 -323.2c-61.93,-25.21 -1500.81,-10.87 -1799.71,-11.31 -92.76,-0.14 -186.54,-32.26 -186.54,63.16z"/>
  <path class="fil0" d="M4595.38 8146.69c153.44,-65.59 112.94,-47.25 307.16,-47.23l1011.82 0 0.3 386.8 -976.78 5.42c-23.36,128.91 -6.37,444.77 -6.37,593.37 0,99.06 0,198.12 0,297.19 0,62.98 -27.5,255.86 17.32,289.57l0 -1169.27c137.49,0 910.12,16.97 976.06,-11.88 24.74,-74.69 21.09,-326.5 0.31,-405.76 -55.66,-11.14 -1020.74,-20.55 -1191.24,-7.46 -34.21,2.63 -55.03,6.64 -82.96,18.37 -59.37,24.91 -40.15,6.72 -55.62,50.88z"/>
  <path class="fil0" d="M4359.77 5326.4l-5.95 -371.19 2338.25 -4.75c12.21,79.04 13.75,302.72 -3.78,377.81 35.45,-20.45 12.62,16.28 25.46,-41.74l-9.6 -353.81c-171,-20.88 -2326.93,-8 -2355.39,6.2 -32.47,26.8 -16.41,239.78 -17.31,295.81 -1.47,92.02 4.94,75.45 28.32,91.67z"/>
  <path class="fil0" d="M4127.24 9690.33l1.63 367.23 -1556.46 0 5.66 -367.13 1549.17 -0.1zm-1565.12 379.44l1579.12 4.75c9.42,-80.69 14.55,-336.69 -4.92,-401.69l-1568.96 -2.81c-20.07,67.92 -14.6,324.03 -5.24,399.75z"/>
  <path class="fil0" d="M2573.35 8110.93l1553.89 0 1.29 369.19 24.56 0 -1550.59 0 -29.38 0 0.23 -369.19zm-11.37 381.49l1579.49 4.57c8.89,-84.04 14.73,-333.97 -4.82,-402.39l-1569.69 -3.54c-19.97,72.04 -14,322.16 -4.98,401.36z"/>
  <path class="fil0" d="M2572.62 8896.86l1554.62 0 1.88 373.27 -1558.92 0 2.42 -373.27zm-10.98 384.27l1580.09 4.57c9.18,-81.81 15.76,-337.03 -5.15,-401.32l-1569.65 -2.92c-21.38,68.15 -14.49,322.15 -5.29,399.67z"/>
  <path class="fil0" d="M8934.11 1729.08c3.08,38.66 19.22,18.53 -12.98,33.14l-1011.1 0 -0.25 -1042.29c18.36,22.52 21.49,31.34 38.01,47.46 37.48,36.55 12.37,17.5 58.53,34.9 -20.24,-43.27 -70.98,-102.13 -115.55,-114.61 -15.22,136.1 -3.97,627.42 -3.97,825.36l9.05 250.56c0.44,-1.67 2.48,6.15 4.14,9.01 47.29,23.45 1039.58,23.38 1083.52,-1.14 -21.97,-40.08 -2.08,-21.3 -49.4,-42.39z"/>
  <path class="fil0" d="M2576.66 5743.3l749.45 0 14.3 -0.04 1.85 363.75 -770.79 0 5.19 -363.71zm-15.13 -17.79c-9.22,86.79 -13.55,319.97 3.66,400.67 52.58,6.21 720.75,16.86 780.83,-5.77 25.59,-65.75 19.15,-329.01 -1.14,-410.44 -135.78,43.11 -666.07,-27.38 -783.35,15.54z"/>
  <path class="fil0" d="M6505.23 8890.56l-4.24 373.1c-66.38,19.48 -1075.43,19.79 -1163.93,2.3l-0.4 -365.02c85.27,-30.05 996.38,-7 1168.57,-10.38zm0 0c-45.54,-27.07 -524.71,-12.91 -581.9,-12.91 -141.02,0 -484.06,-16.91 -601.8,7.67 -15.08,56.77 -16.56,347.14 4,396.74 86.54,12.44 1143.45,11.09 1189.06,-3.19 17.94,-62.47 9.02,-213.22 10.24,-297.29 1.05,-71.66 5.34,-69.91 -19.6,-91.02z"/>
  <path class="fil0" d="M4163.07 7323.68l739.47 0 0.05 355.49 -749.5 0 9.98 -355.49zm763.54 365.9l4.72 -368.2c-75.75,-20.45 -712.85,-23.07 -783.01,-0.94 -6.16,71.04 -12.82,315.31 5.08,368.35 48.03,18.43 701.59,17.36 773.21,0.79z"/>
  <path class="fil0" d="M9476.17 1195.56l585.2 0.78c-20.9,-19.09 34.21,-14.86 -53.83,-22.76l-522.02 1.42 1 -372.79c215.67,0.01 696.96,-27.13 871.35,25.92l-2.52 -23.97c-136.01,-40.58 -579.53,-19.34 -775.25,-21.28 -41.66,-0.41 -88.4,-6.29 -107.74,17.57 -24.59,63.56 -18.3,338.22 3.81,395.11z"/>
  <path class="fil0" d="M4926.61 7689.58c-71.62,16.57 -725.18,17.64 -773.21,-0.79 -17.9,-53.04 -11.24,-297.31 -5.08,-368.35 70.16,-22.13 707.26,-19.51 783.01,0.94 -8.22,-16.34 6.87,-30.51 -80.14,-30.94 -139.29,-0.71 -656.36,-12.58 -715.78,17.73 -12.1,73.74 -22.35,343.89 7.43,391.59 30.62,30.84 575.6,11.53 695.34,13.2 83.41,1.17 70.64,1.44 88.43,-23.38z"/>
  <path class="fil0" d="M1780.89 587.38c-108.75,1.12 -260.98,5.52 -387.52,2.32 -20.99,-75.38 -10.06,-367.11 -5.09,-459.2 -11.33,12.15 -24.03,-14.76 -25.8,102.83 -4.96,330.74 -37.29,379.29 102.69,378.58l220.02 -0.1c48.18,0.3 77.41,10.3 95.7,-24.43z"/>
  <path class="fil0" d="M1394.72 4243.15l-88.04 -88.04c22.54,46.7 41.34,65.5 88.04,88.04z"/>
 </g>
</svg>
