<?xml version="1.0" encoding="UTF-8"?>
<!DOCTYPE svg PUBLIC "-//W3C//DTD SVG 1.1//EN" "http://www.w3.org/Graphics/SVG/1.1/DTD/svg11.dtd">
<!-- Creator: CorelDRAW -->
<svg xmlns="http://www.w3.org/2000/svg" xml:space="preserve" width="47.098mm" height="47.9566mm" version="1.1" style="shape-rendering:geometricPrecision; text-rendering:geometricPrecision; image-rendering:optimizeQuality; fill-rule:evenodd; clip-rule:evenodd"
viewBox="0 0 4709.8 4795.66"
 xmlns:xlink="http://www.w3.org/1999/xlink"
 xmlns:xodm="http://www.corel.com/coreldraw/odm/2003">
 <defs>
  <style type="text/css">
   <![CDATA[
    .fil4 {fill:#FEFEFE}
    .fil3 {fill:#F49B4D}
    .fil2 {fill:#EF7F1A}
    .fil0 {fill:#4696D3}
    .fil1 {fill:#4D65A3}
   ]]>
  </style>
 </defs>
 <g id="Слой_x0020_1">
  <metadata id="CorelCorpID_0Corel-Layer"/>
  <g id="_2122148760496">
   <path class="fil0" d="M1025.33 409.49c892.1,-585.79 2041.02,-532.84 2873.43,98.23l-1506.2 1992.59c-1367.23,-2090.82 -0.01,0 -1367.23,-2090.82z"/>
   <path class="fil1" d="M1078.33 490.26c-738.58,438.06 -1285.6,1484.15 -1015.26,2561l2329.48 -550.95c-1314.22,-2010.05 0,0 -1314.22,-2010.05z"/>
   <path class="fil2" d="M151.08 3030.44c274.62,1067.87 1168.4,1701.23 2133.41,1765.75 109.44,-2325 -1.37,29.12 108.06,-2295.88 -1323.68,313.06 -737.38,174.39 -2241.47,530.13z"/>
   <path class="fil3" d="M2293.65 4601.42c862.79,13.1 1680.25,-413.97 2066.23,-1355.23 -1967.32,-745.88 0,0 -1967.32,-745.88 -98.91,2101.11 -0.01,0 -98.91,2101.11z"/>
   <path class="fil2" d="M2392.55 2500.31c473.69,-625.57 904.23,-1207.96 1377.92,-1833.55 531.72,382.81 1251.32,1499.59 778.26,2660.89l-2156.18 -827.34z"/>
   <circle class="fil4" cx="2392.55" cy="2500.32" r="513.08"/>
  </g>
 </g>
</svg>
