<?xml version="1.0" encoding="UTF-8"?>
<!DOCTYPE svg PUBLIC "-//W3C//DTD SVG 1.1//EN" "http://www.w3.org/Graphics/SVG/1.1/DTD/svg11.dtd">
<!-- Creator: CorelDRAW -->
<svg xmlns="http://www.w3.org/2000/svg" xml:space="preserve" width="201.438mm" height="203.26mm" version="1.1" style="shape-rendering:geometricPrecision; text-rendering:geometricPrecision; image-rendering:optimizeQuality; fill-rule:evenodd; clip-rule:evenodd"
viewBox="0 0 20143.84 20326.04"
 xmlns:xlink="http://www.w3.org/1999/xlink"
 xmlns:xodm="http://www.corel.com/coreldraw/odm/2003">
 <defs>
  <style type="text/css">
   <![CDATA[
    .str0 {stroke:#93BAB3;stroke-width:100;stroke-miterlimit:22.9256}
    .fil0 {fill:none}
   ]]>
  </style>
 </defs>
 <g id="Слой_x0020_1">
  <metadata id="CorelCorpID_0Corel-Layer"/>
  <polygon class="fil0 str0" points="1477.85,658.43 1013.07,1166.99 1051.15,1915.87 282.37,2110.1 49.9,2766.95 1269.96,6965.1 1193.31,7470 966.44,9108.89 2076.61,9961.21 1682.18,11375.33 2009.69,12938.65 3355.77,13020.68 3946.52,14211.69 4688.41,14544.04 4518.76,15621.13 5268.13,16581.13 6055.41,16704.3 6960.76,16305.79 7612.82,16656.16 8277.04,16721.03 8559.91,16792.62 7602.49,18364.01 7801.45,20196.98 8365.41,20274.97 9188.03,19877.69 9551.69,19680.46 10615.39,19350.15 13598.8,19692.07 14050.83,19755.38 16054.62,20032.06 17542.81,20010.33 18532.23,19597.95 18675.94,18542.69 18682.29,16235.49 19593.93,16428.86 20201.73,15545.83 20071.4,14486.01 19457.58,14256.01 18859.84,14597.72 18336.65,14966.97 18327.19,14690.45 18594.89,14434.75 18259.85,13514.61 17566.74,13212.32 17448.2,12772.83 17751.83,11842.2 17665.66,11297.12 16449.37,10998.06 15432.25,11417.87 14221.71,11668.25 13095.52,11430.89 13541.68,10186.63 14542.18,7804.18 15352.43,6960.04 15346.62,6230.9 14962.26,6001.93 12664.84,4514.01 13700.57,3681.81 13580.3,2601.93 13184.1,1216.85 12162.36,1565.82 11884.5,158.86 10181.7,51.07 8643.44,336.14 6960.54,414.99 3745.57,721.95 2009.96,646.06 "/>
 </g>
</svg>
