<?xml version="1.0" encoding="UTF-8"?>
<!DOCTYPE svg PUBLIC "-//W3C//DTD SVG 1.1//EN" "http://www.w3.org/Graphics/SVG/1.1/DTD/svg11.dtd">
<!-- Creator: CorelDRAW -->
<svg xmlns="http://www.w3.org/2000/svg" xml:space="preserve" width="221.495mm" height="264.11mm" version="1.1" style="shape-rendering:geometricPrecision; text-rendering:geometricPrecision; image-rendering:optimizeQuality; fill-rule:evenodd; clip-rule:evenodd"
viewBox="0 0 22149.48 26411.04"
 xmlns:xlink="http://www.w3.org/1999/xlink"
 xmlns:xodm="http://www.corel.com/coreldraw/odm/2003">
 <defs>
  <style type="text/css">
   <![CDATA[
    .str0 {stroke:#93BAB3;stroke-width:200;stroke-miterlimit:22.9256}
    .fil0 {fill:none}
   ]]>
  </style>
 </defs>
 <g id="Слой_x0020_1">
  <metadata id="CorelCorpID_0Corel-Layer"/>
  <polygon class="fil0 str0" points="16075.82,10940.54 15481.88,10164.75 14532.97,10079.1 13554.77,9590.86 13560.12,9168.94 14753.98,8291.19 16994.03,5591.31 17748.11,5485.04 18592.56,5343.09 18969.44,4898.16 18514.13,4398.39 18582.07,4003.53 21677.12,2287.93 21694.47,2246.89 21853.3,997.66 21720.44,941.05 20506.74,251.69 19607.95,233.82 19210.55,559.23 19101.37,971.02 18762.25,1118.22 17870.79,1160.4 17175.82,1351.49 16973.88,2144.31 16970.45,2753.63 16770.11,3179.23 16497.94,3304.15 15943.27,2941.55 14989.38,2944.98 14192.76,3157.94 13655.9,3444.18 13193,4490.17 12726.21,5376.17 12423.19,5960.35 11961.23,6613.87 11189.28,7169.07 8860.41,7809.6 7292.78,8838.39 5982.42,10675.85 5132.93,10942.51 4100.61,11100.15 2759.54,11904.25 2293.43,12352.4 2246.21,13331.06 2581.13,14605.02 353.8,16840.71 125.21,17776.78 216.52,17909.91 779.04,18711.72 1129.49,19125.89 1477.85,19526.36 3118.61,20993.37 3725.49,21494.29 4083.15,22566.71 4013.5,25623.22 4063.52,26023.74 4310.39,26251.34 5488.52,26265.11 6377.95,26224.8 6559.54,25989.25 6554.24,25435.15 6583.22,24987.1 6315.88,23368.94 6099.44,22477.48 5579.57,22250.65 5539.21,22109.06 5831.58,21680.76 6234.85,21447.65 6301.23,20445.97 6675.99,19262.91 7263.54,18972.57 7930.57,19977.2 8389.05,20185.49 9169.3,20687.65 10133.01,20688.33 11126.64,19574.87 11749.51,19120.91 13172.38,18503.28 14680.95,17541.75 15325.02,16965.26 15451.23,15748.44 16519.66,15805.47 16855.97,14916.97 16485.22,14158.85 16286.65,13161.69 15570.96,12781.22 15748.7,11518.17 "/>
 </g>
</svg>
