<?xml version="1.0" encoding="UTF-8"?>
<!DOCTYPE svg PUBLIC "-//W3C//DTD SVG 1.1//EN" "http://www.w3.org/Graphics/SVG/1.1/DTD/svg11.dtd">
<!-- Creator: CorelDRAW -->
<svg xmlns="http://www.w3.org/2000/svg" xml:space="preserve" width="221.495mm" height="264.11mm" version="1.1" style="shape-rendering:geometricPrecision; text-rendering:geometricPrecision; image-rendering:optimizeQuality; fill-rule:evenodd; clip-rule:evenodd;max-height: 45rem;"
viewBox="0 0 22149.48 26411.04"
 xmlns:xlink="http://www.w3.org/1999/xlink"
 xmlns:xodm="http://www.corel.com/coreldraw/odm/2003">
 <defs>
  <style type="text/css">
   <![CDATA[
    .str0 {stroke:#93BAB3;stroke-width:200;stroke-miterlimit:22.9256}
    .str1 {stroke:#25695C;stroke-width:75;stroke-linecap:round;stroke-linejoin:round;stroke-miterlimit:22.9256}
    .fil0 {fill:none}
   ]]>
  </style>
 </defs>
 <g id="Слой_x0020_1">
  <metadata id="CorelCorpID_0Corel-Layer"/>
  <path class="fil0 str0" d="M15725.64 10926.26c-371.28,-606.52 -205.01,-814.38 -1192.67,-847.16 -780.31,-25.92 -1203.99,20.99 -1242.68,-816.3 211.24,-223.71 1138.54,-728.31 1463.69,-971.61 1633.17,-1221.9 1373.94,-1730.3 2240.05,-2699.88 235.24,-263.34 297.21,-405.03 800.1,-412.98 1462.44,-23.06 892.08,-585.27 787.94,-1174.8 1600.97,-1345.21 2832.13,-856.19 3095.05,-1715.6l17.35 -41.04c132.91,-335.12 608.22,-1055.02 158.83,-1249.23l-132.86 -56.61c-389.97,-87.63 -768.93,-503.46 -1213.7,-689.36 -258.25,-131.1 -622.36,-253.42 -898.79,-17.87 -348.47,296.9 -31.53,519.62 -408.82,712.94l-97.76 24.26 -1230.58 189.38 -170.62 -14.08c-611.19,-40.88 -721.15,383.17 -726.29,997.99 -5.82,248.48 -5.35,408.77 -3.43,609.32 34.23,419 -117.44,691.43 -309.36,657.21 -849.34,30.17 -1035.7,-660.02 -1671.71,-465.86 -1456.17,444.46 -1023.5,1239.93 -2051.46,2413.53 -194.62,222.2 -295.28,351.8 -514.73,601.84 -173.85,198.05 -286.25,438.17 -461.96,653.52 -573.54,702.81 -2115.71,991.03 -3018.55,1442.6 -2853.11,1427.08 -2588.62,2255.17 -2960.26,2619.38 -291.49,285.57 -513.28,69.19 -849.49,266.66 -281.99,165.59 -201.53,313 -721.25,407.9 -1055.34,192.75 -1550.23,995.29 -1305.07,1922.53 239.09,904.08 181.12,924.71 -525.48,1332.08 -1190.12,686.08 -1642.53,914.88 -2227.33,2235.69 -65.44,147.82 -181.48,881.28 -228.59,936.07 52.67,60.25 9.56,2.7 91.31,133.13 212.39,338.65 138.11,339.74 562.52,801.81 149.85,163.14 235.86,219.29 402.91,392.31 156.75,162.36 149.33,206.93 295.9,422.33l1640.76 1467.01c1818.81,1769.01 918.16,1993.86 894.89,4629.85 24,211.87 78.17,481.5 98.95,501.8 364.26,356.53 1056.01,81.55 1376.07,140.09 750.02,137.23 1197.23,-44.31 1065.72,-829.96 -24.67,-206.31 25.76,-246.88 28.98,-448.05 284.95,-667.54 -189.27,-793.08 -267.34,-1618.16 -31.37,-331.12 -72.3,-630.72 -216.44,-891.46 -190.88,-345.3 -823.93,-328.89 -567.4,-544.7l299.54 -252.02c135.83,-77.24 281.63,-120.92 403.27,-233.11 344.27,-317.72 155.62,-580.13 66.38,-1001.68 -133.69,-631.24 14.96,-1752.53 824.98,-1473.4 764.57,263.44 784.15,781.81 1262.84,1212.92l780.25 502.16c848.82,422.96 1050.3,-884.08 2224.78,-1412.43 723.8,-325.61 1073,-347.58 1778.3,-771.94 534.84,-321.77 1023.18,-615.29 1508.57,-961.53 798.33,-569.53 716.16,-577.37 770.28,-1793.31 60.83,-299.44 655.29,227.4 1068.43,57.03 100.76,-312.58 313.82,-456.76 336.31,-888.5 27.58,-528.18 -167.09,-476.61 -370.75,-758.12 -256.12,-353.93 -52.83,-673.52 -198.57,-997.16 -131,-290.87 -419.11,-252.7 -715.69,-380.47 -47.01,-545.74 308.06,-1315.14 154.68,-1854.96z"/>

  <path class="fil0 str1" d="M5102.29 24848.12c0,161.8 -242.66,350.53 -242.66,350.53 0,0 -242.67,-188.73 -242.67,-350.53 0,-132.17 110.49,-242.66 242.67,-242.66 132.17,0 242.66,110.49 242.66,242.66zm-242.66 80.9c44.67,0 80.89,-36.22 80.89,-80.9 0,-44.67 -36.22,-80.87 -80.89,-80.87 -44.68,0 -80.9,36.2 -80.9,80.87 0,44.68 36.22,80.9 80.9,80.9z"/>
  <path class="fil0 str1" d="M6010.04 23129.23c0,161.8 -242.66,350.53 -242.66,350.53 0,0 -242.67,-188.73 -242.67,-350.53 0,-132.17 110.49,-242.66 242.67,-242.66 132.17,0 242.66,110.49 242.66,242.66zm-242.66 80.9c44.67,0 80.89,-36.22 80.89,-80.9 0,-44.67 -36.22,-80.87 -80.89,-80.87 -44.68,0 -80.9,36.2 -80.9,80.87 0,44.68 36.22,80.9 80.9,80.9z"/>
  <path class="fil0 str1" d="M5571.73 21441.71c0,161.8 -242.66,350.53 -242.66,350.53 0,0 -242.67,-188.73 -242.67,-350.53 0,-132.17 110.49,-242.66 242.67,-242.66 132.17,0 242.66,110.49 242.66,242.66zm-242.66 80.9c44.67,0 80.89,-36.22 80.89,-80.9 0,-44.67 -36.22,-80.87 -80.89,-80.87 -44.68,0 -80.9,36.2 -80.9,80.87 0,44.68 36.22,80.9 80.9,80.9z"/>
  <path class="fil0 str1" d="M2802.19 19326.83c0,161.8 -242.66,350.53 -242.66,350.53 0,0 -242.67,-188.73 -242.67,-350.53 0,-132.17 110.49,-242.66 242.67,-242.66 132.17,0 242.66,110.49 242.66,242.66zm-242.66 80.9c44.67,0 80.89,-36.22 80.89,-80.9 0,-44.67 -36.22,-80.87 -80.89,-80.87 -44.68,0 -80.9,36.2 -80.9,80.87 0,44.68 36.22,80.9 80.9,80.9z"/>
  <path class="fil0 str1" d="M1524.27 17240.43c0,161.8 -242.66,350.53 -242.66,350.53 0,0 -242.67,-188.73 -242.67,-350.53 0,-132.17 110.49,-242.66 242.67,-242.66 132.17,0 242.66,110.49 242.66,242.66zm-242.66 80.9c44.67,0 80.89,-36.22 80.89,-80.9 0,-44.67 -36.22,-80.87 -80.89,-80.87 -44.68,0 -80.9,36.2 -80.9,80.87 0,44.68 36.22,80.9 80.9,80.9z"/>
  <path class="fil0 str1" d="M3193.39 15597.38c0,161.8 -242.66,350.53 -242.66,350.53 0,0 -242.67,-188.73 -242.67,-350.53 0,-132.17 110.49,-242.66 242.67,-242.66 132.17,0 242.66,110.49 242.66,242.66zm-242.66 80.9c44.67,0 80.89,-36.22 80.89,-80.9 0,-44.67 -36.22,-80.87 -80.89,-80.87 -44.68,0 -80.9,36.2 -80.9,80.87 0,44.68 36.22,80.9 80.9,80.9z"/>
  <path class="fil0 str1" d="M4286.1 16794.44c0,161.8 -242.66,350.53 -242.66,350.53 0,0 -242.67,-188.73 -242.67,-350.53 0,-132.17 110.49,-242.66 242.67,-242.66 132.17,0 242.66,110.49 242.66,242.66zm-242.66 80.9c44.67,0 80.89,-36.22 80.89,-80.9 0,-44.67 -36.22,-80.87 -80.89,-80.87 -44.68,0 -80.9,36.2 -80.9,80.87 0,44.68 36.22,80.9 80.9,80.9z"/>
  <path class="fil0 str1" d="M6683.07 15919.9c0,161.8 -242.66,350.53 -242.66,350.53 0,0 -242.67,-188.73 -242.67,-350.53 0,-132.17 110.49,-242.66 242.67,-242.66 132.17,0 242.66,110.49 242.66,242.66zm-242.66 80.9c44.67,0 80.89,-36.22 80.89,-80.9 0,-44.67 -36.22,-80.87 -80.89,-80.87 -44.68,0 -80.9,36.2 -80.9,80.87 0,44.68 36.22,80.9 80.9,80.9z"/>
  <path class="fil0 str1" d="M5618.84 14548.89c0,161.8 -242.66,350.53 -242.66,350.53 0,0 -242.67,-188.73 -242.67,-350.53 0,-132.17 110.49,-242.66 242.67,-242.66 132.17,0 242.66,110.49 242.66,242.66zm-242.66 80.9c44.67,0 80.89,-36.22 80.89,-80.9 0,-44.67 -36.22,-80.87 -80.89,-80.87 -44.68,0 -80.9,36.2 -80.9,80.87 0,44.68 36.22,80.9 80.9,80.9z"/>
  <path class="fil0 str1" d="M5310.93 12730.98c0,161.8 -242.66,350.53 -242.66,350.53 0,0 -242.67,-188.73 -242.67,-350.53 0,-132.17 110.49,-242.66 242.67,-242.66 132.17,0 242.66,110.49 242.66,242.66zm-242.66 80.9c44.67,0 80.89,-36.22 80.89,-80.9 0,-44.67 -36.22,-80.87 -80.89,-80.87 -44.68,0 -80.9,36.2 -80.9,80.87 0,44.68 36.22,80.9 80.9,80.9z"/>

  <path class="fil0 str1" d="M8200.76 10120.56c0,161.8 -242.66,350.53 -242.66,350.53 0,0 -242.67,-188.73 -242.67,-350.53 0,-132.17 110.49,-242.66 242.67,-242.66 132.17,0 242.66,110.49 242.66,242.66zm-242.66 80.9c44.67,0 80.89,-36.22 80.89,-80.9 0,-44.67 -36.22,-80.87 -80.89,-80.87 -44.68,0 -80.9,36.2 -80.9,80.87 0,44.68 36.22,80.9 80.9,80.9z"/>
  <path class="fil0 str1" d="M10358.41 10546.69c0,161.8 -242.66,350.53 -242.66,350.53 0,0 -242.67,-188.73 -242.67,-350.53 0,-132.17 110.49,-242.66 242.67,-242.66 132.17,0 242.66,110.49 242.66,242.66zm-242.66 80.9c44.67,0 80.89,-36.22 80.89,-80.9 0,-44.67 -36.22,-80.87 -80.89,-80.87 -44.68,0 -80.9,36.2 -80.9,80.87 0,44.68 36.22,80.9 80.9,80.9z"/>
  <path class="fil0 str1" d="M12067.97 10426.73c0,161.8 -242.66,350.53 -242.66,350.53 0,0 -242.67,-188.73 -242.67,-350.53 0,-132.17 110.49,-242.66 242.67,-242.66 132.17,0 242.66,110.49 242.66,242.66zm-242.66 80.9c44.67,0 80.89,-36.22 80.89,-80.9 0,-44.67 -36.22,-80.87 -80.89,-80.87 -44.68,0 -80.9,36.2 -80.9,80.87 0,44.68 36.22,80.9 80.9,80.9z"/>
  <path class="fil0 str1" d="M11942.02 8001.19c0,161.8 -242.66,350.53 -242.66,350.53 0,0 -242.67,-188.73 -242.67,-350.53 0,-132.17 110.49,-242.66 242.67,-242.66 132.17,0 242.66,110.49 242.66,242.66zm-242.66 80.9c44.67,0 80.89,-36.22 80.89,-80.9 0,-44.67 -36.22,-80.87 -80.89,-80.87 -44.68,0 -80.9,36.2 -80.9,80.87 0,44.68 36.22,80.9 80.9,80.9z"/>
  <path class="fil0 str1" d="M13262.4 6274.34c0,161.8 -242.66,350.53 -242.66,350.53 0,0 -242.67,-188.73 -242.67,-350.53 0,-132.17 110.49,-242.66 242.67,-242.66 132.17,0 242.66,110.49 242.66,242.66zm-242.66 80.9c44.67,0 80.89,-36.22 80.89,-80.9 0,-44.67 -36.22,-80.87 -80.89,-80.87 -44.68,0 -80.9,36.2 -80.9,80.87 0,44.68 36.22,80.9 80.9,80.9z"/>
  <path class="fil0 str1" d="M16418.58 5322.77c0,161.8 -242.66,350.53 -242.66,350.53 0,0 -242.67,-188.73 -242.67,-350.53 0,-132.17 110.49,-242.66 242.67,-242.66 132.17,0 242.66,110.49 242.66,242.66zm-242.66 80.9c44.67,0 80.89,-36.22 80.89,-80.9 0,-44.67 -36.22,-80.87 -80.89,-80.87 -44.68,0 -80.9,36.2 -80.9,80.87 0,44.68 36.22,80.9 80.9,80.9z"/>
  <path class="fil0 str1" d="M17677.99 3091.11c0,161.8 -242.66,350.53 -242.66,350.53 0,0 -242.67,-188.73 -242.67,-350.53 0,-132.17 110.49,-242.66 242.67,-242.66 132.17,0 242.66,110.49 242.66,242.66zm-242.66 80.9c44.67,0 80.89,-36.22 80.89,-80.9 0,-44.67 -36.22,-80.87 -80.89,-80.87 -44.68,0 -80.9,36.2 -80.9,80.87 0,44.68 36.22,80.9 80.9,80.9z"/>
  <path class="fil0 str1" d="M20113.34 2546.44c0,161.8 -242.66,350.53 -242.66,350.53 0,0 -242.67,-188.73 -242.67,-350.53 0,-132.17 110.49,-242.66 242.67,-242.66 132.17,0 242.66,110.49 242.66,242.66zm-242.66 80.9c44.67,0 80.89,-36.22 80.89,-80.9 0,-44.67 -36.22,-80.87 -80.89,-80.87 -44.68,0 -80.9,36.2 -80.9,80.87 0,44.68 36.22,80.9 80.9,80.9z"/>
  <path class="fil0 str1" d="M14494.08 7918.87c0,161.8 -242.66,350.53 -242.66,350.53 0,0 -242.67,-188.73 -242.67,-350.53 0,-132.17 110.49,-242.66 242.67,-242.66 132.17,0 242.66,110.49 242.66,242.66zm-242.66 80.9c44.67,0 80.89,-36.22 80.89,-80.9 0,-44.67 -36.22,-80.87 -80.89,-80.87 -44.68,0 -80.9,36.2 -80.9,80.87 0,44.68 36.22,80.9 80.9,80.9z"/>
  <path class="fil0 str1" d="M14081.48 10677.83c0,161.8 -242.66,350.53 -242.66,350.53 0,0 -242.67,-188.73 -242.67,-350.53 0,-132.17 110.49,-242.66 242.67,-242.66 132.17,0 242.66,110.49 242.66,242.66zm-242.66 80.9c44.67,0 80.89,-36.22 80.89,-80.9 0,-44.67 -36.22,-80.87 -80.89,-80.87 -44.68,0 -80.9,36.2 -80.9,80.87 0,44.68 36.22,80.9 80.9,80.9z"/>

  <path class="fil0 str1" d="M15820.64 14247.67c0,161.8 -242.66,350.53 -242.66,350.53 0,0 -242.67,-188.73 -242.67,-350.53 0,-132.17 110.49,-242.66 242.67,-242.66 132.17,0 242.66,110.49 242.66,242.66zm-242.66 80.9c44.67,0 80.89,-36.22 80.89,-80.9 0,-44.67 -36.22,-80.87 -80.89,-80.87 -44.68,0 -80.9,36.2 -80.9,80.87 0,44.68 36.22,80.9 80.9,80.9z"/>
  <path class="fil0 str1" d="M12189.77 17695.47c0,161.8 -242.66,350.53 -242.66,350.53 0,0 -242.67,-188.73 -242.67,-350.53 0,-132.17 110.49,-242.66 242.67,-242.66 132.17,0 242.66,110.49 242.66,242.66zm-242.66 80.9c44.67,0 80.89,-36.22 80.89,-80.9 0,-44.67 -36.22,-80.87 -80.89,-80.87 -44.68,0 -80.9,36.2 -80.9,80.87 0,44.68 36.22,80.9 80.9,80.9z"/>
  <path class="fil0 str1" d="M8222.2 18181.11c0,161.8 -242.66,350.53 -242.66,350.53 0,0 -242.67,-188.73 -242.67,-350.53 0,-132.17 110.49,-242.66 242.67,-242.66 132.17,0 242.66,110.49 242.66,242.66zm-242.66 80.9c44.67,0 80.89,-36.22 80.89,-80.9 0,-44.67 -36.22,-80.87 -80.89,-80.87 -44.68,0 -80.9,36.2 -80.9,80.87 0,44.68 36.22,80.9 80.9,80.9z"/>
  <path class="fil0 str1" d="M10770.06 13727.38c0,161.8 -242.66,350.53 -242.66,350.53 0,0 -242.67,-188.73 -242.67,-350.53 0,-132.17 110.49,-242.66 242.67,-242.66 132.17,0 242.66,110.49 242.66,242.66zm-242.66 80.9c44.67,0 80.89,-36.22 80.89,-80.9 0,-44.67 -36.22,-80.87 -80.89,-80.87 -44.68,0 -80.9,36.2 -80.9,80.87 0,44.68 36.22,80.9 80.9,80.9z"/>
  <path class="fil0 str1" d="M8318.59 14172.21c0,161.8 -242.66,350.53 -242.66,350.53 0,0 -242.67,-188.73 -242.67,-350.53 0,-132.17 110.49,-242.66 242.67,-242.66 132.17,0 242.66,110.49 242.66,242.66zm-242.66 80.9c44.67,0 80.89,-36.22 80.89,-80.9 0,-44.67 -36.22,-80.87 -80.89,-80.87 -44.68,0 -80.9,36.2 -80.9,80.87 0,44.68 36.22,80.9 80.9,80.9z"/>
  <path class="fil0 str1" d="M13594.73 14746.52c0,161.8 -242.66,350.53 -242.66,350.53 0,0 -242.67,-188.73 -242.67,-350.53 0,-132.17 110.49,-242.66 242.67,-242.66 132.17,0 242.66,110.49 242.66,242.66zm-242.66 80.9c44.67,0 80.89,-36.22 80.89,-80.9 0,-44.67 -36.22,-80.87 -80.89,-80.87 -44.68,0 -80.9,36.2 -80.9,80.87 0,44.68 36.22,80.9 80.9,80.9z"/>
  <path class="fil0 str1" d="M11954.36 15633.91c0,161.8 -242.66,350.53 -242.66,350.53 0,0 -242.67,-188.73 -242.67,-350.53 0,-132.17 110.49,-242.66 242.67,-242.66 132.17,0 242.66,110.49 242.66,242.66zm-242.66 80.9c44.67,0 80.89,-36.22 80.89,-80.9 0,-44.67 -36.22,-80.87 -80.89,-80.87 -44.68,0 -80.9,36.2 -80.9,80.87 0,44.68 36.22,80.9 80.9,80.9z"/>
 </g>
</svg>
