<?xml version="1.0" encoding="UTF-8"?>
<!DOCTYPE svg PUBLIC "-//W3C//DTD SVG 1.1//EN" "http://www.w3.org/Graphics/SVG/1.1/DTD/svg11.dtd">
<!-- Creator: CorelDRAW -->
<svg xmlns="http://www.w3.org/2000/svg" xml:space="preserve" width="220.2mm" height="227.852mm" version="1.1" style="shape-rendering:geometricPrecision; text-rendering:geometricPrecision; image-rendering:optimizeQuality; fill-rule:evenodd; clip-rule:evenodd"
viewBox="0 0 22020.02 22785.24"
 xmlns:xlink="http://www.w3.org/1999/xlink"
 xmlns:xodm="http://www.corel.com/coreldraw/odm/2003">
 <defs>
  <style type="text/css">
   <![CDATA[
    .str1 {stroke:#93BAB3;stroke-width:100;stroke-miterlimit:22.9256}
    .str0 {stroke:#25695C;stroke-width:75;stroke-linecap:round;stroke-linejoin:round;stroke-miterlimit:22.9256}
    .fil0 {fill:none}
   ]]>
  </style>
 </defs>
 <g id="Слой_x0020_1">
  <metadata id="CorelCorpID_0Corel-Layer"/>
  <path class="fil0 str0" d="M8193.15 8790.99c0,161.8 -242.66,350.53 -242.66,350.53 0,0 -242.67,-188.73 -242.67,-350.53 0,-132.17 110.49,-242.66 242.67,-242.66 132.17,0 242.66,110.49 242.66,242.66zm-242.66 80.9c44.67,0 80.89,-36.22 80.89,-80.9 0,-44.67 -36.22,-80.87 -80.89,-80.87 -44.68,0 -80.9,36.2 -80.9,80.87 0,44.68 36.22,80.9 80.9,80.9z"/>
  <path class="fil0 str0" d="M13719.04 14217.59c0,161.8 -242.66,350.53 -242.66,350.53 0,0 -242.67,-188.73 -242.67,-350.53 0,-132.17 110.49,-242.66 242.67,-242.66 132.17,0 242.66,110.49 242.66,242.66zm-242.66 80.9c44.67,0 80.89,-36.22 80.89,-80.9 0,-44.67 -36.22,-80.87 -80.89,-80.87 -44.68,0 -80.9,36.2 -80.9,80.87 0,44.68 36.22,80.9 80.9,80.9z"/>
  <path class="fil0 str0" d="M14389.59 13507.98c0,161.8 -242.66,350.53 -242.66,350.53 0,0 -242.67,-188.73 -242.67,-350.53 0,-132.17 110.49,-242.66 242.67,-242.66 132.17,0 242.66,110.49 242.66,242.66zm-242.66 80.9c44.67,0 80.89,-36.22 80.89,-80.9 0,-44.67 -36.22,-80.87 -80.89,-80.87 -44.68,0 -80.9,36.2 -80.9,80.87 0,44.68 36.22,80.9 80.9,80.9z"/>
  <path class="fil0 str0" d="M13244.82 13119.34c0,161.8 -242.66,350.53 -242.66,350.53 0,0 -242.67,-188.73 -242.67,-350.53 0,-132.17 110.49,-242.66 242.67,-242.66 132.17,0 242.66,110.49 242.66,242.66zm-242.66 80.9c44.67,0 80.89,-36.22 80.89,-80.9 0,-44.67 -36.22,-80.87 -80.89,-80.87 -44.68,0 -80.9,36.2 -80.9,80.87 0,44.68 36.22,80.9 80.9,80.9z"/>
  <path class="fil0 str0" d="M15140.33 13670.94c0,161.8 -242.66,350.53 -242.66,350.53 0,0 -242.67,-188.73 -242.67,-350.53 0,-132.17 110.49,-242.66 242.67,-242.66 132.17,0 242.66,110.49 242.66,242.66zm-242.66 80.9c44.67,0 80.89,-36.22 80.89,-80.9 0,-44.67 -36.22,-80.87 -80.89,-80.87 -44.68,0 -80.9,36.2 -80.9,80.87 0,44.68 36.22,80.9 80.9,80.9z"/>
  <path class="fil0 str0" d="M15810.88 12961.33c0,161.8 -242.66,350.53 -242.66,350.53 0,0 -242.67,-188.73 -242.67,-350.53 0,-132.17 110.49,-242.66 242.67,-242.66 132.17,0 242.66,110.49 242.66,242.66zm-242.66 80.9c44.67,0 80.89,-36.22 80.89,-80.9 0,-44.67 -36.22,-80.87 -80.89,-80.87 -44.68,0 -80.9,36.2 -80.9,80.87 0,44.68 36.22,80.9 80.9,80.9z"/>
  <path class="fil0 str0" d="M14666.11 12572.69c0,161.8 -242.66,350.53 -242.66,350.53 0,0 -242.67,-188.73 -242.67,-350.53 0,-132.17 110.49,-242.66 242.67,-242.66 132.17,0 242.66,110.49 242.66,242.66zm-242.66 80.9c44.67,0 80.89,-36.22 80.89,-80.9 0,-44.67 -36.22,-80.87 -80.89,-80.87 -44.68,0 -80.9,36.2 -80.9,80.87 0,44.68 36.22,80.9 80.9,80.9z"/>
  <path class="fil0 str0" d="M13828.37 12213.21c0,161.8 -242.66,350.53 -242.66,350.53 0,0 -242.67,-188.73 -242.67,-350.53 0,-132.17 110.49,-242.66 242.67,-242.66 132.17,0 242.66,110.49 242.66,242.66zm-242.66 80.9c44.67,0 80.89,-36.22 80.89,-80.9 0,-44.67 -36.22,-80.87 -80.89,-80.87 -44.68,0 -80.9,36.2 -80.9,80.87 0,44.68 36.22,80.9 80.9,80.9z"/>
  <path class="fil0 str0" d="M14498.92 11503.6c0,161.8 -242.66,350.53 -242.66,350.53 0,0 -242.67,-188.73 -242.67,-350.53 0,-132.17 110.49,-242.66 242.67,-242.66 132.17,0 242.66,110.49 242.66,242.66zm-242.66 80.9c44.67,0 80.89,-36.22 80.89,-80.9 0,-44.67 -36.22,-80.87 -80.89,-80.87 -44.68,0 -80.9,36.2 -80.9,80.87 0,44.68 36.22,80.9 80.9,80.9z"/>
  <path class="fil0 str0" d="M13354.15 11114.96c0,161.8 -242.66,350.53 -242.66,350.53 0,0 -242.67,-188.73 -242.67,-350.53 0,-132.17 110.49,-242.66 242.67,-242.66 132.17,0 242.66,110.49 242.66,242.66zm-242.66 80.9c44.67,0 80.89,-36.22 80.89,-80.9 0,-44.67 -36.22,-80.87 -80.89,-80.87 -44.68,0 -80.9,36.2 -80.9,80.87 0,44.68 36.22,80.9 80.9,80.9z"/>
  <path class="fil0 str0" d="M15468.31 11958.11c0,161.8 -242.66,350.53 -242.66,350.53 0,0 -242.67,-188.73 -242.67,-350.53 0,-132.17 110.49,-242.66 242.67,-242.66 132.17,0 242.66,110.49 242.66,242.66zm-242.66 80.9c44.67,0 80.89,-36.22 80.89,-80.9 0,-44.67 -36.22,-80.87 -80.89,-80.87 -44.68,0 -80.9,36.2 -80.9,80.87 0,44.68 36.22,80.9 80.9,80.9z"/>
  <path class="fil0 str0" d="M16138.86 11248.5c0,161.8 -242.66,350.53 -242.66,350.53 0,0 -242.67,-188.73 -242.67,-350.53 0,-132.17 110.49,-242.66 242.67,-242.66 132.17,0 242.66,110.49 242.66,242.66zm-242.66 80.9c44.67,0 80.89,-36.22 80.89,-80.9 0,-44.67 -36.22,-80.87 -80.89,-80.87 -44.68,0 -80.9,36.2 -80.9,80.87 0,44.68 36.22,80.9 80.9,80.9z"/>
  <path class="fil0 str0" d="M14994.09 10859.86c0,161.8 -242.66,350.53 -242.66,350.53 0,0 -242.67,-188.73 -242.67,-350.53 0,-132.17 110.49,-242.66 242.67,-242.66 132.17,0 242.66,110.49 242.66,242.66zm-242.66 80.9c44.67,0 80.89,-36.22 80.89,-80.9 0,-44.67 -36.22,-80.87 -80.89,-80.87 -44.68,0 -80.9,36.2 -80.9,80.87 0,44.68 36.22,80.9 80.9,80.9z"/>
  <path class="fil0 str0" d="M17290.47 11666.57c0,161.8 -242.66,350.53 -242.66,350.53 0,0 -242.67,-188.73 -242.67,-350.53 0,-132.17 110.49,-242.66 242.67,-242.66 132.17,0 242.66,110.49 242.66,242.66zm-242.66 80.9c44.67,0 80.89,-36.22 80.89,-80.9 0,-44.67 -36.22,-80.87 -80.89,-80.87 -44.68,0 -80.9,36.2 -80.9,80.87 0,44.68 36.22,80.9 80.9,80.9z"/>
  <path class="fil0 str0" d="M17961.02 10956.96c0,161.8 -242.66,350.53 -242.66,350.53 0,0 -242.67,-188.73 -242.67,-350.53 0,-132.17 110.49,-242.66 242.67,-242.66 132.17,0 242.66,110.49 242.66,242.66zm-242.66 80.9c44.67,0 80.89,-36.22 80.89,-80.9 0,-44.67 -36.22,-80.87 -80.89,-80.87 -44.68,0 -80.9,36.2 -80.9,80.87 0,44.68 36.22,80.9 80.9,80.9z"/>
  <path class="fil0 str0" d="M16816.25 10568.32c0,161.8 -242.66,350.53 -242.66,350.53 0,0 -242.67,-188.73 -242.67,-350.53 0,-132.17 110.49,-242.66 242.67,-242.66 132.17,0 242.66,110.49 242.66,242.66zm-242.66 80.9c44.67,0 80.89,-36.22 80.89,-80.9 0,-44.67 -36.22,-80.87 -80.89,-80.87 -44.68,0 -80.9,36.2 -80.9,80.87 0,44.68 36.22,80.9 80.9,80.9z"/>
  <path class="fil0 str0" d="M16270.07 15128.67c0,161.8 -242.66,350.53 -242.66,350.53 0,0 -242.67,-188.73 -242.67,-350.53 0,-132.17 110.49,-242.66 242.67,-242.66 132.17,0 242.66,110.49 242.66,242.66zm-242.66 80.9c44.67,0 80.89,-36.22 80.89,-80.9 0,-44.67 -36.22,-80.87 -80.89,-80.87 -44.68,0 -80.9,36.2 -80.9,80.87 0,44.68 36.22,80.9 80.9,80.9z"/>
  <path class="fil0 str0" d="M16940.62 14419.06c0,161.8 -242.66,350.53 -242.66,350.53 0,0 -242.67,-188.73 -242.67,-350.53 0,-132.17 110.49,-242.66 242.67,-242.66 132.17,0 242.66,110.49 242.66,242.66zm-242.66 80.9c44.67,0 80.89,-36.22 80.89,-80.9 0,-44.67 -36.22,-80.87 -80.89,-80.87 -44.68,0 -80.9,36.2 -80.9,80.87 0,44.68 36.22,80.9 80.9,80.9z"/>
  <path class="fil0 str0" d="M15795.85 14030.42c0,161.8 -242.66,350.53 -242.66,350.53 0,0 -242.67,-188.73 -242.67,-350.53 0,-132.17 110.49,-242.66 242.67,-242.66 132.17,0 242.66,110.49 242.66,242.66zm-242.66 80.9c44.67,0 80.89,-36.22 80.89,-80.9 0,-44.67 -36.22,-80.87 -80.89,-80.87 -44.68,0 -80.9,36.2 -80.9,80.87 0,44.68 36.22,80.9 80.9,80.9z"/>
  <path class="fil0 str0" d="M16596.68 18872.78c0,161.8 -242.66,350.53 -242.66,350.53 0,0 -242.67,-188.73 -242.67,-350.53 0,-132.17 110.49,-242.66 242.67,-242.66 132.17,0 242.66,110.49 242.66,242.66zm-242.66 80.9c44.67,0 80.89,-36.22 80.89,-80.9 0,-44.67 -36.22,-80.87 -80.89,-80.87 -44.68,0 -80.9,36.2 -80.9,80.87 0,44.68 36.22,80.9 80.9,80.9z"/>
  <path class="fil0 str0" d="M17479.26 17909.62c0,161.8 -242.66,350.53 -242.66,350.53 0,0 -242.67,-188.73 -242.67,-350.53 0,-132.17 110.49,-242.66 242.67,-242.66 132.17,0 242.66,110.49 242.66,242.66zm-242.66 80.9c44.67,0 80.89,-36.22 80.89,-80.9 0,-44.67 -36.22,-80.87 -80.89,-80.87 -44.68,0 -80.9,36.2 -80.9,80.87 0,44.68 36.22,80.9 80.9,80.9z"/>
  <path class="fil0 str0" d="M16179.66 17675.16c0,161.8 -242.66,350.53 -242.66,350.53 0,0 -242.67,-188.73 -242.67,-350.53 0,-132.17 110.49,-242.66 242.67,-242.66 132.17,0 242.66,110.49 242.66,242.66zm-242.66 80.9c44.67,0 80.89,-36.22 80.89,-80.9 0,-44.67 -36.22,-80.87 -80.89,-80.87 -44.68,0 -80.9,36.2 -80.9,80.87 0,44.68 36.22,80.9 80.9,80.9z"/>
  <path class="fil0 str0" d="M14002.58 20660.05c0,161.8 -242.66,350.53 -242.66,350.53 0,0 -242.67,-188.73 -242.67,-350.53 0,-132.17 110.49,-242.66 242.67,-242.66 132.17,0 242.66,110.49 242.66,242.66zm-242.66 80.9c44.67,0 80.89,-36.22 80.89,-80.9 0,-44.67 -36.22,-80.87 -80.89,-80.87 -44.68,0 -80.9,36.2 -80.9,80.87 0,44.68 36.22,80.9 80.9,80.9z"/>
  <path class="fil0 str0" d="M14729.31 19490.59c0,161.8 -242.66,350.53 -242.66,350.53 0,0 -242.67,-188.73 -242.67,-350.53 0,-132.17 110.49,-242.66 242.67,-242.66 132.17,0 242.66,110.49 242.66,242.66zm-242.66 80.9c44.67,0 80.89,-36.22 80.89,-80.9 0,-44.67 -36.22,-80.87 -80.89,-80.87 -44.68,0 -80.9,36.2 -80.9,80.87 0,44.68 36.22,80.9 80.9,80.9z"/>
  <path class="fil0 str0" d="M13528.36 19561.8c0,161.8 -242.66,350.53 -242.66,350.53 0,0 -242.67,-188.73 -242.67,-350.53 0,-132.17 110.49,-242.66 242.67,-242.66 132.17,0 242.66,110.49 242.66,242.66zm-242.66 80.9c44.67,0 80.89,-36.22 80.89,-80.9 0,-44.67 -36.22,-80.87 -80.89,-80.87 -44.68,0 -80.9,36.2 -80.9,80.87 0,44.68 36.22,80.9 80.9,80.9z"/>
  <path class="fil0 str0" d="M14126.55 17642.54c0,161.8 -242.66,350.53 -242.66,350.53 0,0 -242.67,-188.73 -242.67,-350.53 0,-132.17 110.49,-242.66 242.67,-242.66 132.17,0 242.66,110.49 242.66,242.66zm-242.66 80.9c44.67,0 80.89,-36.22 80.89,-80.9 0,-44.67 -36.22,-80.87 -80.89,-80.87 -44.68,0 -80.9,36.2 -80.9,80.87 0,44.68 36.22,80.9 80.9,80.9z"/>
  <path class="fil0 str0" d="M14951.93 17087.1c0,161.8 -242.66,350.53 -242.66,350.53 0,0 -242.67,-188.73 -242.67,-350.53 0,-132.17 110.49,-242.66 242.67,-242.66 132.17,0 242.66,110.49 242.66,242.66zm-242.66 80.9c44.67,0 80.89,-36.22 80.89,-80.9 0,-44.67 -36.22,-80.87 -80.89,-80.87 -44.68,0 -80.9,36.2 -80.9,80.87 0,44.68 36.22,80.9 80.9,80.9z"/>
  <path class="fil0 str0" d="M13807.16 16698.46c0,161.8 -242.66,350.53 -242.66,350.53 0,0 -242.67,-188.73 -242.67,-350.53 0,-132.17 110.49,-242.66 242.67,-242.66 132.17,0 242.66,110.49 242.66,242.66zm-242.66 80.9c44.67,0 80.89,-36.22 80.89,-80.9 0,-44.67 -36.22,-80.87 -80.89,-80.87 -44.68,0 -80.9,36.2 -80.9,80.87 0,44.68 36.22,80.9 80.9,80.9z"/>
  <path class="fil0 str0" d="M18411.16 8723.07c0,161.8 -242.66,350.53 -242.66,350.53 0,0 -242.67,-188.73 -242.67,-350.53 0,-132.17 110.49,-242.66 242.67,-242.66 132.17,0 242.66,110.49 242.66,242.66zm-242.66 80.9c44.67,0 80.89,-36.22 80.89,-80.9 0,-44.67 -36.22,-80.87 -80.89,-80.87 -44.68,0 -80.9,36.2 -80.9,80.87 0,44.68 36.22,80.9 80.9,80.9z"/>
  <path class="fil0 str0" d="M19236.54 7859.28c0,161.8 -242.66,350.53 -242.66,350.53 0,0 -242.67,-188.73 -242.67,-350.53 0,-132.17 110.49,-242.66 242.67,-242.66 132.17,0 242.66,110.49 242.66,242.66zm-242.66 80.9c44.67,0 80.89,-36.22 80.89,-80.9 0,-44.67 -36.22,-80.87 -80.89,-80.87 -44.68,0 -80.9,36.2 -80.9,80.87 0,44.68 36.22,80.9 80.9,80.9z"/>
  <path class="fil0 str0" d="M18091.77 7470.64c0,161.8 -242.66,350.53 -242.66,350.53 0,0 -242.67,-188.73 -242.67,-350.53 0,-132.17 110.49,-242.66 242.67,-242.66 132.17,0 242.66,110.49 242.66,242.66zm-242.66 80.9c44.67,0 80.89,-36.22 80.89,-80.9 0,-44.67 -36.22,-80.87 -80.89,-80.87 -44.68,0 -80.9,36.2 -80.9,80.87 0,44.68 36.22,80.9 80.9,80.9z"/>
  <path class="fil0 str0" d="M20367.99 8612.55c0,161.8 -242.66,350.53 -242.66,350.53 0,0 -242.67,-188.73 -242.67,-350.53 0,-132.17 110.49,-242.66 242.67,-242.66 132.17,0 242.66,110.49 242.66,242.66zm-242.66 80.9c44.67,0 80.89,-36.22 80.89,-80.9 0,-44.67 -36.22,-80.87 -80.89,-80.87 -44.68,0 -80.9,36.2 -80.9,80.87 0,44.68 36.22,80.9 80.9,80.9z"/>
  <path class="fil0 str0" d="M21656.44 7823.14c0,161.8 -242.66,350.53 -242.66,350.53 0,0 -242.67,-188.73 -242.67,-350.53 0,-132.17 110.49,-242.66 242.67,-242.66 132.17,0 242.66,110.49 242.66,242.66zm-242.66 80.9c44.67,0 80.89,-36.22 80.89,-80.9 0,-44.67 -36.22,-80.87 -80.89,-80.87 -44.68,0 -80.9,36.2 -80.9,80.87 0,44.68 36.22,80.9 80.9,80.9z"/>
  <path class="fil0 str0" d="M20511.67 7434.5c0,161.8 -242.66,350.53 -242.66,350.53 0,0 -242.67,-188.73 -242.67,-350.53 0,-132.17 110.49,-242.66 242.67,-242.66 132.17,0 242.66,110.49 242.66,242.66zm-242.66 80.9c44.67,0 80.89,-36.22 80.89,-80.9 0,-44.67 -36.22,-80.87 -80.89,-80.87 -44.68,0 -80.9,36.2 -80.9,80.87 0,44.68 36.22,80.9 80.9,80.9z"/>
  <path class="fil0 str0" d="M13209.58 8391.1c0,161.8 -242.66,350.53 -242.66,350.53 0,0 -242.67,-188.73 -242.67,-350.53 0,-132.17 110.49,-242.66 242.67,-242.66 132.17,0 242.66,110.49 242.66,242.66zm-242.66 80.9c44.67,0 80.89,-36.22 80.89,-80.9 0,-44.67 -36.22,-80.87 -80.89,-80.87 -44.68,0 -80.9,36.2 -80.9,80.87 0,44.68 36.22,80.9 80.9,80.9z"/>
  <path class="fil0 str0" d="M14206.13 7041.44c0,161.8 -242.66,350.53 -242.66,350.53 0,0 -242.67,-188.73 -242.67,-350.53 0,-132.17 110.49,-242.66 242.67,-242.66 132.17,0 242.66,110.49 242.66,242.66zm-242.66 80.9c44.67,0 80.89,-36.22 80.89,-80.9 0,-44.67 -36.22,-80.87 -80.89,-80.87 -44.68,0 -80.9,36.2 -80.9,80.87 0,44.68 36.22,80.9 80.9,80.9z"/>
  <path class="fil0 str0" d="M12735.36 7292.85c0,161.8 -242.66,350.53 -242.66,350.53 0,0 -242.67,-188.73 -242.67,-350.53 0,-132.17 110.49,-242.66 242.67,-242.66 132.17,0 242.66,110.49 242.66,242.66zm-242.66 80.9c44.67,0 80.89,-36.22 80.89,-80.9 0,-44.67 -36.22,-80.87 -80.89,-80.87 -44.68,0 -80.9,36.2 -80.9,80.87 0,44.68 36.22,80.9 80.9,80.9z"/>
  <path class="fil0 str0" d="M16074.13 7010.78c0,161.8 -242.66,350.53 -242.66,350.53 0,0 -242.67,-188.73 -242.67,-350.53 0,-132.17 110.49,-242.66 242.67,-242.66 132.17,0 242.66,110.49 242.66,242.66zm-242.66 80.9c44.67,0 80.89,-36.22 80.89,-80.9 0,-44.67 -36.22,-80.87 -80.89,-80.87 -44.68,0 -80.9,36.2 -80.9,80.87 0,44.68 36.22,80.9 80.9,80.9z"/>
  <path class="fil0 str0" d="M16707.78 5634.55c0,161.8 -242.66,350.53 -242.66,350.53 0,0 -242.67,-188.73 -242.67,-350.53 0,-132.17 110.49,-242.66 242.67,-242.66 132.17,0 242.66,110.49 242.66,242.66zm-242.66 80.9c44.67,0 80.89,-36.22 80.89,-80.9 0,-44.67 -36.22,-80.87 -80.89,-80.87 -44.68,0 -80.9,36.2 -80.9,80.87 0,44.68 36.22,80.9 80.9,80.9z"/>
  <path class="fil0 str0" d="M15563.01 5245.91c0,161.8 -242.66,350.53 -242.66,350.53 0,0 -242.67,-188.73 -242.67,-350.53 0,-132.17 110.49,-242.66 242.67,-242.66 132.17,0 242.66,110.49 242.66,242.66zm-242.66 80.9c44.67,0 80.89,-36.22 80.89,-80.9 0,-44.67 -36.22,-80.87 -80.89,-80.87 -44.68,0 -80.9,36.2 -80.9,80.87 0,44.68 36.22,80.9 80.9,80.9z"/>
  <path class="fil0 str0" d="M10125.29 12713.19c0,161.8 -242.66,350.53 -242.66,350.53 0,0 -242.67,-188.73 -242.67,-350.53 0,-132.17 110.49,-242.66 242.67,-242.66 132.17,0 242.66,110.49 242.66,242.66zm-242.66 80.9c44.67,0 80.89,-36.22 80.89,-80.9 0,-44.67 -36.22,-80.87 -80.89,-80.87 -44.68,0 -80.9,36.2 -80.9,80.87 0,44.68 36.22,80.9 80.9,80.9z"/>
  <path class="fil0 str0" d="M10375.26 15232.56c0,161.8 -242.66,350.53 -242.66,350.53 0,0 -242.67,-188.73 -242.67,-350.53 0,-132.17 110.49,-242.66 242.67,-242.66 132.17,0 242.66,110.49 242.66,242.66zm-242.66 80.9c44.67,0 80.89,-36.22 80.89,-80.9 0,-44.67 -36.22,-80.87 -80.89,-80.87 -44.68,0 -80.9,36.2 -80.9,80.87 0,44.68 36.22,80.9 80.9,80.9z"/>
  <path class="fil0 str0" d="M9651.07 11614.94c0,161.8 -242.66,350.53 -242.66,350.53 0,0 -242.67,-188.73 -242.67,-350.53 0,-132.17 110.49,-242.66 242.67,-242.66 132.17,0 242.66,110.49 242.66,242.66zm-242.66 80.9c44.67,0 80.89,-36.22 80.89,-80.9 0,-44.67 -36.22,-80.87 -80.89,-80.87 -44.68,0 -80.9,36.2 -80.9,80.87 0,44.68 36.22,80.9 80.9,80.9z"/>
  <path class="fil0 str0" d="M8552.96 15388.99c0,161.8 -242.66,350.53 -242.66,350.53 0,0 -242.67,-188.73 -242.67,-350.53 0,-132.17 110.49,-242.66 242.67,-242.66 132.17,0 242.66,110.49 242.66,242.66zm-242.66 80.9c44.67,0 80.89,-36.22 80.89,-80.9 0,-44.67 -36.22,-80.87 -80.89,-80.87 -44.68,0 -80.9,36.2 -80.9,80.87 0,44.68 36.22,80.9 80.9,80.9z"/>
  <path class="fil0 str0" d="M9223.51 14679.38c0,161.8 -242.66,350.53 -242.66,350.53 0,0 -242.67,-188.73 -242.67,-350.53 0,-132.17 110.49,-242.66 242.67,-242.66 132.17,0 242.66,110.49 242.66,242.66zm-242.66 80.9c44.67,0 80.89,-36.22 80.89,-80.9 0,-44.67 -36.22,-80.87 -80.89,-80.87 -44.68,0 -80.9,36.2 -80.9,80.87 0,44.68 36.22,80.9 80.9,80.9z"/>
  <path class="fil0 str0" d="M8078.74 14290.74c0,161.8 -242.66,350.53 -242.66,350.53 0,0 -242.67,-188.73 -242.67,-350.53 0,-132.17 110.49,-242.66 242.67,-242.66 132.17,0 242.66,110.49 242.66,242.66zm-242.66 80.9c44.67,0 80.89,-36.22 80.89,-80.9 0,-44.67 -36.22,-80.87 -80.89,-80.87 -44.68,0 -80.9,36.2 -80.9,80.87 0,44.68 36.22,80.9 80.9,80.9z"/>
  <path class="fil0 str0" d="M5810.73 13257.51c0,161.8 -242.66,350.53 -242.66,350.53 0,0 -242.67,-188.73 -242.67,-350.53 0,-132.17 110.49,-242.66 242.67,-242.66 132.17,0 242.66,110.49 242.66,242.66zm-242.66 80.9c44.67,0 80.89,-36.22 80.89,-80.9 0,-44.67 -36.22,-80.87 -80.89,-80.87 -44.68,0 -80.9,36.2 -80.9,80.87 0,44.68 36.22,80.9 80.9,80.9z"/>
  <path class="fil0 str0" d="M7040.79 13125.94c0,161.8 -242.66,350.53 -242.66,350.53 0,0 -242.67,-188.73 -242.67,-350.53 0,-132.17 110.49,-242.66 242.67,-242.66 132.17,0 242.66,110.49 242.66,242.66zm-242.66 80.9c44.67,0 80.89,-36.22 80.89,-80.9 0,-44.67 -36.22,-80.87 -80.89,-80.87 -44.68,0 -80.9,36.2 -80.9,80.87 0,44.68 36.22,80.9 80.9,80.9z"/>
  <path class="fil0 str0" d="M5455.55 11444.41c0,161.8 -242.66,350.53 -242.66,350.53 0,0 -242.67,-188.73 -242.67,-350.53 0,-132.17 110.49,-242.66 242.67,-242.66 132.17,0 242.66,110.49 242.66,242.66zm-242.66 80.9c44.67,0 80.89,-36.22 80.89,-80.9 0,-44.67 -36.22,-80.87 -80.89,-80.87 -44.68,0 -80.9,36.2 -80.9,80.87 0,44.68 36.22,80.9 80.9,80.9z"/>
  <path class="fil0 str0" d="M3604.89 10706.37c0,161.8 -242.66,350.53 -242.66,350.53 0,0 -242.67,-188.73 -242.67,-350.53 0,-132.17 110.49,-242.66 242.67,-242.66 132.17,0 242.66,110.49 242.66,242.66zm-242.66 80.9c44.67,0 80.89,-36.22 80.89,-80.9 0,-44.67 -36.22,-80.87 -80.89,-80.87 -44.68,0 -80.9,36.2 -80.9,80.87 0,44.68 36.22,80.9 80.9,80.9z"/>
  <path class="fil0 str0" d="M3888.75 8343.58c0,161.8 -242.66,350.53 -242.66,350.53 0,0 -242.67,-188.73 -242.67,-350.53 0,-132.17 110.49,-242.66 242.67,-242.66 132.17,0 242.66,110.49 242.66,242.66zm-242.66 80.9c44.67,0 80.89,-36.22 80.89,-80.9 0,-44.67 -36.22,-80.87 -80.89,-80.87 -44.68,0 -80.9,36.2 -80.9,80.87 0,44.68 36.22,80.9 80.9,80.9z"/>
  <path class="fil0 str0" d="M2863.61 8961.54c0,161.8 -242.66,350.53 -242.66,350.53 0,0 -242.67,-188.73 -242.67,-350.53 0,-132.17 110.49,-242.66 242.67,-242.66 132.17,0 242.66,110.49 242.66,242.66zm-242.66 80.9c44.67,0 80.89,-36.22 80.89,-80.9 0,-44.67 -36.22,-80.87 -80.89,-80.87 -44.68,0 -80.9,36.2 -80.9,80.87 0,44.68 36.22,80.9 80.9,80.9z"/>
  <path class="fil0 str0" d="M2504.37 6406.97c0,161.8 -242.66,350.53 -242.66,350.53 0,0 -242.67,-188.73 -242.67,-350.53 0,-132.17 110.49,-242.66 242.67,-242.66 132.17,0 242.66,110.49 242.66,242.66zm-242.66 80.9c44.67,0 80.89,-36.22 80.89,-80.9 0,-44.67 -36.22,-80.87 -80.89,-80.87 -44.68,0 -80.9,36.2 -80.9,80.87 0,44.68 36.22,80.9 80.9,80.9z"/>
  <path class="fil0 str0" d="M4733.19 5512.92c0,161.8 -242.66,350.53 -242.66,350.53 0,0 -242.67,-188.73 -242.67,-350.53 0,-132.17 110.49,-242.66 242.67,-242.66 132.17,0 242.66,110.49 242.66,242.66zm-242.66 80.9c44.67,0 80.89,-36.22 80.89,-80.9 0,-44.67 -36.22,-80.87 -80.89,-80.87 -44.68,0 -80.9,36.2 -80.9,80.87 0,44.68 36.22,80.9 80.9,80.9z"/>
  <path class="fil0 str0" d="M3588.42 5124.27c0,161.8 -242.66,350.53 -242.66,350.53 0,0 -242.67,-188.73 -242.67,-350.53 0,-132.17 110.49,-242.66 242.67,-242.66 132.17,0 242.66,110.49 242.66,242.66zm-242.66 80.9c44.67,0 80.89,-36.22 80.89,-80.9 0,-44.67 -36.22,-80.87 -80.89,-80.87 -44.68,0 -80.9,36.2 -80.9,80.87 0,44.68 36.22,80.9 80.9,80.9z"/>
  <path class="fil0 str0" d="M10038.2 9409.65c0,161.8 -242.66,350.53 -242.66,350.53 0,0 -242.67,-188.73 -242.67,-350.53 0,-132.17 110.49,-242.66 242.67,-242.66 132.17,0 242.66,110.49 242.66,242.66zm-242.66 80.9c44.67,0 80.89,-36.22 80.89,-80.9 0,-44.67 -36.22,-80.87 -80.89,-80.87 -44.68,0 -80.9,36.2 -80.9,80.87 0,44.68 36.22,80.9 80.9,80.9z"/>
  <path class="fil0 str0" d="M11275.38 11147.34c0,161.8 -242.66,350.53 -242.66,350.53 0,0 -242.67,-188.73 -242.67,-350.53 0,-132.17 110.49,-242.66 242.67,-242.66 132.17,0 242.66,110.49 242.66,242.66zm-242.66 80.9c44.67,0 80.89,-36.22 80.89,-80.9 0,-44.67 -36.22,-80.87 -80.89,-80.87 -44.68,0 -80.9,36.2 -80.9,80.87 0,44.68 36.22,80.9 80.9,80.9z"/>
  <path class="fil0 str0" d="M7617.21 10133.53c0,161.8 -242.66,350.53 -242.66,350.53 0,0 -242.67,-188.73 -242.67,-350.53 0,-132.17 110.49,-242.66 242.67,-242.66 132.17,0 242.66,110.49 242.66,242.66zm-242.66 80.9c44.67,0 80.89,-36.22 80.89,-80.9 0,-44.67 -36.22,-80.87 -80.89,-80.87 -44.68,0 -80.9,36.2 -80.9,80.87 0,44.68 36.22,80.9 80.9,80.9z"/>
  <polygon class="fil0 str1" points="502.93,839.9 3353.13,60.17 3858.24,1217.98 4830.74,2056.34 5887.08,4051.65 6675.14,4001.34 7565.11,4417.93 9289.4,5267.4 10937.62,6497.22 10937.62,7004.37 11653.21,6867.07 11859.36,5652.1 12033.22,4742.97 12687.48,3348.84 13063.58,3275.71 13397.89,3474.21 13565.04,3683.15 13324.76,4727.87 15612.69,4915.92 15702.64,3930.7 17092.03,3956.27 17109.08,3794.31 17739.84,3828.41 17739.84,3189.12 18021.13,3180.6 17975.37,5395.6 18225.7,6362.42 18396.18,6609.61 18933.18,6924.99 19487.23,6907.95 19589.51,7061.38 21321.79,7097.54 21950.81,7494.28 21962.43,8817.58 21121.71,8791.72 21052.73,8938.3 21216.56,8985.73 21013.92,9925.61 20763.86,9878.19 20665.69,10562.82 20441.5,10515.39 20368.2,9959.21 19928.43,9515.13 19816.33,9575.49 19712.85,10567.13 19225.65,10148.92 18652.22,10148.92 18548.74,10722.35 18760.01,10968.1 18738.06,11228.49 18485.18,11377.24 18698.39,11570.62 18857.06,11729.29 18847.14,11868.12 18321.55,12096.21 18311.64,12487.92 18073.6,12769.23 17685.85,13077.15 17471.92,13386.74 17462.1,13543.91 17290.2,13583.2 17128.13,13809.12 17162.51,14000.66 17029.9,14079.24 17149.73,14331.23 17385.8,14504.35 17448.75,14905.68 17672.14,14946.63 18150.84,15466.95 18246.51,15749.24 18536.81,15869.61 18784.62,15451.86 19787.14,16064.54 19701.01,17143.27 20241.04,16943.09 20531.24,17586.65 20564.39,17984.47 19578.6,18741.51 19603.59,18934.6 19539.35,19025.61 19293.09,19014.91 18506.14,19855.39 19041.48,20695.88 18340.18,20899.31 17090.03,21272.88 16837.4,21421.61 16397.25,21477.63 15383.7,22699.55 15070.54,22177.62 14005.79,22567.33 12474.79,21426.03 10999.47,20347.37 10735.02,20152.52 10735.02,19734.97 10290.21,19471.52 7521.22,17427.91 4217.38,15088.16 2301.72,13499.21 2178.62,12664.05 1899.37,12289.6 2064.39,12111.89 2019.96,11534.36 1886.68,11280.49 1918.41,10537.94 1607.44,10011.59 1590.55,9521.81 1109.21,8998.25 518.1,8956.03 53.65,8018.7 1732.4,6348.93 1859.07,6044.93 1909.73,5588.93 817.4,4244.24 2434.34,3729.77 "/>
 </g>
</svg>
