<?xml version="1.0" encoding="UTF-8"?>
<!DOCTYPE svg PUBLIC "-//W3C//DTD SVG 1.1//EN" "http://www.w3.org/Graphics/SVG/1.1/DTD/svg11.dtd">
<!-- Creator: CorelDRAW -->
<svg xmlns="http://www.w3.org/2000/svg" xml:space="preserve" width="46.7064mm" height="45.662mm" version="1.1" style="shape-rendering:geometricPrecision; text-rendering:geometricPrecision; image-rendering:optimizeQuality; fill-rule:evenodd; clip-rule:evenodd;max-height: 45rem;"
viewBox="0 0 4670.64 4566.2"
 xmlns:xlink="http://www.w3.org/1999/xlink"
 xmlns:xodm="http://www.corel.com/coreldraw/odm/2003">
 <defs>
  <style type="text/css">
   <![CDATA[
    .fil4 {fill:#FEFEFE}
    .fil0 {fill:#F49B4D}
    .fil3 {fill:#EF7F1A}
    .fil1 {fill:#4696D3}
    .fil2 {fill:#4D65A3}
   ]]>
  </style>
 </defs>
 <g id="Слой_x0020_1">
  <metadata id="CorelCorpID_0Corel-Layer"/>
  <path class="fil0" d="M2381.73 2500.97c1.21,-521.27 4.11,-1768.14 5.32,-2289.41 931.63,-65.9 1846.15,701.69 1990.59,1441.43 -478.19,201.66 -1517.71,646.32 -1995.91,847.98z"/>
  <path class="fil1" d="M560.54 834.9c427.73,-526.64 1289.17,-964.09 2202.9,-798.99l-381.71 2465.06c-607.06,-555.36 -1214.13,-1110.71 -1821.19,-1666.07z"/>
  <path class="fil2" d="M604.78 875.37c-375.01,434.07 -762.95,1111.68 -552.53,2176.55l2329.48 -550.95c-588.96,-538.79 -1187.99,-1086.8 -1776.95,-1625.6z"/>
  <path class="fil3" d="M140.26 3031.1c141.92,660.95 820.34,1336.66 1376.89,1535.64 893.72,-2154.55 -29.14,88.78 864.58,-2065.77 -1323.68,313.06 -737.38,174.39 -2241.47,530.13z"/>
  <path class="fil0" d="M1639.34 4250.39c656.95,272.85 1384.8,110.9 1938.09,-280.71 -1185.14,-1477.96 -676.75,-828.04 -1195.69,-1468.71 -726.33,1750.95 -16.08,-1.53 -742.4,1749.42z"/>
  <path class="fil3" d="M2381.73 2500.97c723.02,-304.92 1387.07,-594.01 2110.08,-898.94 269.09,597.38 333.89,1924.34 -656.45,2693.52l-1453.63 -1794.58z"/>
  <circle class="fil4" cx="2381.73" cy="2500.98" r="513.08"/>
 </g>
</svg>
