<?xml version="1.0" encoding="UTF-8"?>
<!DOCTYPE svg PUBLIC "-//W3C//DTD SVG 1.1//EN" "http://www.w3.org/Graphics/SVG/1.1/DTD/svg11.dtd">
<!-- Creator: CorelDRAW -->
<svg xmlns="http://www.w3.org/2000/svg" xml:space="preserve" width="7.5954mm" height="8.7704mm" version="1.1" style="shape-rendering:geometricPrecision; text-rendering:geometricPrecision; image-rendering:optimizeQuality; fill-rule:evenodd; clip-rule:evenodd;max-height: 45rem;"
viewBox="0 0 759.54 877.04"
 xmlns:xlink="http://www.w3.org/1999/xlink"
 xmlns:xodm="http://www.corel.com/coreldraw/odm/2003">
 <defs>
  <style type="text/css">
   <![CDATA[
    .fil0 {fill:#A22B3E}
   ]]>
  </style>
 </defs>
 <g id="Слой_x0020_1">
  <metadata id="CorelCorpID_0Corel-Layer"/>
  <g id="_2722208468560">
   <path class="fil0" d="M374.68 7.52l189.88 109.63 189.89 109.63 0 219.26 0 219.26 -189.89 109.63 -189.88 109.63 -189.89 -109.63 -189.88 -109.63 0 -219.26 0 -219.26 189.88 -109.63 189.89 -109.63zm0 51.29l167.68 96.81 167.67 96.8 0 193.62 0 193.62 -167.67 96.8 -167.68 96.81 -167.68 -96.81 -167.67 -96.8 0 -193.62 0 -193.62 167.67 -96.8 167.68 -96.81z"/>
   <path class="fil0" d="M374.68 342.14c29.33,0 53.31,23.98 53.31,53.32l0 252.97c0,29.33 -23.98,53.31 -53.31,53.31 -29.33,0 -53.31,-23.98 -53.31,-53.31l0 -252.97c0,-29.34 23.98,-53.32 53.31,-53.32zm0 -154.8c29.33,0 53.31,23.98 53.31,53.31l0 1.54c0,29.33 -23.98,53.31 -53.31,53.31 -29.33,0 -53.31,-23.98 -53.31,-53.31l0 -1.54c0,-29.33 23.98,-53.31 53.31,-53.31z"/>
  </g>
 </g>
</svg>
