<?xml version="1.0" encoding="UTF-8"?>
<!DOCTYPE svg PUBLIC "-//W3C//DTD SVG 1.1//EN" "http://www.w3.org/Graphics/SVG/1.1/DTD/svg11.dtd">
<!-- Creator: CorelDRAW -->
<svg xmlns="http://www.w3.org/2000/svg" xml:space="preserve" width="5.7282mm" height="10.0174mm" version="1.1" style="shape-rendering:geometricPrecision; text-rendering:geometricPrecision; image-rendering:optimizeQuality; fill-rule:evenodd; clip-rule:evenodd;max-height: 45rem;"
viewBox="0 0 572.82 1001.74"
 xmlns:xlink="http://www.w3.org/1999/xlink"
 xmlns:xodm="http://www.corel.com/coreldraw/odm/2003">
 <defs>
  <style type="text/css">
   <![CDATA[
    .fil0 {fill:#4D65A3}
   ]]>
  </style>
 </defs>
 <g id="Слой_x0020_1">
  <metadata id="CorelCorpID_0Corel-Layer"/>
  <path class="fil0" d="M83.08 159.61l403.73 0c46.5,0 84.55,38.05 84.55,84.54l0 15.59 -572.82 0 0 -15.59c0,-46.49 38.04,-84.54 84.54,-84.54zm209.9 571.55l-114.38 -221.73 -34.21 213.2 -51.9 0 60.7 -366.14 139.79 271.14 138.72 -269 60.34 364 -50.83 0 -34.13 -212.66 -114.1 221.19zm-19.32 -641.59l19.58 0 21.56 0c5.38,0 9.79,4.41 9.79,9.79 0,5.39 -4.41,9.8 -9.79,9.8l-21.56 0 0 29.14 -19.58 0 0 -29.14 -22.63 0c-5.38,0 -9.79,-4.41 -9.79,-9.8 0,-5.38 4.41,-9.79 9.79,-9.79l22.63 0zm162.34 -24.6l29.19 0 0 71.34 -29.19 0 0 -71.34zm-327.5 0l29.19 0 0 71.34 -29.19 0 0 -71.34zm-29.18 -57.84l415.05 0 0 35.38 -415.05 0 0 -35.38zm33.15 965.47l344.95 0 0 4.92c0,17.24 -14.1,31.35 -31.35,31.35l-282.25 0c-17.24,0 -31.35,-14.11 -31.35,-31.35l0 -4.92zm458.89 -688.73l0 539.78 -572.82 0 0 -539.78 572.82 0zm0 563.9l0 16.21c0,46.5 -38.05,84.54 -84.55,84.54l-403.73 0c-46.5,0 -84.54,-38.04 -84.54,-84.54l0 -16.21 572.82 0z"/>
 </g>
</svg>
