<?xml version="1.0" encoding="UTF-8"?>
<!DOCTYPE svg PUBLIC "-//W3C//DTD SVG 1.1//EN" "http://www.w3.org/Graphics/SVG/1.1/DTD/svg11.dtd">
<!-- Creator: CorelDRAW -->
<svg xmlns="http://www.w3.org/2000/svg" xml:space="preserve" width="62.771mm" height="62.2666mm" version="1.1" style="shape-rendering:geometricPrecision; text-rendering:geometricPrecision; image-rendering:optimizeQuality; fill-rule:evenodd; clip-rule:evenodd"
viewBox="0 0 6277.1 6226.66"
 xmlns:xlink="http://www.w3.org/1999/xlink"
 xmlns:xodm="http://www.corel.com/coreldraw/odm/2003">
 <defs>
  <style type="text/css">
   <![CDATA[
    .fil7 {fill:#FEFEFE}
    .fil6 {fill:#FEFEFE}
    .fil3 {fill:#3C9053}
    .fil11 {fill:#FEFEFE;fill-rule:nonzero}
    .fil10 {fill:#FEFEFE;fill-rule:nonzero}
    .fil9 {fill:#4696D3;fill-rule:nonzero}
    .fil8 {fill:#4D65A3;fill-rule:nonzero}
    .fil4 {fill:url(#id0)}
    .fil2 {fill:url(#id1)}
    .fil5 {fill:url(#id2)}
    .fil0 {fill:url(#id3)}
    .fil1 {fill:url(#id4)}
   ]]>
  </style>
  <linearGradient id="id0" gradientUnits="userSpaceOnUse" x1="4460.57" y1="5263.64" x2="1801.74" y2="4630.59">
   <stop offset="0" style="stop-opacity:1; stop-color:#FCB441"/>
   <stop offset="1" style="stop-opacity:1; stop-color:#E6851E"/>
  </linearGradient>
  <linearGradient id="id1" gradientUnits="userSpaceOnUse" x1="905.96" y1="3414.27" x2="2525.11" y2="1302.55">
   <stop offset="0" style="stop-opacity:1; stop-color:#6984C7"/>
   <stop offset="1" style="stop-opacity:1; stop-color:#364896"/>
  </linearGradient>
  <linearGradient id="id2" gradientUnits="userSpaceOnUse" x1="6151.21" y1="2619.7" x2="3596.64" y2="5233.85">
   <stop offset="0" style="stop-opacity:1; stop-color:#F2A864"/>
   <stop offset="1" style="stop-opacity:1; stop-color:#D77C21"/>
  </linearGradient>
  <linearGradient id="id3" gradientUnits="userSpaceOnUse" x1="4019.42" y1="1687.57" x2="5218.47" y2="3546.1">
   <stop offset="0" style="stop-opacity:1; stop-color:#F78854"/>
   <stop offset="1" style="stop-opacity:1; stop-color:#C15720"/>
  </linearGradient>
  <linearGradient id="id4" gradientUnits="userSpaceOnUse" x1="1905.35" y1="1172.67" x2="3445.5" y2="2764.95">
   <stop offset="0" style="stop-opacity:1; stop-color:#6AB3EB"/>
   <stop offset="1" style="stop-opacity:1; stop-color:#0D64AD"/>
  </linearGradient>
 </defs>
 <g id="Слой_x0020_1">
  <metadata id="CorelCorpID_0Corel-Layer"/>
  <path class="fil0" d="M3210.6 3429.43c1681.72,-2409.58 846.12,-1201.37 1681.72,-2409.58 798.46,585.31 1238.51,1272.1 1256.45,2409.58 -712.86,-1.81 -2225.3,1.82 -2938.17,0z"/>
  <path class="fil1" d="M1788.58 307.77c470.32,-249.08 1203.43,-371.07 1906.8,-273.78 528.27,73.07 1020.66,282.99 1478.14,582.96l-1962.92 2812.48c-469.3,-1028.1 -952.72,-2093.56 -1422.02,-3121.66z"/>
  <path class="fil2" d="M1857.31 458.41c-281.86,135.26 -620.53,341.74 -920.23,629.16 -452.52,434 -835.24,1050.24 -944.84,1799.07l3218.36 542.79c-455.32,-997.43 -897.98,-1973.57 -1353.29,-2971.02z"/>
  <path class="fil3" d="M107.27 2898.73c-160.61,942.8 362.77,2098.37 959.57,2648.79 2286.82,-2244.11 -143.06,126.02 2143.76,-2118.09 -1841.63,-314.94 -1010.7,-172.84 -3103.33,-530.7z"/>
  <path class="fil4" d="M1238.82 5356.59c666.28,705.76 1808.19,1006.52 2726.87,725.29 -704.78,-2504.95 -442.99,-1563.79 -755.08,-2652.44 -1858.47,1823.72 -113.32,103.42 -1971.79,1927.15z"/>
  <path class="fil5" d="M3210.6 3429.43c1077.84,2.72 1981.54,-3.13 3059.38,-0.42 -122.07,1632.85 -891.37,2384.79 -2262.92,2798.18l-796.46 -2797.76z"/>
  <circle class="fil6" transform="matrix(0.767136 0.325805 -0.325805 0.767136 3210.6 3429.44)" r="845.59"/>
  <path class="fil7" d="M4687.9 1787.08l444.1 0 159.35 160.26 0 431.88 -669.82 0 0 -525.77c0,-36.5 29.87,-66.37 66.37,-66.37zm242.74 244.56c39.24,0.01 69.82,11.18 91.74,33.52 21.92,22.33 32.88,50.67 32.88,85 0,34.09 -11.15,62.38 -33.43,84.83 -22.28,22.45 -52.67,33.68 -91.19,33.68l-73.02 0 0 -237.02 73.02 -0.01zm9.09 203.17c23.49,0 42.81,-8.17 57.94,-24.51 15.14,-16.35 22.71,-36.38 22.71,-60.14 0,-23.75 -7.57,-43.8 -22.71,-60.14 -15.13,-16.34 -34.45,-24.51 -57.94,-24.51l-47.23 0 0.01 169.3 47.22 0zm-190.04 -395.75l328.77 0c5.36,0 8.89,-0.63 11.86,2.05 58.45,58.18 64.18,64.55 101.42,102.29 3.42,3.47 -0.63,7.16 -3.47,7.16l-438.58 0c-30.66,0 -55.74,-25.09 -55.74,-55.75 0,-30.66 25.08,-55.75 55.74,-55.75zm541.66 565.43l0 42.37c0,36.49 -29.88,66.37 -66.37,66.37l-537.08 0c-36.49,0 -66.37,-29.87 -66.37,-66.37l0 -42.37 669.82 0z"/>
  <g id="_2178274175888">
   <polygon class="fil7" points="5181.25,1801.55 5224.75,1759.69 5309.93,1848.2 5266.43,1890.06 "/>
   <path class="fil7" d="M5349.63 1767.85c-14.73,13.86 -29.46,27.73 -44.19,41.59l-40.24 -42.36c19.93,-18.9 39.85,-37.79 59.78,-56.69 6.08,-4.45 9.54,-5.5 18.24,-5.52l47.62 0c16.12,0 29.3,13.18 29.3,29.3 0,16.11 -13.18,29.29 -29.3,29.29 -9.07,0 -18.19,-0.09 -27.29,-0.13 -8.83,-0.04 -10.02,1.58 -13.92,4.52z"/>
  </g>
  <path class="fil6" d="M1335.91 1265.56l403.73 0c46.5,0 84.55,38.05 84.55,84.54l0 15.59 -572.82 0 0 -15.59c0,-46.49 38.04,-84.54 84.54,-84.54zm190.58 -70.04l19.58 0 21.56 0c5.38,0 9.79,4.41 9.79,9.79l0 0c0,5.39 -4.41,9.8 -9.79,9.8l-21.56 0 0 29.14 -19.58 0 0 -29.14 -22.63 0c-5.38,0 -9.79,-4.41 -9.79,-9.8l0 0c0,-5.38 4.41,-9.79 9.79,-9.79l22.63 0zm162.34 -24.6l29.19 0 0 71.34 -29.19 0 0 -71.34zm-327.5 0l29.19 0 0 71.34 -29.19 0 0 -71.34zm-29.18 -57.84l415.05 0 0 35.38 -415.05 0 0 -35.38zm33.15 965.47l344.95 0 0 4.92c0,17.24 -14.1,31.35 -31.35,31.35l-282.25 0c-17.24,0 -31.35,-14.11 -31.35,-31.35l0 -4.92zm458.89 -688.73l0 539.78 -572.82 0 0 -539.78 572.82 0zm0 563.9l0 16.21c0,46.5 -38.05,84.54 -84.55,84.54l-403.73 0c-46.5,0 -84.54,-38.04 -84.54,-84.54l0 -16.21 572.82 0z"/>
  <polygon class="fil8" points="1545.81,1837.11 1431.43,1615.38 1397.22,1828.58 1345.32,1828.58 1406.02,1462.44 1545.81,1733.58 1684.53,1464.58 1744.87,1828.58 1694.04,1828.58 1659.91,1615.92 "/>
  <path class="fil6" d="M696.2 3268.82l499.21 0 179.13 180.15 0 485.48 -752.95 0 0 -591.02c0,-41.03 33.58,-74.61 74.61,-74.61zm142.08 562.55l-21.54 -47.49 -99.36 0 -21.55 47.49 -34.29 0 105.52 -226.86 105.51 226.86 -34.29 0zm-106.56 -79.14l70.67 0 -35.33 -77.87 -35.34 77.87zm175.39 79.14l-31.66 0 0 -221.59 31.66 0 0 221.59zm216.24 -121.68c20,11.43 30.01,29.24 30.01,53.42 0,20.88 -7.92,37.92 -23.75,51.11 -15.82,13.19 -35.17,19.79 -58.03,19.79 -22.87,0 -42.21,-6.6 -58.04,-19.79 -15.83,-13.19 -23.74,-30.23 -23.74,-51.11 0,-23.74 9.89,-41.55 29.67,-53.42 -12.75,-9.01 -19.12,-22.54 -19.12,-40.56 0,-17.59 6.87,-32.32 20.61,-44.19 13.74,-11.87 30.61,-17.81 50.62,-17.81 19.78,0 36.6,5.94 50.45,17.81 13.85,11.87 20.78,26.6 20.78,44.19 0,17.59 -6.49,31.11 -19.46,40.56zm-23.74 -62.33c-7.7,-5.71 -17.04,-8.57 -28.03,-8.57 -10.99,0 -20.34,2.86 -28.03,8.57 -7.7,5.72 -11.54,12.53 -11.54,20.45 0,7.91 3.84,14.73 11.54,20.44 7.69,5.72 17.04,8.58 28.03,8.58 10.99,0 20.33,-2.86 28.03,-8.58 7.69,-5.71 11.54,-12.53 11.54,-20.44 0,-7.92 -3.85,-14.73 -11.54,-20.45zm-63.48 143.94c9.78,7.37 21.6,11.05 35.45,11.05 13.85,0 25.66,-3.68 35.45,-11.05 9.78,-7.36 14.67,-16.43 14.67,-27.2 0,-10.77 -4.89,-19.84 -14.67,-27.21 -9.79,-7.36 -21.6,-11.04 -35.45,-11.04 -13.85,0 -25.67,3.68 -35.45,11.04 -9.79,7.37 -14.68,16.44 -14.68,27.21 0,10.77 4.89,19.84 14.68,27.2zm153.57 -151.36c15.28,-21.87 34.9,-32.81 58.87,-32.81 23.96,0 43.58,10.94 58.86,32.81 15.28,21.88 22.92,48.75 22.92,80.63 0,31.88 -7.64,58.75 -22.92,80.63 -15.28,21.87 -34.9,32.81 -58.86,32.81 -24.19,0 -43.86,-10.94 -59.03,-32.81 -15.17,-21.88 -22.75,-48.75 -22.75,-80.63 0,-31.88 7.64,-58.75 22.91,-80.63zm23.42 138.5c9.78,15.94 21.6,23.91 35.45,23.91 13.85,0 25.66,-7.97 35.45,-23.91 9.78,-15.93 14.67,-35.23 14.67,-57.87 0,-22.64 -4.89,-41.93 -14.67,-57.87 -9.79,-15.94 -21.6,-23.91 -35.45,-23.91 -13.85,0 -25.67,7.97 -35.45,23.91 -9.79,15.94 -14.68,35.23 -14.68,57.87 0,22.64 4.89,41.94 14.68,57.87zm-447.46 -451.19l369.57 0c6.02,0 9.99,-0.7 13.33,2.31 65.7,65.4 72.14,72.56 114,114.98 3.85,3.9 -0.7,8.05 -3.9,8.05l-493 0c-34.47,0 -62.66,-28.2 -62.66,-62.67 0,-34.46 28.19,-62.67 62.66,-62.67zm608.88 635.61l0 47.62c0,41.02 -33.59,74.61 -74.61,74.61l-603.73 0c-41.02,0 -74.61,-33.58 -74.61,-74.61l0 -47.62 752.95 0z"/>
  <g id="_2178274175312">
   <polygon class="fil6" points="1250.77,3285.09 1299.67,3238.03 1395.42,3337.52 1346.52,3384.58 "/>
   <path class="fil6" d="M1440.05 3247.21c-16.56,15.58 -33.12,31.16 -49.67,46.74l-45.24 -47.61c22.4,-21.24 44.8,-42.48 67.2,-63.72 6.83,-5.01 10.72,-6.19 20.5,-6.21l53.54 0c18.11,0 32.93,14.82 32.93,32.93 0,18.12 -14.82,32.94 -32.93,32.94 -10.2,0 -20.45,-0.1 -30.68,-0.15 -9.93,-0.05 -11.26,1.77 -15.65,5.08z"/>
  </g>
  <path class="fil6" d="M2491.79 4351.15l499.21 0 179.13 180.15 0 485.48 -752.95 0 0 -591.02c0,-41.03 33.58,-74.61 74.61,-74.61zm142.08 562.55l-21.54 -47.49 -99.36 0 -21.55 47.49 -34.29 0 105.52 -226.86 105.51 226.86 -34.29 0zm-106.56 -79.14l70.67 0 -35.33 -77.87 -35.34 77.87zm175.39 79.14l-31.66 0 0 -221.59 31.66 0 0 221.59zm158.2 -66.61c-22.2,0 -40.34,-7.31 -54.41,-21.93 -14.07,-14.62 -21.1,-32.04 -21.1,-52.27 0,-24.62 7.64,-44.68 22.91,-60.18 15.28,-15.5 34.9,-23.25 58.87,-23.25 24.18,0 43.86,7.81 59.02,23.42 15.17,15.6 22.76,36.38 22.76,62.32 0,24.62 -6.49,49.74 -19.46,75.35 -12.97,25.61 -32.31,46.66 -58.04,63.15l-56.06 0c1.54,-0.44 3.74,-1.26 6.6,-2.47 2.86,-1.21 8.24,-3.96 16.16,-8.25 7.91,-4.28 15.33,-9.07 22.26,-14.34 6.92,-5.28 14.4,-12.48 22.42,-21.6 8.02,-9.12 14.57,-18.96 19.62,-29.51 -11.43,6.37 -25.28,9.56 -41.55,9.56zm42.21 -112.12c-9.45,-9.23 -21.43,-13.85 -35.94,-13.85 -14.51,0 -26.49,4.62 -35.95,13.85 -9.45,9.23 -14.18,20.56 -14.18,33.97 0,13.41 4.57,24.51 13.69,33.3 9.12,8.79 21.27,13.19 36.44,13.19 14.51,0 26.49,-4.45 35.94,-13.35 9.45,-8.91 14.18,-19.95 14.18,-33.14 0,-13.41 -4.73,-24.74 -14.18,-33.97zm64.21 23.08c1.32,-18.9 8.63,-35.06 21.93,-48.47 13.3,-13.41 30.72,-20.12 52.27,-20.12 21.32,0 38.97,6.65 52.93,19.95 13.96,13.3 20.94,30.4 20.94,51.28 0,13.58 -3.91,26.49 -11.77,38.64 -7.8,12.2 -20.44,27.37 -37.92,45.62l-34.95 37.09 95.19 0 0 31.66 -163.56 0 80.68 -89.31c9.12,-10.06 15.94,-17.64 20.39,-22.59 4.5,-5 9.01,-11.32 13.52,-19.01 4.5,-7.7 6.76,-14.4 6.76,-20.12 0,-12.53 -3.9,-22.59 -11.71,-30.17 -7.8,-7.59 -17.97,-11.38 -30.5,-11.38 -12.09,0 -21.88,4.01 -29.35,12.04 -7.47,8.02 -11.65,18.08 -12.53,30.17l-32.32 -5.28zm-406.07 -348.47l369.57 0c6.02,0 9.99,-0.7 13.33,2.31 65.7,65.4 72.14,72.56 114,114.98 3.85,3.9 -0.7,8.05 -3.9,8.05l-493 0c-34.47,0 -62.66,-28.2 -62.66,-62.67 0,-34.46 28.19,-62.67 62.66,-62.67zm608.88 635.61l0 47.62c0,41.02 -33.59,74.61 -74.61,74.61l-603.73 0c-41.02,0 -74.61,-33.58 -74.61,-74.61l0 -47.62 752.95 0z"/>
  <g id="_2178274177712">
   <polygon class="fil6" points="3046.36,4367.42 3095.26,4320.36 3191.01,4419.85 3142.11,4466.91 "/>
   <path class="fil6" d="M3235.64 4329.54c-16.56,15.58 -33.12,31.16 -49.67,46.74l-45.24 -47.61c22.4,-21.24 44.8,-42.48 67.2,-63.72 6.83,-5.01 10.72,-6.19 20.5,-6.21l53.54 0c18.11,0 32.93,14.82 32.93,32.93 0,18.12 -14.82,32.94 -32.93,32.94 -10.2,0 -20.45,-0.1 -30.68,-0.15 -9.93,-0.05 -11.26,1.77 -15.65,5.08z"/>
  </g>
  <path class="fil6" d="M4406.08 3800.96l499.21 0 179.13 180.15 0 485.48 -752.95 0 0 -591.02c0,-41.03 33.58,-74.61 74.61,-74.61zm142.08 562.55l-21.54 -47.49 -99.36 0 -21.55 47.49 -34.29 0 105.52 -226.86 105.51 226.86 -34.29 0zm-106.56 -79.14l70.67 0 -35.33 -77.87 -35.34 77.87zm175.39 79.14l-31.66 0 0 -221.59 31.66 0 0 221.59zm158.2 -66.61c-22.2,0 -40.34,-7.31 -54.41,-21.93 -14.07,-14.62 -21.1,-32.04 -21.1,-52.27 0,-24.62 7.64,-44.68 22.91,-60.18 15.28,-15.5 34.9,-23.25 58.87,-23.25 24.18,0 43.86,7.81 59.02,23.42 15.17,15.6 22.76,36.38 22.76,62.32 0,24.62 -6.49,49.74 -19.46,75.35 -12.97,25.61 -32.31,46.66 -58.04,63.15l-56.06 0c1.54,-0.44 3.74,-1.26 6.6,-2.47 2.86,-1.21 8.24,-3.96 16.16,-8.25 7.91,-4.28 15.33,-9.07 22.26,-14.34 6.92,-5.28 14.4,-12.48 22.42,-21.6 8.02,-9.12 14.57,-18.96 19.62,-29.51 -11.43,6.37 -25.28,9.56 -41.55,9.56zm42.21 -112.12c-9.45,-9.23 -21.43,-13.85 -35.94,-13.85 -14.51,0 -26.49,4.62 -35.95,13.85 -9.45,9.23 -14.18,20.56 -14.18,33.97 0,13.41 4.57,24.51 13.69,33.3 9.12,8.79 21.27,13.19 36.44,13.19 14.51,0 26.49,-4.45 35.94,-13.35 9.45,-8.91 14.18,-19.95 14.18,-33.14 0,-13.41 -4.73,-24.74 -14.18,-33.97zm145.33 31c19.35,0 36.22,6.54 50.62,19.62 14.4,13.08 21.6,30.83 21.6,53.25 0,22.43 -7.8,40.95 -23.41,55.57 -15.61,14.62 -34.19,21.93 -55.73,21.93 -21.55,0 -39.79,-6.65 -54.74,-19.95 -14.95,-13.3 -23.08,-29.52 -24.4,-48.64l32.97 -3.3c1.1,10.77 5.94,20.17 14.51,28.19 8.58,8.03 19.13,12.04 31.66,12.04 12.97,0 24.13,-4.34 33.47,-13.02 9.34,-8.69 14.01,-19.3 14.01,-31.83 0,-12.31 -3.95,-22.42 -11.87,-30.33 -7.91,-7.92 -18.13,-11.88 -30.66,-11.88 -9.02,0 -17.87,2.31 -26.55,6.93 -8.68,4.62 -15.44,11.1 -20.28,19.46l-32.32 0 19.57 -131.91 112.67 0 0 31.66 -85.41 0 -8.3 56.77c11.6,-9.73 25.78,-14.56 42.59,-14.56zm-2.08 -398.55l48.9 -47.06 95.75 99.49 -48.9 47.06 -95.75 -99.49zm189.28 -37.88c-16.56,15.58 -33.12,31.16 -49.67,46.74l-45.24 -47.61c22.4,-21.24 44.8,-42.48 67.2,-63.72 6.83,-5.01 10.72,-6.19 20.5,-6.21l53.54 0c18.11,0 32.93,14.82 32.93,32.93 0,18.12 -14.82,32.94 -32.93,32.94 -10.2,0 -20.45,-0.1 -30.68,-0.15 -9.93,-0.05 -11.26,1.77 -15.65,5.08zm-674.39 80.04l369.57 0c6.02,0 9.99,-0.7 13.33,2.31 65.7,65.4 72.14,72.56 114,114.98 3.85,3.9 -0.7,8.05 -3.9,8.05l-493 0c-34.47,0 -62.66,-28.2 -62.66,-62.67 0,-34.46 28.19,-62.67 62.66,-62.67zm608.88 635.61l0 47.62c0,41.02 -33.59,74.61 -74.61,74.61l-603.73 0c-41.02,0 -74.61,-33.58 -74.61,-74.61l0 -47.62 752.95 0z"/>
  <path class="fil6" d="M3117.06 1266.84l462.27 0c53.24,0 96.8,43.56 96.8,96.8l0 17.84 -655.87 0 0 -17.84c0,-53.24 43.56,-96.8 96.8,-96.8zm218.21 -80.2l22.42 0 24.68 0c6.17,0 11.22,5.05 11.22,11.21l0 0c0,6.17 -5.05,11.22 -11.22,11.22l-24.68 0 0 33.36 -22.42 0 0 -33.36 -25.9 0c-6.17,0 -11.22,-5.05 -11.22,-11.22l0 0c0,-6.16 5.05,-11.21 11.22,-11.21l25.9 0zm185.88 -28.16l33.42 0 0 81.68 -33.42 0 0 -81.68zm-374.98 0l33.42 0 0 81.68 -33.42 0 0 -81.68zm-33.42 -66.23l475.23 0 0 40.51 -475.23 0 0 -40.51zm37.96 1105.45l394.97 0 0 5.63c0,19.75 -16.15,35.9 -35.9,35.9l-323.18 0c-19.74,0 -35.89,-16.15 -35.89,-35.9l0 -5.63zm525.42 -788.59l0 618.04 -655.87 0 0 -618.04 655.87 0zm0 645.67l0 18.55c0,53.24 -43.56,96.8 -96.8,96.8l-462.27 0c-53.24,0 -96.8,-43.56 -96.8,-96.8l0 -18.55 655.87 0z"/>
  <path class="fil9" d="M3359.16 1481.36c58.67,0 102.9,13.4 132.7,40.19 29.8,26.79 44.7,63.05 44.7,108.79 0,44.81 -14.1,82 -42.28,111.56 -28.17,29.57 -66.29,44.35 -114.32,44.35l-98.4 0 0 160.75 -66.53 0 0 -465.64 144.13 0zm21.48 238.36c26.34,0 47.82,-7.04 64.44,-21.13 16.64,-14.09 24.95,-35.45 24.95,-64.1 0,-28.63 -9.01,-50.23 -27.02,-64.78 -18.02,-14.55 -40.19,-21.82 -66.52,-21.82l-94.93 0 0 171.83 99.08 0z"/>
  <path class="fil10" d="M2618.78 458.27l0 410.6 -78.21 0 0 -332.39 -175.97 0 0 332.39 -78.21 0 0 -410.6 332.39 0zm224.86 0c51.73,0 90.73,12.43 117.01,37.27 26.27,24.85 39.41,58.05 39.41,99.6 0,37.07 -12.43,69.14 -37.28,96.23 -24.84,27.09 -58.04,40.63 -99.59,40.63l-87.99 0 0 136.87 -78.21 0 0 -410.6 146.65 0zm9.77 195.52c19.15,0 35.34,-5.49 48.58,-16.49 13.24,-11 19.86,-25.05 19.86,-42.16 0,-18.74 -6.42,-33.2 -19.25,-43.38 -12.83,-10.19 -29.23,-15.28 -49.19,-15.28l-78.21 0 0 117.31 78.21 0zm243.8 -142.36c41.95,-41.96 92.67,-62.93 152.14,-62.93 59.47,0 110.18,20.97 152.14,62.93 41.96,41.96 62.93,92.67 62.93,152.14 0,59.47 -20.97,110.19 -62.93,152.14 -41.96,41.96 -92.67,62.94 -152.14,62.94 -59.47,0 -110.19,-20.98 -152.14,-62.94 -41.96,-41.95 -62.94,-92.67 -62.94,-152.14 0,-59.47 20.98,-110.18 62.94,-152.14zm55.29 248.99c26.68,26.68 58.97,40.02 96.85,40.02 37.88,0 70.16,-13.34 96.84,-40.02 26.68,-26.69 40.02,-58.97 40.02,-96.85 0,-37.88 -13.34,-70.16 -40.02,-96.84 -26.68,-26.69 -58.96,-40.03 -96.84,-40.03 -37.88,0 -70.17,13.34 -96.85,40.03 -26.68,26.68 -40.02,58.96 -40.02,96.84 0,37.88 13.34,70.16 40.02,96.85zm698.08 -302.15l0 410.6 -78.21 0 0 -332.39 -175.97 0 0 332.39 -78.21 0 0 -410.6 332.39 0zm370.99 410.6l-32.69 -78.21 -181.88 0 -30.55 78.21 -87.98 0 169.86 -410.6 70.88 0 171.08 410.6 -78.72 0zm-183.4 -156.42l118.12 0 -61.3 -146.64 -56.82 146.64zm555.4 -254.18l78.21 0 0 410.6 -78.21 0 0 -166.19 -175.97 0 0 166.19 -78.21 0 0 -410.6 78.21 0 0 166.2 175.97 0 0 -166.2z"/>
  <path class="fil10" d="M1059.94 2353.96l58.66 410.6 -83.1 0 -32.48 -268.13 -107.23 268.13 -41.15 0 -107.53 -268.84 -34.22 268.84 -83.1 0 58.66 -410.6 75.66 0 108.86 267.11 108.76 -267.11 78.21 0zm371.49 78.21l-175.97 0 0 87.99 146.65 0 0 78.21 -146.65 0 0 87.98 175.97 0 0 78.21 -254.18 0 0 -410.6 254.18 0 0 78.21zm48.88 -78.21l293.29 0 0 78.21 -107.54 0 0 332.39 -78.21 0 0 -332.39 -107.54 0 0 -78.21zm595.84 410.6l-32.69 -78.21 -181.88 0 -30.55 78.21 -87.98 0 169.86 -410.6 70.88 0 171.08 410.6 -78.72 0zm-183.4 -156.42l118.12 0 -61.3 -146.64 -56.82 146.64zm555.4 -254.18l78.21 0 0 410.6 -78.21 0 0 -166.19 -175.97 0 0 166.19 -78.21 0 0 -410.6 78.21 0 0 166.2 175.97 0 0 -166.2z"/>
  <path class="fil10" d="M1883.97 5458.55c40.9,0 72.1,10.05 93.6,30.15 21.5,20.1 32.24,47.8 32.24,83.1 0,35.31 -11.18,63.01 -33.55,83.11 -22.37,20.1 -55.93,30.15 -100.67,30.15l-134.23 0 0 -352.35 234.9 0 0 67.11 -167.79 0 0 58.73 75.5 0zm0 159.4c17.48,0 31.64,-3.76 42.48,-11.28 10.83,-7.51 16.25,-19.14 16.25,-34.87 0,-14.33 -5.59,-25.6 -16.78,-33.81 -11.18,-8.22 -25.17,-12.33 -41.95,-12.33l-75.5 0 0 92.29 75.5 0zm390.11 -218.13l-151.01 0 0 75.51 125.84 0 0 67.11 -125.84 0 0 75.51 151.01 0 0 67.11 -218.12 0 0 -352.35 218.12 0 0 67.11zm276.85 -67.11l67.11 0 0 352.35 -67.11 0 0 -142.62 -151.01 0 0 142.62 -67.11 0 0 -352.35 67.11 0 0 142.62 151.01 0 0 -142.62zm209.73 203.44l0 -54.53c27.62,0 51.3,-4.46 71.05,-13.37 19.75,-8.91 29.62,-20.89 29.62,-35.92 0,-14.33 -6.46,-24.73 -19.4,-31.19 -12.93,-6.47 -26.74,-9.7 -41.42,-9.7 -19.23,0 -35.92,2.79 -50.07,8.38 -14.16,5.6 -28.93,13.99 -44.31,25.17l-30.41 -54.53c38.8,-30.76 81.79,-46.14 128.98,-46.14 34.61,0 63.89,9.61 87.83,28.84 23.94,19.22 35.92,44.57 35.92,76.03 0,32.51 -14.86,56.62 -44.57,72.35 15.73,4.9 28.49,14.51 38.27,28.84 9.79,14.33 14.69,30.94 14.69,49.81 0,32.51 -12.94,59.52 -38.8,81.01 -25.87,21.5 -58.9,32.25 -99.1,32.25 -49.99,0 -93.51,-16.08 -130.56,-48.24l33.56 -55.58c27.26,24.47 58.72,36.71 94.38,36.71 19.92,0 37.14,-4.11 51.64,-12.33 14.51,-8.21 21.76,-19.31 21.76,-33.29 0,-29.71 -36.35,-44.57 -109.06,-44.57zm289.43 -203.44l0 243.29 176.18 -243.29 67.11 0 0 352.35 -67.11 0 0 -244.16 -176.79 244.16 -66.5 0 0 -352.35 67.11 0zm528.53 0l67.11 0 0 352.35 -67.11 0 0 -142.62 -151.01 0 0 142.62 -67.11 0 0 -352.35 67.11 0 0 142.62 151.01 0 0 -142.62z"/>
  <path class="fil10" d="M3896.96 4926.19c40.9,0 72.1,10.05 93.6,30.15 21.5,20.1 32.24,47.8 32.24,83.1 0,35.31 -11.18,63.01 -33.55,83.11 -22.37,20.1 -55.93,30.15 -100.67,30.15l-134.23 0 0 -352.35 234.9 0 0 67.11 -167.79 0 0 58.73 75.5 0zm0 159.4c17.48,0 31.64,-3.76 42.48,-11.28 10.83,-7.51 16.25,-19.14 16.25,-34.87 0,-14.33 -5.59,-25.6 -16.78,-33.81 -11.18,-8.22 -25.17,-12.33 -41.95,-12.33l-75.5 0 0 92.29 75.5 0zm390.11 -218.13l-151.01 0 0 75.51 125.84 0 0 67.11 -125.84 0 0 75.51 151.01 0 0 67.11 -218.12 0 0 -352.35 218.12 0 0 67.11zm276.85 -67.11l67.11 0 0 352.35 -67.11 0 0 -142.62 -151.01 0 0 142.62 -67.11 0 0 -352.35 67.11 0 0 142.62 151.01 0 0 -142.62zm209.73 203.44l0 -54.53c27.62,0 51.3,-4.46 71.05,-13.37 19.75,-8.91 29.62,-20.89 29.62,-35.92 0,-14.33 -6.46,-24.73 -19.4,-31.19 -12.93,-6.47 -26.74,-9.7 -41.42,-9.7 -19.23,0 -35.92,2.79 -50.07,8.38 -14.16,5.6 -28.93,13.99 -44.31,25.17l-30.41 -54.53c38.8,-30.76 81.79,-46.14 128.98,-46.14 34.61,0 63.89,9.61 87.83,28.84 23.94,19.22 35.92,44.57 35.92,76.03 0,32.51 -14.86,56.62 -44.57,72.35 15.73,4.9 28.49,14.51 38.27,28.84 9.79,14.33 14.69,30.94 14.69,49.81 0,32.51 -12.94,59.52 -38.8,81.01 -25.87,21.5 -58.9,32.25 -99.1,32.25 -49.99,0 -93.51,-16.08 -130.56,-48.24l33.56 -55.58c27.26,24.47 58.72,36.71 94.38,36.71 19.92,0 37.14,-4.11 51.64,-12.33 14.51,-8.21 21.76,-19.31 21.76,-33.29 0,-29.71 -36.35,-44.57 -109.06,-44.57zm289.43 -203.44l0 243.29 176.18 -243.29 67.11 0 0 352.35 -67.11 0 0 -244.16 -176.79 244.16 -66.5 0 0 -352.35 67.11 0zm528.53 0l67.11 0 0 352.35 -67.11 0 0 -142.62 -151.01 0 0 142.62 -67.11 0 0 -352.35 67.11 0 0 142.62 151.01 0 0 -142.62z"/>
  <path class="fil11" d="M4308.31 3102.76l50.34 0 0 134.22 -67.12 0 0 -67.11 -226.51 0 0 67.11 -67.11 0 0 -134.22c14.68,-4.2 26.83,-10.93 36.44,-20.19 9.61,-9.26 17.3,-20.36 23.07,-33.3 5.77,-12.93 10.14,-31.46 13.11,-55.57 2.97,-24.12 4.89,-48.85 5.77,-74.2 0.87,-25.34 1.31,-59.33 1.31,-101.98l230.7 0 0 285.24zm-207.11 0l140 0 0 -218.13 -100.67 0c0,111.51 -13.11,184.22 -39.33,218.13zm383.29 -285.24l0 243.29 176.18 -243.29 67.11 0 0 352.35 -67.11 0 0 -244.16 -176.79 244.16 -66.5 0 0 -352.35 67.11 0zm385.91 203.44l0 -54.53c27.62,0 51.3,-4.46 71.05,-13.37 19.75,-8.91 29.62,-20.89 29.62,-35.92 0,-14.33 -6.46,-24.73 -19.4,-31.19 -12.93,-6.47 -26.74,-9.7 -41.42,-9.7 -19.23,0 -35.92,2.79 -50.07,8.38 -14.16,5.6 -28.93,13.99 -44.31,25.17l-30.41 -54.53c38.8,-30.76 81.79,-46.14 128.98,-46.14 34.61,0 63.89,9.61 87.83,28.84 23.94,19.22 35.92,44.57 35.92,76.03 0,32.51 -14.86,56.62 -44.57,72.35 15.73,4.9 28.49,14.51 38.27,28.84 9.79,14.33 14.69,30.94 14.69,49.81 0,32.51 -12.94,59.52 -38.8,81.01 -25.87,21.5 -58.9,32.25 -99.1,32.25 -49.99,0 -93.51,-16.08 -130.56,-48.24l33.56 -55.58c27.26,24.47 58.72,36.71 94.38,36.71 19.92,0 37.14,-4.11 51.64,-12.33 14.51,-8.21 21.76,-19.31 21.76,-33.29 0,-29.71 -36.35,-44.57 -109.06,-44.57zm440.44 -136.33l-151.01 0 0 75.51 125.84 0 0 67.11 -125.84 0 0 75.51 151.01 0 0 67.11 -218.12 0 0 -352.35 218.12 0 0 67.11zm369.13 -67.11l0 352.35 -67.11 0 0 -285.24 -117.45 0 0 146.82c0,41.24 -4.2,72.88 -12.59,94.9 -8.39,22.02 -25.34,37.58 -50.86,46.67 -19.22,6.99 -42.82,7.34 -70.78,1.04l0 -67.11c8.04,2.8 16.78,3.85 26.21,3.15 9.44,-0.7 16.96,-2.8 22.55,-6.3 12.23,-7.69 18.35,-23.94 18.35,-48.76l0 -237.52 251.68 0zm201.35 125.84c40.89,0 72.09,10.05 93.59,30.15 21.5,20.1 32.24,47.8 32.24,83.1 0,35.31 -11.18,63.01 -33.55,83.11 -22.37,20.1 -55.93,30.15 -100.67,30.15l-125.84 0 0 -352.35 67.11 0 0 125.84 67.12 0zm0 159.4c17.47,0 31.63,-3.76 42.47,-11.28 10.83,-7.51 16.25,-19.14 16.25,-34.87 0,-14.33 -5.59,-25.6 -16.78,-33.81 -11.18,-8.22 -25.17,-12.33 -41.94,-12.33l-67.12 0 0 92.29 67.12 0z"/>
  <path class="fil10" d="M561.52 4346.32c34.47,0 60.77,8.47 78.89,25.41 18.13,16.95 27.19,40.3 27.19,70.06 0,29.76 -9.43,53.11 -28.29,70.06 -18.86,16.94 -47.15,25.41 -84.86,25.41l-113.15 0 0 -297.02 198.01 0 0 56.58 -141.44 0 0 49.5 63.65 0zm0 134.37c14.73,0 26.67,-3.17 35.8,-9.51 9.13,-6.33 13.7,-16.13 13.7,-29.39 0,-12.08 -4.71,-21.58 -14.14,-28.51 -9.43,-6.92 -21.22,-10.38 -35.36,-10.38l-63.65 0 0 77.79 63.65 0zm328.84 -183.87l-127.3 0 0 63.64 106.08 0 0 56.58 -106.08 0 0 63.65 127.3 0 0 56.57 -183.87 0 0 -297.02 183.87 0 0 56.58zm233.37 -56.58l56.57 0 0 297.02 -56.57 0 0 -120.22 -127.3 0 0 120.22 -56.57 0 0 -297.02 56.57 0 0 120.22 127.3 0 0 -120.22zm176.79 171.49l0 -45.96c23.28,0 43.25,-3.76 59.89,-11.27 16.65,-7.52 24.98,-17.61 24.98,-30.28 0,-12.08 -5.46,-20.85 -16.36,-26.3 -10.9,-5.45 -22.54,-8.17 -34.91,-8.17 -16.21,0 -30.28,2.35 -42.21,7.07 -11.94,4.71 -24.39,11.78 -37.35,21.21l-25.64 -45.96c32.71,-25.93 68.95,-38.9 108.73,-38.9 29.17,0 53.85,8.1 74.03,24.31 20.19,16.21 30.28,37.57 30.28,64.09 0,27.4 -12.52,47.73 -37.57,60.99 13.26,4.13 24.02,12.23 32.27,24.31 8.25,12.08 12.37,26.08 12.37,41.99 0,27.41 -10.9,50.17 -32.7,68.29 -21.81,18.12 -49.65,27.18 -83.54,27.18 -42.14,0 -78.82,-13.55 -110.06,-40.66l28.29 -46.85c22.98,20.62 49.5,30.94 79.56,30.94 16.79,0 31.31,-3.47 43.54,-10.39 12.22,-6.92 18.34,-16.28 18.34,-28.07 0,-25.04 -30.65,-37.57 -91.94,-37.57zm243.98 -171.49l0 205.09 148.51 -205.09 56.58 0 0 297.02 -56.58 0 0 -205.82 -149.02 205.82 -56.06 0 0 -297.02 56.57 0zm445.53 0l56.57 0 0 297.02 -56.57 0 0 -120.22 -127.3 0 0 120.22 -56.57 0 0 -297.02 56.57 0 0 120.22 127.3 0 0 -120.22z"/>
 </g>
</svg>
