<?xml version="1.0" encoding="UTF-8"?>
<!DOCTYPE svg PUBLIC "-//W3C//DTD SVG 1.1//EN" "http://www.w3.org/Graphics/SVG/1.1/DTD/svg11.dtd">
<!-- Creator: CorelDRAW -->
<svg xmlns="http://www.w3.org/2000/svg" xml:space="preserve" width="62.771mm" height="62.2666mm" version="1.1" style="shape-rendering:geometricPrecision; text-rendering:geometricPrecision; image-rendering:optimizeQuality; fill-rule:evenodd; clip-rule:evenodd"
viewBox="0 0 6277.1 6226.66"
 xmlns:xlink="http://www.w3.org/1999/xlink"
 xmlns:xodm="http://www.corel.com/coreldraw/odm/2003">
 <defs>
  <style type="text/css">
   <![CDATA[
    .fil7 {fill:#FEFEFE}
    .fil6 {fill:#FEFEFE}
    .fil9 {fill:#4696D3;fill-rule:nonzero}
    .fil8 {fill:#4D65A3;fill-rule:nonzero}
    .fil10 {fill:#FEFEFE;fill-rule:nonzero}
    .fil4 {fill:url(#id0)}
    .fil2 {fill:url(#id1)}
    .fil5 {fill:url(#id2)}
    .fil3 {fill:url(#id3)}
    .fil0 {fill:url(#id4)}
    .fil1 {fill:url(#id5)}
   ]]>
  </style>
  <linearGradient id="id0" gradientUnits="userSpaceOnUse" x1="4460.56" y1="5263.63" x2="1801.73" y2="4630.58">
   <stop offset="0" style="stop-opacity:1; stop-color:#FCB441"/>
   <stop offset="1" style="stop-opacity:1; stop-color:#E6851E"/>
  </linearGradient>
  <linearGradient id="id1" gradientUnits="userSpaceOnUse" x1="905.96" y1="3414.27" x2="2525.11" y2="1302.55">
   <stop offset="0" style="stop-opacity:1; stop-color:#6984C7"/>
   <stop offset="1" style="stop-opacity:1; stop-color:#364896"/>
  </linearGradient>
  <linearGradient id="id2" gradientUnits="userSpaceOnUse" x1="6151.21" y1="2619.7" x2="3596.64" y2="5233.85">
   <stop offset="0" style="stop-opacity:1; stop-color:#F2A864"/>
   <stop offset="1" style="stop-opacity:1; stop-color:#D77C21"/>
  </linearGradient>
  <linearGradient id="id3" gradientUnits="userSpaceOnUse" x1="2241.53" y1="5247.27" x2="973.93" y2="2909.06">
   <stop offset="0" style="stop-opacity:1; stop-color:#47AF5D"/>
   <stop offset="1" style="stop-opacity:1; stop-color:#34784B"/>
  </linearGradient>
  <linearGradient id="id4" gradientUnits="userSpaceOnUse" x1="4019.42" y1="1687.57" x2="5218.47" y2="3546.1">
   <stop offset="0" style="stop-opacity:1; stop-color:#F78854"/>
   <stop offset="1" style="stop-opacity:1; stop-color:#C15720"/>
  </linearGradient>
  <linearGradient id="id5" gradientUnits="userSpaceOnUse" x1="1905.35" y1="1172.67" x2="3445.5" y2="2764.95">
   <stop offset="0" style="stop-opacity:1; stop-color:#6AB3EB"/>
   <stop offset="1" style="stop-opacity:1; stop-color:#0D64AD"/>
  </linearGradient>
 </defs>
 <g id="Слой_x0020_1">
  <metadata id="CorelCorpID_0Corel-Layer"/>
  <path class="fil0" d="M3210.6 3429.43c1681.72,-2409.58 846.12,-1201.37 1681.72,-2409.58 798.46,585.31 1238.51,1272.1 1256.45,2409.58 -712.86,-1.81 -2225.3,1.82 -2938.17,0z"/>
  <path class="fil1" d="M1788.58 307.77c470.32,-249.08 1203.43,-371.07 1906.8,-273.78 528.27,73.07 1020.66,282.99 1478.14,582.96l-1962.92 2812.48c-469.3,-1028.1 -952.72,-2093.56 -1422.02,-3121.66z"/>
  <path class="fil2" d="M1857.31 458.41c-281.86,135.26 -620.53,341.74 -920.23,629.16 -452.52,434 -835.24,1050.24 -944.84,1799.07l3218.36 542.79c-455.32,-997.43 -897.98,-1973.57 -1353.29,-2971.02z"/>
  <path class="fil3" d="M107.27 2898.73c-160.61,942.8 362.77,2098.37 959.57,2648.79 2286.82,-2244.11 -143.06,126.02 2143.76,-2118.09 -1841.63,-314.94 -1010.7,-172.84 -3103.33,-530.7z"/>
  <path class="fil4" d="M1238.81 5356.58c666.28,705.76 1808.19,1006.52 2726.87,725.29 -704.78,-2504.95 -442.99,-1563.79 -755.08,-2652.44 -1858.47,1823.72 -113.32,103.42 -1971.79,1927.15z"/>
  <path class="fil5" d="M3210.6 3429.43c1077.84,2.72 1981.54,-3.13 3059.38,-0.42 -122.07,1632.85 -891.37,2384.79 -2262.92,2798.18l-796.46 -2797.76z"/>
  <circle class="fil6" transform="matrix(0.767136 0.325805 -0.325805 0.767136 3210.6 3429.44)" r="845.59"/>
  <path class="fil7" d="M4687.9 1787.08l444.1 0 159.35 160.26 0 431.88 -669.82 0 0 -525.77c0,-36.5 29.87,-66.37 66.37,-66.37zm242.74 244.56c39.24,0.01 69.82,11.18 91.74,33.52 21.92,22.33 32.88,50.67 32.88,85 0,34.09 -11.15,62.38 -33.43,84.83 -22.28,22.45 -52.67,33.68 -91.19,33.68l-73.02 0 0 -237.02 73.02 -0.01zm9.09 203.17c23.49,0 42.81,-8.17 57.94,-24.51 15.14,-16.35 22.71,-36.38 22.71,-60.14 0,-23.75 -7.57,-43.8 -22.71,-60.14 -15.13,-16.34 -34.45,-24.51 -57.94,-24.51l-47.23 0 0.01 169.3 47.22 0zm-190.04 -395.75l328.77 0c5.36,0 8.89,-0.63 11.86,2.05 58.45,58.18 64.18,64.55 101.42,102.29 3.42,3.47 -0.63,7.16 -3.47,7.16l-438.58 0c-30.66,0 -55.74,-25.09 -55.74,-55.75 0,-30.66 25.08,-55.75 55.74,-55.75zm541.66 565.43l0 42.37c0,36.49 -29.88,66.37 -66.37,66.37l-537.08 0c-36.49,0 -66.37,-29.87 -66.37,-66.37l0 -42.37 669.82 0z"/>
  <g id="_2178482681904">
   <polygon class="fil7" points="5181.25,1801.55 5224.75,1759.69 5309.93,1848.2 5266.43,1890.06 "/>
   <path class="fil7" d="M5349.63 1767.85c-14.73,13.86 -29.46,27.73 -44.19,41.59l-40.24 -42.36c19.93,-18.9 39.85,-37.79 59.78,-56.69 6.08,-4.45 9.54,-5.5 18.24,-5.52l47.62 0c16.12,0 29.3,13.18 29.3,29.3 0,16.11 -13.18,29.29 -29.3,29.29 -9.07,0 -18.19,-0.09 -27.29,-0.13 -8.83,-0.04 -10.02,1.58 -13.92,4.52z"/>
  </g>
  <path class="fil6" d="M1335.91 1265.56l403.73 0c46.5,0 84.55,38.05 84.55,84.54l0 15.59 -572.82 0 0 -15.59c0,-46.49 38.04,-84.54 84.54,-84.54zm190.58 -70.04l19.58 0 21.56 0c5.38,0 9.79,4.41 9.79,9.79l0 0c0,5.39 -4.41,9.8 -9.79,9.8l-21.56 0 0 29.14 -19.58 0 0 -29.14 -22.63 0c-5.38,0 -9.79,-4.41 -9.79,-9.8l0 0c0,-5.38 4.41,-9.79 9.79,-9.79l22.63 0zm162.34 -24.6l29.19 0 0 71.34 -29.19 0 0 -71.34zm-327.5 0l29.19 0 0 71.34 -29.19 0 0 -71.34zm-29.18 -57.84l415.05 0 0 35.38 -415.05 0 0 -35.38zm33.15 965.47l344.95 0 0 4.92c0,17.24 -14.1,31.35 -31.35,31.35l-282.25 0c-17.24,0 -31.35,-14.11 -31.35,-31.35l0 -4.92zm458.89 -688.73l0 539.78 -572.82 0 0 -539.78 572.82 0zm0 563.9l0 16.21c0,46.5 -38.05,84.54 -84.55,84.54l-403.73 0c-46.5,0 -84.54,-38.04 -84.54,-84.54l0 -16.21 572.82 0z"/>
  <polygon class="fil8" points="1545.81,1837.11 1431.43,1615.38 1397.22,1828.58 1345.32,1828.58 1406.02,1462.44 1545.81,1733.58 1684.53,1464.58 1744.87,1828.58 1694.04,1828.58 1659.91,1615.92 "/>
  <path class="fil6" d="M696.2 3268.82l499.21 0 179.13 180.15 0 485.48 -752.95 0 0 -591.02c0,-41.03 33.58,-74.61 74.61,-74.61zm142.08 562.55l-21.54 -47.49 -99.36 0 -21.55 47.49 -34.29 0 105.52 -226.86 105.51 226.86 -34.29 0zm-106.56 -79.14l70.67 0 -35.33 -77.87 -35.34 77.87zm175.39 79.14l-31.66 0 0 -221.59 31.66 0 0 221.59zm216.24 -121.68c20,11.43 30.01,29.24 30.01,53.42 0,20.88 -7.92,37.92 -23.75,51.11 -15.82,13.19 -35.17,19.79 -58.03,19.79 -22.87,0 -42.21,-6.6 -58.04,-19.79 -15.83,-13.19 -23.74,-30.23 -23.74,-51.11 0,-23.74 9.89,-41.55 29.67,-53.42 -12.75,-9.01 -19.12,-22.54 -19.12,-40.56 0,-17.59 6.87,-32.32 20.61,-44.19 13.74,-11.87 30.61,-17.81 50.62,-17.81 19.78,0 36.6,5.94 50.45,17.81 13.85,11.87 20.78,26.6 20.78,44.19 0,17.59 -6.49,31.11 -19.46,40.56zm-23.74 -62.33c-7.7,-5.71 -17.04,-8.57 -28.03,-8.57 -10.99,0 -20.34,2.86 -28.03,8.57 -7.7,5.72 -11.54,12.53 -11.54,20.45 0,7.91 3.84,14.73 11.54,20.44 7.69,5.72 17.04,8.58 28.03,8.58 10.99,0 20.33,-2.86 28.03,-8.58 7.69,-5.71 11.54,-12.53 11.54,-20.44 0,-7.92 -3.85,-14.73 -11.54,-20.45zm-63.48 143.94c9.78,7.37 21.6,11.05 35.45,11.05 13.85,0 25.66,-3.68 35.45,-11.05 9.78,-7.36 14.67,-16.43 14.67,-27.2 0,-10.77 -4.89,-19.84 -14.67,-27.21 -9.79,-7.36 -21.6,-11.04 -35.45,-11.04 -13.85,0 -25.67,3.68 -35.45,11.04 -9.79,7.37 -14.68,16.44 -14.68,27.21 0,10.77 4.89,19.84 14.68,27.2zm153.57 -151.36c15.28,-21.87 34.9,-32.81 58.87,-32.81 23.96,0 43.58,10.94 58.86,32.81 15.28,21.88 22.92,48.75 22.92,80.63 0,31.88 -7.64,58.75 -22.92,80.63 -15.28,21.87 -34.9,32.81 -58.86,32.81 -24.19,0 -43.86,-10.94 -59.03,-32.81 -15.17,-21.88 -22.75,-48.75 -22.75,-80.63 0,-31.88 7.64,-58.75 22.91,-80.63zm23.42 138.5c9.78,15.94 21.6,23.91 35.45,23.91 13.85,0 25.66,-7.97 35.45,-23.91 9.78,-15.93 14.67,-35.23 14.67,-57.87 0,-22.64 -4.89,-41.93 -14.67,-57.87 -9.79,-15.94 -21.6,-23.91 -35.45,-23.91 -13.85,0 -25.67,7.97 -35.45,23.91 -9.79,15.94 -14.68,35.23 -14.68,57.87 0,22.64 4.89,41.94 14.68,57.87zm-447.46 -451.19l369.57 0c6.02,0 9.99,-0.7 13.33,2.31 65.7,65.4 72.14,72.56 114,114.98 3.85,3.9 -0.7,8.05 -3.9,8.05l-493 0c-34.47,0 -62.66,-28.2 -62.66,-62.67 0,-34.46 28.19,-62.67 62.66,-62.67zm608.88 635.61l0 47.62c0,41.02 -33.59,74.61 -74.61,74.61l-603.73 0c-41.02,0 -74.61,-33.58 -74.61,-74.61l0 -47.62 752.95 0z"/>
  <g id="_2178482680704">
   <polygon class="fil6" points="1250.77,3285.09 1299.67,3238.03 1395.42,3337.52 1346.52,3384.58 "/>
   <path class="fil6" d="M1440.05 3247.21c-16.56,15.58 -33.12,31.16 -49.67,46.74l-45.24 -47.61c22.4,-21.24 44.8,-42.48 67.2,-63.72 6.83,-5.01 10.72,-6.19 20.5,-6.21l53.54 0c18.11,0 32.93,14.82 32.93,32.93 0,18.12 -14.82,32.94 -32.93,32.94 -10.2,0 -20.45,-0.1 -30.68,-0.15 -9.93,-0.05 -11.26,1.77 -15.65,5.08z"/>
  </g>
  <path class="fil6" d="M2491.79 4351.15l499.21 0 179.13 180.15 0 485.48 -752.95 0 0 -591.02c0,-41.03 33.58,-74.61 74.61,-74.61zm142.08 562.55l-21.54 -47.49 -99.36 0 -21.55 47.49 -34.29 0 105.52 -226.86 105.51 226.86 -34.29 0zm-106.56 -79.14l70.67 0 -35.33 -77.87 -35.34 77.87zm175.39 79.14l-31.66 0 0 -221.59 31.66 0 0 221.59zm158.2 -66.61c-22.2,0 -40.34,-7.31 -54.41,-21.93 -14.07,-14.62 -21.1,-32.04 -21.1,-52.27 0,-24.62 7.64,-44.68 22.91,-60.18 15.28,-15.5 34.9,-23.25 58.87,-23.25 24.18,0 43.86,7.81 59.02,23.42 15.17,15.6 22.76,36.38 22.76,62.32 0,24.62 -6.49,49.74 -19.46,75.35 -12.97,25.61 -32.31,46.66 -58.04,63.15l-56.06 0c1.54,-0.44 3.74,-1.26 6.6,-2.47 2.86,-1.21 8.24,-3.96 16.16,-8.25 7.91,-4.28 15.33,-9.07 22.26,-14.34 6.92,-5.28 14.4,-12.48 22.42,-21.6 8.02,-9.12 14.57,-18.96 19.62,-29.51 -11.43,6.37 -25.28,9.56 -41.55,9.56zm42.21 -112.12c-9.45,-9.23 -21.43,-13.85 -35.94,-13.85 -14.51,0 -26.49,4.62 -35.95,13.85 -9.45,9.23 -14.18,20.56 -14.18,33.97 0,13.41 4.57,24.51 13.69,33.3 9.12,8.79 21.27,13.19 36.44,13.19 14.51,0 26.49,-4.45 35.94,-13.35 9.45,-8.91 14.18,-19.95 14.18,-33.14 0,-13.41 -4.73,-24.74 -14.18,-33.97zm64.21 23.08c1.32,-18.9 8.63,-35.06 21.93,-48.47 13.3,-13.41 30.72,-20.12 52.27,-20.12 21.32,0 38.97,6.65 52.93,19.95 13.96,13.3 20.94,30.4 20.94,51.28 0,13.58 -3.91,26.49 -11.77,38.64 -7.8,12.2 -20.44,27.37 -37.92,45.62l-34.95 37.09 95.19 0 0 31.66 -163.56 0 80.68 -89.31c9.12,-10.06 15.94,-17.64 20.39,-22.59 4.5,-5 9.01,-11.32 13.52,-19.01 4.5,-7.7 6.76,-14.4 6.76,-20.12 0,-12.53 -3.9,-22.59 -11.71,-30.17 -7.8,-7.59 -17.97,-11.38 -30.5,-11.38 -12.09,0 -21.88,4.01 -29.35,12.04 -7.47,8.02 -11.65,18.08 -12.53,30.17l-32.32 -5.28zm-406.07 -348.47l369.57 0c6.02,0 9.99,-0.7 13.33,2.31 65.7,65.4 72.14,72.56 114,114.98 3.85,3.9 -0.7,8.05 -3.9,8.05l-493 0c-34.47,0 -62.66,-28.2 -62.66,-62.67 0,-34.46 28.19,-62.67 62.66,-62.67zm608.88 635.61l0 47.62c0,41.02 -33.59,74.61 -74.61,74.61l-603.73 0c-41.02,0 -74.61,-33.58 -74.61,-74.61l0 -47.62 752.95 0z"/>
  <g id="_2178482679360">
   <polygon class="fil6" points="3046.36,4367.42 3095.26,4320.36 3191.01,4419.85 3142.11,4466.91 "/>
   <path class="fil6" d="M3235.64 4329.54c-16.56,15.58 -33.12,31.16 -49.67,46.74l-45.24 -47.61c22.4,-21.24 44.8,-42.48 67.2,-63.72 6.83,-5.01 10.72,-6.19 20.5,-6.21l53.54 0c18.11,0 32.93,14.82 32.93,32.93 0,18.12 -14.82,32.94 -32.93,32.94 -10.2,0 -20.45,-0.1 -30.68,-0.15 -9.93,-0.05 -11.26,1.77 -15.65,5.08z"/>
  </g>
  <path class="fil6" d="M4406.08 3800.96l499.21 0 179.13 180.15 0 485.48 -752.95 0 0 -591.02c0,-41.03 33.58,-74.61 74.61,-74.61zm142.08 562.55l-21.54 -47.49 -99.36 0 -21.55 47.49 -34.29 0 105.52 -226.86 105.51 226.86 -34.29 0zm-106.56 -79.14l70.67 0 -35.33 -77.87 -35.34 77.87zm175.39 79.14l-31.66 0 0 -221.59 31.66 0 0 221.59zm158.2 -66.61c-22.2,0 -40.34,-7.31 -54.41,-21.93 -14.07,-14.62 -21.1,-32.04 -21.1,-52.27 0,-24.62 7.64,-44.68 22.91,-60.18 15.28,-15.5 34.9,-23.25 58.87,-23.25 24.18,0 43.86,7.81 59.02,23.42 15.17,15.6 22.76,36.38 22.76,62.32 0,24.62 -6.49,49.74 -19.46,75.35 -12.97,25.61 -32.31,46.66 -58.04,63.15l-56.06 0c1.54,-0.44 3.74,-1.26 6.6,-2.47 2.86,-1.21 8.24,-3.96 16.16,-8.25 7.91,-4.28 15.33,-9.07 22.26,-14.34 6.92,-5.28 14.4,-12.48 22.42,-21.6 8.02,-9.12 14.57,-18.96 19.62,-29.51 -11.43,6.37 -25.28,9.56 -41.55,9.56zm42.21 -112.12c-9.45,-9.23 -21.43,-13.85 -35.94,-13.85 -14.51,0 -26.49,4.62 -35.95,13.85 -9.45,9.23 -14.18,20.56 -14.18,33.97 0,13.41 4.57,24.51 13.69,33.3 9.12,8.79 21.27,13.19 36.44,13.19 14.51,0 26.49,-4.45 35.94,-13.35 9.45,-8.91 14.18,-19.95 14.18,-33.14 0,-13.41 -4.73,-24.74 -14.18,-33.97zm145.33 31c19.35,0 36.22,6.54 50.62,19.62 14.4,13.08 21.6,30.83 21.6,53.25 0,22.43 -7.8,40.95 -23.41,55.57 -15.61,14.62 -34.19,21.93 -55.73,21.93 -21.55,0 -39.79,-6.65 -54.74,-19.95 -14.95,-13.3 -23.08,-29.52 -24.4,-48.64l32.97 -3.3c1.1,10.77 5.94,20.17 14.51,28.19 8.58,8.03 19.13,12.04 31.66,12.04 12.97,0 24.13,-4.34 33.47,-13.02 9.34,-8.69 14.01,-19.3 14.01,-31.83 0,-12.31 -3.95,-22.42 -11.87,-30.33 -7.91,-7.92 -18.13,-11.88 -30.66,-11.88 -9.02,0 -17.87,2.31 -26.55,6.93 -8.68,4.62 -15.44,11.1 -20.28,19.46l-32.32 0 19.57 -131.91 112.67 0 0 31.66 -85.41 0 -8.3 56.77c11.6,-9.73 25.78,-14.56 42.59,-14.56zm-2.08 -398.55l48.9 -47.06 95.75 99.49 -48.9 47.06 -95.75 -99.49zm189.28 -37.88c-16.56,15.58 -33.12,31.16 -49.67,46.74l-45.24 -47.61c22.4,-21.24 44.8,-42.48 67.2,-63.72 6.83,-5.01 10.72,-6.19 20.5,-6.21l53.54 0c18.11,0 32.93,14.82 32.93,32.93 0,18.12 -14.82,32.94 -32.93,32.94 -10.2,0 -20.45,-0.1 -30.68,-0.15 -9.93,-0.05 -11.26,1.77 -15.65,5.08zm-674.39 80.04l369.57 0c6.02,0 9.99,-0.7 13.33,2.31 65.7,65.4 72.14,72.56 114,114.98 3.85,3.9 -0.7,8.05 -3.9,8.05l-493 0c-34.47,0 -62.66,-28.2 -62.66,-62.67 0,-34.46 28.19,-62.67 62.66,-62.67zm608.88 635.61l0 47.62c0,41.02 -33.59,74.61 -74.61,74.61l-603.73 0c-41.02,0 -74.61,-33.58 -74.61,-74.61l0 -47.62 752.95 0z"/>
  <path class="fil6" d="M3117.06 1266.84l462.27 0c53.24,0 96.8,43.56 96.8,96.8l0 17.84 -655.87 0 0 -17.84c0,-53.24 43.56,-96.8 96.8,-96.8zm218.21 -80.2l22.42 0 24.68 0c6.17,0 11.22,5.05 11.22,11.21l0 0c0,6.17 -5.05,11.22 -11.22,11.22l-24.68 0 0 33.36 -22.42 0 0 -33.36 -25.9 0c-6.17,0 -11.22,-5.05 -11.22,-11.22l0 0c0,-6.16 5.05,-11.21 11.22,-11.21l25.9 0zm185.88 -28.16l33.42 0 0 81.68 -33.42 0 0 -81.68zm-374.98 0l33.42 0 0 81.68 -33.42 0 0 -81.68zm-33.42 -66.23l475.23 0 0 40.51 -475.23 0 0 -40.51zm37.96 1105.45l394.97 0 0 5.63c0,19.75 -16.15,35.9 -35.9,35.9l-323.18 0c-19.74,0 -35.89,-16.15 -35.89,-35.9l0 -5.63zm525.42 -788.59l0 618.04 -655.87 0 0 -618.04 655.87 0zm0 645.67l0 18.55c0,53.24 -43.56,96.8 -96.8,96.8l-462.27 0c-53.24,0 -96.8,-43.56 -96.8,-96.8l0 -18.55 655.87 0z"/>
  <path class="fil9" d="M3359.16 1481.36c58.67,0 102.9,13.4 132.7,40.19 29.8,26.79 44.7,63.05 44.7,108.79 0,44.81 -14.1,82 -42.28,111.56 -28.17,29.57 -66.29,44.35 -114.32,44.35l-98.4 0 0 160.75 -66.53 0 0 -465.64 144.13 0zm21.48 238.36c26.34,0 47.82,-7.04 64.44,-21.13 16.64,-14.09 24.95,-35.45 24.95,-64.1 0,-28.63 -9.01,-50.23 -27.02,-64.78 -18.02,-14.55 -40.19,-21.82 -66.52,-21.82l-94.93 0 0 171.83 99.08 0z"/>
  <path class="fil10" d="M4346.04 2792.2c68.78,0 122.31,18.99 160.62,56.97 38.3,37.98 57.44,86.16 57.44,144.53 0,57.98 -19.45,106.05 -58.37,144.23 -38.92,38.18 -92.15,57.27 -159.69,57.27l-137.76 0 0 -403 137.76 0zm14.21 326.24c36.66,0 66.61,-11.99 89.88,-35.98 23.27,-23.99 34.91,-53.57 34.91,-88.76 0,-35.18 -11.64,-64.77 -34.91,-88.75 -23.27,-23.99 -53.22,-35.99 -89.88,-35.99l-72.89 0 0 249.48 72.89 0zm337.29 76.76l-79.08 0 0 -403 79.08 0 0 403zm385.36 0l-326.06 0 197.78 -326.24 -187.79 0 0 -76.76 326.06 0 -197.78 326.24 187.79 0 0 76.76zm326.28 -326.24l-177.91 0 0 86.36 148.25 0 0 76.77 -148.25 0 0 86.35 177.91 0 0 76.76 -256.99 0 0 -403 256.99 0 0 76.76zm148.25 249.48l168.02 0 0 76.76 -247.1 0 0 -403 79.08 0 0 326.24z"/>
  <path class="fil10" d="M1021.16 2354.14l59.31 403.01 -84.01 0 -32.85 -263.18 -108.41 263.18 -41.59 0 -108.72 -263.88 -34.6 263.88 -84.01 0 59.3 -403.01 76.5 0 110.06 262.18 109.96 -262.18 79.06 0zm375.6 76.76l-177.91 0 0 86.36 148.25 0 0 76.77 -148.25 0 0 86.36 177.91 0 0 76.76 -256.99 0 0 -403.01 256.99 0 0 76.76zm49.41 -76.76l296.52 0 0 76.76 -108.72 0 0 326.25 -79.08 0 0 -326.25 -108.72 0 0 -76.76zm602.4 403.01l-33.05 -76.76 -183.87 0 -30.9 76.76 -88.95 0 171.73 -403.01 71.66 0 172.97 403.01 -79.59 0zm-185.43 -153.53l119.44 0 -61.98 -143.93 -57.46 143.93zm591.18 -249.48l79.08 0 0 403.01 -79.08 0 -207.55 -278.27 0 278.27 -79.08 0 0 -403.01 78.35 0 208.28 279.27 0 -279.27z"/>
  <path class="fil10" d="M637.06 4376.99c18.77,4.71 32.59,13.82 41.49,27.33 8.9,13.5 13.34,29.36 13.34,47.57 0,27.95 -10.02,50.8 -30.08,68.54 -20.05,17.75 -47.23,26.62 -81.52,26.62l-144.6 0 0 -316.56 116.46 0c39.13,0 69.62,6.75 91.46,20.26 21.84,13.5 32.76,34.39 32.76,62.65 0,15.07 -3.64,28.18 -10.92,39.33 -7.29,11.15 -16.74,19.24 -28.39,24.26zm-139.25 -86.2l0 60.29 58.22 0c38.82,0 58.22,-10.04 58.22,-30.14 0,-11.62 -4.68,-19.55 -14.07,-23.79 -9.38,-4.24 -24.1,-6.36 -44.15,-6.36l-58.22 0zm65.98 195.96c44,0 66,-13.82 66,-41.45 0,-13.82 -5.83,-24.18 -17.47,-31.09 -11.65,-6.91 -27.82,-10.37 -48.53,-10.37l-65.98 0 0 82.91 65.98 0zm372.65 -195.96l-139.73 0 0 67.83 116.44 0 0 60.3 -116.44 0 0 67.83 139.73 0 0 60.3 -201.85 0 0 -316.56 201.85 0 0 60.3zm279.49 -60.3l62.11 0 0 316.56 -62.11 0 -163.03 -218.58 0 218.58 -62.11 0 0 -316.56 61.54 0 163.6 219.36 0 -219.36zm364.81 316.56l-256.12 0 155.36 -256.26 -147.51 0 0 -60.3 256.12 0 -155.36 256.26 147.51 0 0 60.3zm116.54 0l-62.11 0 0 -316.56 62.11 0 0 316.56zm287.24 -316.56l62.11 0 0 316.56 -62.11 0 -163.03 -218.58 0 218.58 -62.11 0 0 -316.56 61.54 0 163.6 219.36 0 -219.36z"/>
  <path class="fil10" d="M2046.95 5520.25c20.86,5.24 36.24,15.37 46.14,30.39 9.9,15.02 14.84,32.66 14.84,52.92 0,31.09 -11.15,56.5 -33.46,76.24 -22.3,19.73 -52.53,29.6 -90.67,29.6l-160.84 0 0 -352.11 129.54 0c43.53,0 77.45,7.51 101.74,22.53 24.28,15.02 36.42,38.25 36.42,69.69 0,16.77 -4.05,31.35 -12.14,43.75 -8.1,12.4 -18.62,21.4 -31.57,26.99zm-154.9 -95.89l0 67.07 64.77 0c43.18,0 64.77,-11.18 64.77,-33.54 0,-12.92 -5.23,-21.74 -15.66,-26.46 -10.44,-4.71 -26.8,-7.07 -49.11,-7.07l-64.77 0zm73.4 217.97c48.94,0 73.4,-15.37 73.4,-46.11 0,-15.37 -6.48,-26.89 -19.43,-34.58 -12.96,-7.68 -30.94,-11.53 -53.97,-11.53l-73.4 0 0 92.22 73.4 0zm414.51 -217.97l-155.44 0 0 75.45 129.53 0 0 67.07 -129.53 0 0 75.45 155.44 0 0 67.07 -224.53 0 0 -352.11 224.53 0 0 67.07zm310.88 -67.07l69.07 0 0 352.11 -69.07 0 -181.35 -243.12 0 243.12 -69.09 0 0 -352.11 68.46 0 181.98 244 0 -244zm405.78 352.11l-284.88 0 172.79 -285.04 -164.07 0 0 -67.07 284.87 0 -172.79 285.04 164.08 0 0 67.07zm129.6 0l-69.09 0 0 -352.11 69.09 0 0 352.11zm319.52 -352.11l69.07 0 0 352.11 -69.07 0 -181.35 -243.12 0 243.12 -69.09 0 0 -352.11 68.46 0 181.98 244 0 -244z"/>
  <path class="fil10" d="M4063.75 4969.72c20.86,5.24 36.24,15.37 46.14,30.39 9.9,15.02 14.84,32.66 14.84,52.92 0,31.09 -11.15,56.5 -33.46,76.24 -22.3,19.73 -52.53,29.6 -90.67,29.6l-160.84 0 0 -352.11 129.54 0c43.53,0 77.45,7.51 101.74,22.53 24.28,15.02 36.42,38.25 36.42,69.69 0,16.77 -4.05,31.35 -12.14,43.75 -8.1,12.4 -18.62,21.4 -31.57,26.99zm-154.9 -95.89l0 67.07 64.77 0c43.18,0 64.77,-11.18 64.77,-33.54 0,-12.92 -5.23,-21.74 -15.66,-26.46 -10.44,-4.71 -26.8,-7.07 -49.11,-7.07l-64.77 0zm73.4 217.97c48.94,0 73.4,-15.37 73.4,-46.11 0,-15.37 -6.48,-26.89 -19.43,-34.58 -12.96,-7.68 -30.94,-11.53 -53.97,-11.53l-73.4 0 0 92.22 73.4 0zm414.51 -217.97l-155.44 0 0 75.45 129.53 0 0 67.07 -129.53 0 0 75.45 155.44 0 0 67.07 -224.53 0 0 -352.11 224.53 0 0 67.07zm310.88 -67.07l69.07 0 0 352.11 -69.07 0 -181.35 -243.12 0 243.12 -69.09 0 0 -352.11 68.46 0 181.98 244 0 -244zm405.78 352.11l-284.88 0 172.79 -285.04 -164.07 0 0 -67.07 284.88 0 -172.8 285.04 164.08 0 0 67.07zm129.61 0l-69.09 0 0 -352.11 69.09 0 0 352.11zm319.52 -352.11l69.07 0 0 352.11 -69.07 0 -181.35 -243.12 0 243.12 -69.09 0 0 -352.11 68.46 0 181.98 244 0 -244z"/>
  <path class="fil10" d="M2444.35 464.42c52.3,0 91.73,12.19 118.3,36.58 26.56,24.39 39.84,56.97 39.84,97.76 0,36.38 -12.56,67.86 -37.68,94.45 -25.12,26.59 -58.68,39.88 -100.69,39.88l-88.95 0 0 134.34 -79.08 0 0 -403.01 148.26 0zm9.89 191.91c19.35,0 35.72,-5.4 49.11,-16.19 13.38,-10.8 20.07,-24.59 20.07,-41.38 0,-18.4 -6.48,-32.59 -19.45,-42.58 -12.98,-10 -29.56,-15 -49.73,-15l-79.07 0 0 115.15 79.07 0zm513.96 211.1l-96.37 0 -93.28 -134.34 -47.56 0 0 134.34 -79.08 0 0 -403.01 148.26 0c52.3,0 91.73,12.19 118.3,36.58 26.56,24.39 39.84,56.97 39.84,97.76 0,29.18 -8.44,55.67 -25.33,79.46 -16.88,23.79 -40.15,40.08 -69.79,48.88l105.01 140.33zm-237.21 -326.25l0 115.15 79.07 0c19.35,0 35.72,-5.4 49.11,-16.19 13.38,-10.8 20.07,-24.59 20.07,-41.38 0,-18.4 -6.48,-32.59 -19.45,-42.58 -12.98,-10 -29.56,-15 -49.73,-15l-79.07 0zm320.6 -24.59c42.42,-41.18 93.69,-61.77 153.81,-61.77 60.13,0 111.4,20.59 153.82,61.77 42.41,41.18 63.62,90.96 63.62,149.33 0,58.38 -21.21,108.15 -63.62,149.33 -42.42,41.19 -93.69,61.78 -153.82,61.78 -60.12,0 -111.39,-20.59 -153.81,-61.78 -42.42,-41.18 -63.62,-90.95 -63.62,-149.33 0,-58.37 21.2,-108.15 63.62,-149.33zm55.9 244.39c26.97,26.19 59.61,39.28 97.91,39.28 38.31,0 70.94,-13.09 97.92,-39.28 26.97,-26.19 40.46,-57.87 40.46,-95.06 0,-37.18 -13.49,-68.86 -40.46,-95.05 -26.98,-26.19 -59.61,-39.28 -97.92,-39.28 -38.3,0 -70.94,13.09 -97.91,39.28 -26.96,26.19 -40.45,57.87 -40.45,95.05 0,37.19 13.49,68.87 40.45,95.06zm517.97 -296.56c52.31,0 91.74,12.19 118.3,36.58 26.57,24.39 39.85,56.97 39.85,97.76 0,36.38 -12.56,67.86 -37.68,94.45 -25.13,26.59 -58.68,39.88 -100.69,39.88l-88.95 0 0 134.34 -79.08 0 0 -403.01 148.25 0zm9.89 191.91c19.36,0 35.72,-5.4 49.11,-16.19 13.38,-10.8 20.08,-24.59 20.08,-41.38 0,-18.4 -6.49,-32.59 -19.46,-42.58 -12.98,-10 -29.55,-15 -49.73,-15l-79.06 0 0 115.15 79.06 0zm468.97 211.1l-33.05 -76.76 -183.88 0 -30.89 76.76 -88.95 0 171.73 -403.01 71.66 0 172.96 403.01 -79.58 0zm-185.43 -153.53l119.44 0 -61.98 -143.93 -57.46 143.93zm591.18 -249.48l79.08 0 0 403.01 -79.08 0 -207.56 -278.27 0 278.27 -79.07 0 0 -403.01 78.35 0 208.28 279.27 0 -279.27z"/>
 </g>
</svg>
