<?xml version="1.0" encoding="UTF-8"?>
<!DOCTYPE svg PUBLIC "-//W3C//DTD SVG 1.1//EN" "http://www.w3.org/Graphics/SVG/1.1/DTD/svg11.dtd">
<!-- Creator: CorelDRAW -->
<svg xmlns="http://www.w3.org/2000/svg" xml:space="preserve" width="267.063mm" height="253.724mm" version="1.1" style="shape-rendering:geometricPrecision; text-rendering:geometricPrecision; image-rendering:optimizeQuality; fill-rule:evenodd; clip-rule:evenodd"
viewBox="0 0 26706.34 25372.44"
 xmlns:xlink="http://www.w3.org/1999/xlink"
 xmlns:xodm="http://www.corel.com/coreldraw/odm/2003">
 <defs>
  <style type="text/css">
   <![CDATA[
    .str0 {stroke:#93BAB3;stroke-width:100;stroke-miterlimit:22.9256}
    .fil0 {fill:none}
   ]]>
  </style>
 </defs>
 <g id="Слой_x0020_1">
  <metadata id="CorelCorpID_0Corel-Layer"/>
  <path class="fil0 str0" d="M16582.88 18146.26l620.5 756.08 710.74 671.03 164.54 731.5 390.98 544.2 963.83 943.8 488.11 482.46 499.52 437.11 670.58 300.02 97.45 369.96 218.77 -39.78 234.77 201.31 444.73 -266.83 907.46 458.58 635.34 732.09 268.82 644.35 7.54 260.84 221.23 -6.92 1533.41 -777.73 -737.56 -1423.93 -104.9 -201.21 -896.6 -1270.1 -427.11 -652.31 -232.02 -306.33 -76.07 -513.46 953.82 -934.44 -263.86 -678.56 -108.89 -826.44 -9.22 -473.48 5.31 -482.03 130.98 -225.15 37.16 -55.67 257.75 -206.73 158.16 -149.48 451.67 -484.46 631.85 -951.31 1056.94 -1029.75 -10.25 -667.14 -802.74 -241.11 -1021.45 -1035.38 -474.32 -562.38 -543.29 -643.88 -2522.1 -3270.49 -398.88 -789.28 -6000.09 -4469.67 -2666.5 -1983.19 -199.36 46.26 -363.69 -5.93 -913.22 198.2c-925.85,204.9 -1805.89,443.72 -2725.91,652.48l-1265.22 261.26 -191.81 50.17 -4532.03 1025.63 -465.68 4763.45 -1399.2 14370.07 0 320.36 3999.75 777.73 694.26 -412.42 -284.47 -682.83 -218.92 -1744.19 285.33 -705.02 1715.23 -1162.2 717.08 145.21 114.07 3.34 532.41 -97.02 468.23 -116.12 -76.27 -309.33 349.76 -888.99 302.82 -260.79 66.07 -4.94 499.75 144.6 339.32 330.89 160.93 338.08 550.94 463.66 242.12 -1.18 110.98 -252.39 -328.59 -219.54 -93.39 -394.65 -617.28 -1053.38 -134.46 -207.86 206.32 -127.1 362.03 10.48 172.68 47.81 527.55 178.22 49.69 -390.14 27.98 -160.25 220.95 -84.05 766.56 742.76 905.36 620.48 294.6 52.32 488.51 985.12 1345.16 174.34 699.48 66.63 118.01 38.83 216.13 13.39 586.07 625.47 207.26 -81.63z"/>
 </g>
</svg>
