<?xml version="1.0" encoding="UTF-8"?>
<!DOCTYPE svg PUBLIC "-//W3C//DTD SVG 1.1//EN" "http://www.w3.org/Graphics/SVG/1.1/DTD/svg11.dtd">
<!-- Creator: CorelDRAW -->
<svg xmlns="http://www.w3.org/2000/svg" xml:space="preserve" width="210mm" height="297mm" version="1.1" style="shape-rendering:geometricPrecision; text-rendering:geometricPrecision; image-rendering:optimizeQuality; fill-rule:evenodd; clip-rule:evenodd"
viewBox="0 0 21000 29700"
 xmlns:xlink="http://www.w3.org/1999/xlink"
 xmlns:xodm="http://www.corel.com/coreldraw/odm/2003">
 <defs>
  <style type="text/css">
   <![CDATA[
    .str0 {stroke:#93BAB3;stroke-width:200;stroke-miterlimit:22.9256}
    .fil0 {fill:none}
   ]]>
  </style>
 </defs>
 <g id="Слой_x0020_1">
  <metadata id="CorelCorpID_0Corel-Layer"/>
  <polygon class="fil0 str0" points="19248.92,17993.08 19374.19,17192.58 19862.78,12747.08 19211.75,10089.22 18164.48,8749.11 15408.27,6158.64 14084.62,4811.37 12299.59,2478.11 11115.82,1611.2 10586.96,1931.05 9422.37,3124.2 9504.07,4800.72 9523.53,5437.13 9248.31,6046.24 9224.88,6530.96 10321.32,7365.35 10937.5,8156.55 11011.46,9046.99 9038.91,9272.36 6992.59,8981.16 5402.91,9169.07 2675.65,12578.82 2167.12,15048.48 1147.83,17454.15 1227.21,18876.55 2296.84,19359.72 4795.83,19252.55 6606.62,18741.7 8573.56,17990.28 9346.08,18307.9 8921.68,21264.41 10158.49,22249.81 11111.76,22332.19 11031.12,22922.53 10062.17,23948.01 9519.76,24985.11 10212.22,25619.88 12105.78,26866.28 12960.69,25492.48 13420.52,25052.78 13900.98,25412.52 14409.41,26319.41 15582.53,27966.4 16648.86,28096.7 17310.35,26766.95 16781.68,26164.13 15464.62,25016.28 15341.28,24624.89 15577.59,24214.14 18325.86,23288.75 18776.99,22401.51 18039.12,20989.47 17299.31,20614.54 14451.23,20861.78 12997.76,20592.85 12503.95,19012.95 12632.31,18760.09 14744.46,18718.56 16469.67,18293.48 17959.83,18309.93 "/>
 </g>
</svg>
