<?xml version="1.0" encoding="UTF-8"?>
<!DOCTYPE svg PUBLIC "-//W3C//DTD SVG 1.1//EN" "http://www.w3.org/Graphics/SVG/1.1/DTD/svg11.dtd">
<!-- Creator: CorelDRAW -->
<svg xmlns="http://www.w3.org/2000/svg" xml:space="preserve" width="210mm" height="297mm" version="1.1" style="shape-rendering:geometricPrecision; text-rendering:geometricPrecision; image-rendering:optimizeQuality; fill-rule:evenodd; clip-rule:evenodd"
viewBox="0 0 21000 29700"
 xmlns:xlink="http://www.w3.org/1999/xlink"
 xmlns:xodm="http://www.corel.com/coreldraw/odm/2003">
 <defs>
  <style type="text/css">
   <![CDATA[
    .str0 {stroke:#93BAB3;stroke-width:100;stroke-miterlimit:22.9256}
    .fil0 {fill:none}
   ]]>
  </style>
 </defs>
 <g id="Слой_x0020_1">
  <metadata id="CorelCorpID_0Corel-Layer"/>
  <polygon class="fil0 str0" points="1906.16,5327.2 1441.38,5835.76 1479.46,6584.64 478.21,7435.72 1698.27,11633.87 1621.62,12138.77 1394.75,13777.66 2504.92,14629.98 2110.49,16044.1 2438,17607.42 3784.08,17689.45 5116.72,19212.81 4947.07,20289.9 6483.72,21373.07 7389.07,20974.56 8041.13,21324.93 8705.35,21389.8 8988.22,21461.39 8030.8,23032.78 8229.76,24865.75 8793.72,24943.74 9616.34,24546.46 9980,24349.23 14027.11,24360.84 14479.14,24424.15 16482.93,24700.83 17971.12,24679.1 19104.25,23211.46 19110.6,20904.26 20022.24,21097.63 20499.71,19154.78 19288.15,19266.49 18764.96,19635.74 18755.5,19359.22 19023.2,19103.52 18688.16,18183.38 17995.05,17881.09 18093.97,15965.89 16877.68,15666.83 15860.56,16086.64 13523.83,16099.66 13969.99,14855.4 14970.49,12472.95 15780.74,11628.81 15774.93,10899.67 15390.57,10670.7 13093.15,9182.78 14008.61,7270.7 12590.67,6234.59 12090.02,4893.14 10610.01,4719.84 9071.75,5004.91 7388.85,5083.76 4173.88,5390.72 2438.27,5314.83 "/>
 </g>
</svg>
